<?xml version="1.0" encoding="utf-8"?>
<!-- Generator: Adobe Illustrator 21.1.0, SVG Export Plug-In . SVG Version: 6.00 Build 0)  -->
<svg version="1.1" id="Layer_1" xmlns="http://www.w3.org/2000/svg" xmlns:xlink="http://www.w3.org/1999/xlink" x="0px" y="0px"
	 viewBox="0 0 512 512" style="enable-background:new 0 0 512 512;" xml:space="preserve">
<style type="text/css">
	.st0{fill:#9b9a9a;}
</style>
<g>
	<g>
		<path class="st0" d="M449.7,134.8c-7.9-8.1-20.8-8.3-28.9-0.4s-8.3,20.8-0.5,28.9c49.6,51.1,49.7,134.4,0,185.5
			c-11,11.3-3.7,24.9,0.5,28.9c8.1,7.9,21,7.6,28.9-0.4C514.4,310.4,514.4,201.7,449.7,134.8L449.7,134.8z"/>
		<path class="st0" d="M387.1,180.3c-7.9-8.1-20.8-8.3-28.9-0.4c-8.1,7.8-8.3,20.8-0.5,28.9c25.3,26,24.7,67.9,0,94.5
			c-10.6,11.4-3.7,24.9,0.5,28.9c8.1,7.9,21,7.6,28.9-0.4C427.6,289.9,427.6,222.1,387.1,180.3L387.1,180.3z"/>
		<path class="st0" d="M264,16.5L124.7,147H31.4c-11.3,0-20.4,9.1-20.4,20.4v177.1c0,11.3,9.1,20.4,20.4,20.4h93.2L264,495.5
			c17.8,14.5,35.2-2.2,34.4-14.9V31.4C299.4,18.2,281.1,2.3,264,16.5z M110.7,324.1H51.8V187.8h58.8v136.3H110.7z M257.6,433.5
			l-106-99.3V177.9l106-99.3V433.5z"/>
	</g>
</g>
</svg>
