<?xml version="1.0" encoding="utf-8"?>
<!-- Generator: Adobe Illustrator 21.1.0, SVG Export Plug-In . SVG Version: 6.00 Build 0)  -->
<svg version="1.1" id="Layer_1" xmlns="http://www.w3.org/2000/svg" xmlns:xlink="http://www.w3.org/1999/xlink" x="0px" y="0px"
	 viewBox="0 0 512 512" style="enable-background:new 0 0 512 512;" xml:space="preserve">
<style type="text/css">
	.st0{fill:#9b9a9a;}
</style>
<path class="st0" d="M485.5,204.1c-8-8-20.9-8-28.9,0l-23,23L410.5,204c-8-8-20.9-8-28.9,0s-8,20.9,0,28.9l23.1,23.1l-23.1,23.1
	c-8,8-8,20.9,0,28.9s20.9,8,28.9,0l23.1-23.1l23,23c8,8,20.9,8,28.9,0s8-20.9,0-28.9l-23-23l23-23
	C493.5,225,493.5,212.1,485.5,204.1z"/>
<g>
	<g>
		<path class="st0" d="M264,16.5L124.7,147H31.4c-11.3,0-20.4,9.1-20.4,20.4v177.1c0,11.3,9.1,20.4,20.4,20.4h93.2L264,495.5
			c17.8,14.5,35.2-2.2,34.4-14.9V31.4C299.4,18.2,281.1,2.3,264,16.5z M110.7,324.1H51.8V187.8h58.8v136.3H110.7z M257.6,433.5
			l-106-99.3V177.9l106-99.3V433.5z"/>
	</g>
</g>
</svg>
