<svg width="290" height="64" viewBox="0 0 290 64" fill="none" xmlns="http://www.w3.org/2000/svg">
<path d="M281.318 38.2413L264.236 12.8796H262.714H254.032V51.1208H262.714V25.6456L280.078 51.1208H281.318H290V12.8796H281.318V38.2413Z" fill="#14509C"/>
<path d="M168.791 26.0428L160.109 12.8796H149.003L164.506 35.5179V51.1208H173.132V35.5179L188.579 12.8796H177.473L168.791 26.0428Z" fill="#14509C"/>
<path d="M243.884 12.8796H235.202V51.1208H243.884V12.8796Z" fill="#14509C"/>
<path d="M132.936 12.8796L124.197 26.0428L115.515 12.8796H113.429H104.691H104.635L104.691 12.9364V51.1208H113.429V25.7591L124.31 41.7591L135.304 25.6456V51.1208H143.985V12.8796H135.304H132.936Z" fill="#14509C"/>
<path d="M34.8406 0.0567376L0 0L43.5789 64L61.2247 38.1277L34.8406 0.0567376Z" fill="#14509C"/>
<path d="M52.3737 0.0567376L87.2142 0L43.5789 64L26.0459 38.2411L52.3737 0.0567376Z" fill="#FF7300"/>
<path d="M204.365 20.1988H222.349L227.31 12.9364V12.8796H204.365H195.683V20.1988V51.1208H204.365V35.1775H220.714V27.8584H204.365V20.1988Z" fill="#14509C"/>
</svg>
