<?xml version="1.0" encoding="utf-8"?>
<!-- Generator: Adobe Illustrator 21.0.2, SVG Export Plug-In . SVG Version: 6.00 Build 0)  -->
<svg version="1.1" id="Layer_1" xmlns="http://www.w3.org/2000/svg" xmlns:xlink="http://www.w3.org/1999/xlink" x="0px" y="0px"
	 viewBox="0 0 41.9 83.6" style="enable-background:new 0 0 41.9 83.6;" xml:space="preserve">
<style type="text/css">
	.st0{fill:#EBEBEB;}
</style>
<path class="st0" d="M34,83.5H8c-1.8,0-3.2-0.4-4.3-0.9l0,0c-1.1-0.6-1.8-1.4-2.3-2.3l0,0c-0.9-1.8-0.9-3.8-0.9-4.9l0,0V8.1
	c0-0.8,0-2.2,0.4-3.5l0,0c0.4-1.4,1.2-2.8,2.8-3.7l0,0C4.8,0.4,6.2,0,8,0l0,0h26c1.8,0,3.2,0.4,4.3,0.9l0,0c1.1,0.6,1.8,1.4,2.3,2.3
	l0,0C41.5,5,41.5,7,41.5,8.1l0,0v67.2c0,0.8,0,2.2-0.4,3.5l0,0c-0.4,1.4-1.2,2.8-2.8,3.7l0,0C37.2,83.2,35.8,83.5,34,83.5L34,83.5
	C34,83.5,34,83.5,34,83.5L34,83.5z M4.1,1.6c-0.9,0.5-1.5,1.2-2,2l0,0C1.3,5.2,1.3,7,1.3,8.1l0,0v67.2c0,0.8,0,2.1,0.4,3.3l0,0
	c0.4,1.2,1,2.4,2.4,3.2l0,0C5,82.4,6.3,82.8,8,82.8l0,0h26c1.7,0,3-0.3,3.9-0.8l0,0c0.9-0.5,1.5-1.2,2-2l0,0
	c0.8-1.5,0.8-3.4,0.8-4.5l0,0V8.1c0-0.8,0-2.1-0.4-3.3l0,0c-0.4-1.2-1-2.4-2.4-3.2l0,0C37,1.1,35.7,0.8,34,0.8l0,0H8
	C6.3,0.8,5,1.1,4.1,1.6L4.1,1.6z"/>
<path class="st0" d="M17.7,77.6c0-1.8,1.5-3.3,3.3-3.3l0,0c1.8,0,3.3,1.5,3.3,3.3l0,0c0,1.8-1.5,3.3-3.3,3.3l0,0
	C19.2,80.9,17.7,79.4,17.7,77.6L17.7,77.6z M18.1,77.6c0,1.6,1.3,2.8,2.9,2.9l0,0c1.6,0,2.8-1.3,2.9-2.9l0,0c0-1.6-1.3-2.8-2.9-2.9
	l0,0C19.4,74.8,18.2,76,18.1,77.6L18.1,77.6z"/>
<path class="st0" d="M0,30.8v-5.4c0-0.3,0.3-0.6,0.6-0.6l0,0c0.3,0,0.6,0.3,0.6,0.6l0,0v5.4c0,0.3-0.3,0.6-0.6,0.6l0,0
	C0.3,31.4,0,31.1,0,30.8L0,30.8z"/>
<path class="st0" d="M0,22.4V17c0-0.3,0.3-0.6,0.6-0.6l0,0c0.3,0,0.6,0.3,0.6,0.6l0,0v5.4c0,0.3-0.3,0.6-0.6,0.6l0,0
	C0.3,23,0,22.7,0,22.4L0,22.4z"/>
<path class="st0" d="M0,12.9V10c0-0.3,0.3-0.6,0.6-0.6l0,0c0.3,0,0.6,0.3,0.6,0.6l0,0v2.9c0,0.3-0.3,0.6-0.6,0.6l0,0
	C0.3,13.5,0,13.2,0,12.9L0,12.9z"/>
<path class="st0" d="M40.7,22.3v-5.4c0-0.3,0.3-0.6,0.6-0.6l0,0c0.3,0,0.6,0.3,0.6,0.6l0,0v5.4c0,0.3-0.3,0.6-0.6,0.6l0,0
	C41,22.9,40.7,22.6,40.7,22.3L40.7,22.3z"/>
<path class="st0" d="M2.3,73.3V9.9h37.4v63.2v0.2L2.3,73.3L2.3,73.3z M39.5,73.1v-0.2V73.1L39.5,73.1z M2.7,72.8h36.5V10.3H2.7V72.8
	L2.7,72.8z"/>
<circle class="st0" cx="21" cy="2.7" r="0.6"/>
<path class="st0" d="M17.5,5.2c-0.2,0-0.4-0.2-0.4-0.4l0,0c0-0.2,0.2-0.4,0.4-0.4l0,0h6.9c0.2,0,0.4,0.2,0.4,0.4l0,0
	c0,0.2-0.2,0.4-0.4,0.4l0,0H17.5L17.5,5.2z"/>
<circle class="st0" cx="14.4" cy="4.8" r="0.7"/>
</svg>
