<?xml version="1.0" encoding="utf-8"?>
<!-- Generator: Adobe Illustrator 21.0.2, SVG Export Plug-In . SVG Version: 6.00 Build 0)  -->
<svg version="1.1" id="Layer_1" xmlns="http://www.w3.org/2000/svg" xmlns:xlink="http://www.w3.org/1999/xlink" x="0px" y="0px"
	 viewBox="0 0 100 100" style="enable-background:new 0 0 100 100;" xml:space="preserve">
<style type="text/css">
	.st0{fill:#1A3462;}
</style>
<g>
	<path class="st0" d="M44.3,7H5.8C2.6,7,0,9.6,0,12.7v77.4c0,3.2,2.6,5.8,5.8,5.8h38.5c3.2,0,5.8-2.6,5.8-5.8V12.7
		C50.1,9.6,47.5,7,44.3,7z M19.9,10.5h10.4c0.5,0,0.9,0.4,0.9,0.9s-0.4,0.9-0.9,0.9H19.9c-0.5,0-0.9-0.4-0.9-0.9
		S19.4,10.5,19.9,10.5z M28.4,93c0,0.6-0.5,1.2-1.2,1.2h-4.4c-0.6,0-1.2-0.5-1.2-1.2v-4.4c0-0.6,0.5-1.2,1.2-1.2h4.4
		c0.6,0,1.2,0.5,1.2,1.2V93z M48.7,85.9H1.3v-70h47.4V85.9L48.7,85.9z"/>
	
		<rect x="1.7" y="27.7" transform="matrix(0.7071 -0.7071 0.7071 0.7071 -16.5779 17.6924)" class="st0" width="22.8" height="2.3"/>
	<rect x="-1.5" y="34.1" transform="matrix(0.7071 -0.7071 0.7071 0.7071 -19.2072 24.0917)" class="st0" width="42" height="2.3"/>
	<path class="st0" d="M98.3,33.2L71.2,5.9c-2.2-2.3-5.9-2.3-8.1,0L51.8,17v70.5l45.5-45.2l1-1C100.6,39.1,100.6,35.5,98.3,33.2z
		 M68.9,24.4l-2.6-2.6c-0.3-0.3-0.3-0.8,0-1.1l2.6-2.6c0.3-0.3,0.8-0.3,1.1,0l2.6,2.6c0.3,0.3,0.3,0.8,0,1.1L70,24.4
		C69.7,24.7,69.2,24.7,68.9,24.4z M75.4,32.6l-3.8-3.8c-0.4-0.5-0.4-1.2,0-1.6l3.8-3.8c0.5-0.4,1.2-0.4,1.6,0l3.8,3.8
		c0.4,0.5,0.4,1.2,0,1.6L77,32.6C76.5,33.1,75.8,33.1,75.4,32.6z M86,35.3l-2.6,2.6c-0.3,0.3-0.8,0.3-1.1,0l-2.6-2.6
		c-0.3-0.3-0.3-0.8,0-1.1l2.6-2.6c0.3-0.3,0.8-0.3,1.1,0l2.6,2.6C86.3,34.5,86.3,35,86,35.3z"/>
</g>
</svg>
