<?xml version="1.0" encoding="utf-8"?>
<!-- Generator: Adobe Illustrator 21.0.2, SVG Export Plug-In . SVG Version: 6.00 Build 0)  -->
<svg version="1.1"
	 id="Layer_1" xmlns:cc="http://creativecommons.org/ns#" xmlns:dc="http://purl.org/dc/elements/1.1/" xmlns:inkscape="http://www.inkscape.org/namespaces/inkscape" xmlns:rdf="http://www.w3.org/1999/02/22-rdf-syntax-ns#" xmlns:sodipodi="http://sodipodi.sourceforge.net/DTD/sodipodi-0.dtd" xmlns:svg="http://www.w3.org/2000/svg"
	 xmlns="http://www.w3.org/2000/svg" xmlns:xlink="http://www.w3.org/1999/xlink" x="0px" y="0px" viewBox="0 0 100 100"
	 style="enable-background:new 0 0 100 100;" xml:space="preserve">
<style type="text/css">
	.st0{fill:#1A3462;}
</style>
<g transform="translate(0,-952.36218)">
	<path class="st0" d="M4.8,960.7c-2.6,0-4.8,2.1-4.8,4.8v47.6h100v-47.6c0-2.6-2.1-4.8-4.8-4.8H4.8z M0,1015.5v7.1
		c0,2.6,2.1,4.8,4.8,4.8h90.5c2.6,0,4.8-2.1,4.8-4.8v-7.1L0,1015.5L0,1015.5z M50,1019c1.3,0,2.4,1.1,2.4,2.4s-1.1,2.4-2.4,2.4
		c-1.3,0-2.4-1.1-2.4-2.4S48.7,1019,50,1019z M41.7,1029.7v7.1h16.7v-7.1H41.7z M35.7,1039.3c-1.3,0-2.4,1.1-2.4,2.4
		s1.1,2.4,2.4,2.4h28.6c1.3,0,2.4-1.1,2.4-2.4s-1.1-2.4-2.4-2.4H35.7z"/>
</g>
</svg>
