<?xml version="1.0" encoding="utf-8"?>
<!-- Generator: Adobe Illustrator 21.0.2, SVG Export Plug-In . SVG Version: 6.00 Build 0)  -->
<svg version="1.1" id="Layer_1" xmlns="http://www.w3.org/2000/svg" xmlns:xlink="http://www.w3.org/1999/xlink" x="0px" y="0px"
	 viewBox="0 0 100 100" style="enable-background:new 0 0 100 100;" xml:space="preserve">
<style type="text/css">
	.st0{fill:#1A3462;}
</style>
<g id="Layer_1_1_" xmlns:cc="http://creativecommons.org/ns#" xmlns:dc="http://purl.org/dc/elements/1.1/" xmlns:inkscape="http://www.inkscape.org/namespaces/inkscape" xmlns:rdf="http://www.w3.org/1999/02/22-rdf-syntax-ns#" xmlns:sodipodi="http://sodipodi.sourceforge.net/DTD/sodipodi-0.dtd" xmlns:svg="http://www.w3.org/2000/svg">
	<g>
		<g>
			<rect x="41.7" y="77.4" class="st0" width="15.4" height="7.1"/>
			<path class="st0" d="M57.1,63.1H0v7.1C0,72.9,2.1,75,4.8,75h52.3V63.1z M50,71.4c-1.3,0-2.4-1.1-2.4-2.4s1.1-2.4,2.4-2.4
				c1.3,0,2.4,1.1,2.4,2.4S51.3,71.4,50,71.4z"/>
			<path class="st0" d="M95.2,8.3H4.8C2.1,8.3,0,10.5,0,13.1v47.6h57.1V40.2c0-2.9,2.4-5.3,5.3-5.3H88c2.9,0,5.3,2.4,5.3,5.3v20.6
				h6.6V13.1C100,10.5,97.9,8.3,95.2,8.3z"/>
			<path class="st0" d="M57.1,90.5v-3.6H35.7c-1.3,0-2.4,1.1-2.4,2.4s1.1,2.4,2.4,2.4h21.5C57.1,91.3,57.1,90.9,57.1,90.5z"/>
			<path class="st0" d="M93.4,75h1.9c2.6,0,4.8-2.1,4.8-4.8v-7.1h-6.6V75H93.4z"/>
		</g>
		<path class="st0" d="M86.4,39.2H64.1c-1.8,0-3.3,1.5-3.3,3.4V88c0,1.9,1.5,3.4,3.3,3.4h22.3c1.8,0,3.3-1.5,3.3-3.4V42.6
			C89.7,40.7,88.2,39.2,86.4,39.2z M72.2,41.3h6c0.3,0,0.5,0.2,0.5,0.5s-0.2,0.5-0.5,0.5h-6c-0.3,0-0.5-0.2-0.5-0.5
			S72,41.3,72.2,41.3z M77.2,89c0,0.7-0.6,1.3-1.3,1.3h-1.2c-0.7,0-1.3-0.6-1.3-1.3v-1.2c0-0.7,0.6-1.3,1.3-1.3h1.2
			c0.7,0,1.3,0.6,1.3,1.3V89z M89,85.5H62.2c-0.4,0-0.7-0.3-0.7-0.7V45.1c0-0.4,0.3-0.7,0.7-0.7h26.1c0.4,0,0.7,0.3,0.7,0.7V85.5
			L89,85.5z"/>
		<path class="st0" d="M73,47.3L73,47.3c0.3,0.3,0.3,0.7,0,0.9l-8.4,8.5c-0.3,0.3-0.7,0.3-1,0l0,0c-0.3-0.3-0.3-0.7,0-0.9l8.4-8.5
			C72.3,47.1,72.7,47.1,73,47.3z"/>
		<path class="st0" d="M80.6,47.1L80.6,47.1c0.3,0.3,0.3,0.7,0,0.9L64.4,64.5c-0.3,0.3-0.7,0.3-1,0l0,0c-0.3-0.3-0.3-0.7,0-0.9
			l16.3-16.5C79.9,46.8,80.4,46.8,80.6,47.1z"/>
	</g>
</g>
<g id="Layer_2">
</g>
</svg>
