<?xml version="1.0" encoding="utf-8"?>
<!-- Generator: Adobe Illustrator 21.0.2, SVG Export Plug-In . SVG Version: 6.00 Build 0)  -->
<svg version="1.1" id="Layer_1" xmlns="http://www.w3.org/2000/svg" xmlns:xlink="http://www.w3.org/1999/xlink" x="0px" y="0px"
	 viewBox="0 0 100 100" style="enable-background:new 0 0 100 100;" xml:space="preserve">
<style type="text/css">
	.st0{fill:#1A3462;}
</style>
<path class="st0" d="M50,0C22.4,0,0,22.4,0,50s22.4,50,50,50s50-22.4,50-50S77.6,0,50,0z M77.9,45.2L65.3,55.8l3.9,16
	c0.7,3-2.6,5.4-5.2,3.8l-14-8.7l-14,8.7c-2.7,1.7-6-0.8-5.2-3.8l3.9-16L22.1,45.2c-2.4-2-1.1-5.8,2-6.1l16.5-1.2l6.2-15.2
	c1.2-2.8,5.3-2.8,6.4,0l6.2,15.2L75.9,39C79,39.3,80.2,43.2,77.9,45.2z"/>
</svg>
