<svg width="51" height="43" viewBox="0 0 51 43" fill="none" xmlns="http://www.w3.org/2000/svg">
<path d="M2.50781 18.7799H49.1585V14.055H39.5891V11.9019L25.8332 0.777466L12.0772 11.9019V14.055H2.50781V18.7799Z" fill="#A3D4FF"/>
<path d="M49.7566 19.3779H1.90967V15.61H3.10584V18.1818H48.5604V16.1483H49.7566V19.3779Z" fill="#4C739E"/>
<path d="M25.8334 13.9952C27.8813 13.9952 29.5415 12.3351 29.5415 10.2871C29.5415 8.23917 27.8813 6.57898 25.8334 6.57898C23.7854 6.57898 22.1252 8.23917 22.1252 10.2871C22.1252 12.3351 23.7854 13.9952 25.8334 13.9952Z" fill="white"/>
<path d="M25.8333 14.6531C23.441 14.6531 21.5271 12.7392 21.5271 10.3469C21.5271 7.95453 23.441 6.04065 25.8333 6.04065C28.2257 6.04065 30.1395 7.95453 30.1395 10.3469C30.1395 12.6794 28.2257 14.6531 25.8333 14.6531ZM25.8333 7.17701C24.0989 7.17701 22.7233 8.55261 22.7233 10.2871C22.7233 12.0215 24.0989 13.3971 25.8333 13.3971C27.5678 13.3971 28.9434 12.0215 28.9434 10.2871C28.9434 8.55261 27.5678 7.17701 25.8333 7.17701Z" fill="#4C739E"/>
<path d="M49.7567 14.6531H38.9911V12.201L25.8332 1.55502L12.6754 12.201V14.6531H1.90981V12.6794L0.833252 11.6029V5.98086H16.3237V7.17703H2.02942V11.1244L3.10598 12.201V13.4569H11.4792V11.6029L25.8332 0L40.1873 11.6029V13.4569H48.5605V12.201L49.6371 11.1244V7.17703H35.3428V5.98086H50.8333V11.6029L49.7567 12.6794V14.6531Z" fill="#4C739E"/>
<path d="M3.52466 20.8732V42.6435H4.72083V37.4402H6.75432V36.244H4.72083V32.6555H6.75432V31.4593H4.72083V27.3325H6.75432V26.1363H4.72083V22.0693H11.4792V35.7655H12.6754V20.8732H3.52466Z" fill="#4C739E"/>
<path d="M21.1084 35.7655H19.9123V24.3421C19.9123 23.0861 18.8955 22.0095 17.5797 22.0095C16.2639 22.0095 15.2472 23.0263 15.2472 24.3421V35.7655H14.051V24.3421C14.051 22.4282 15.6061 20.8134 17.5797 20.8134C19.4936 20.8134 21.1084 22.3684 21.1084 24.3421V35.7655Z" fill="#4C739E"/>
<path d="M39.5295 20.8732V35.7655H40.7257V22.0693H47.4841V26.1363H45.4506V27.3325H47.4841V31.4593H45.4506V32.6555H47.4841V36.244H45.4506V37.4402H47.4841V42.6435H48.6803V20.8732H39.5295Z" fill="#4C739E"/>
<path d="M38.094 35.7655H36.8979V24.3421C36.8979 23.0861 35.8811 22.0095 34.5653 22.0095C33.2495 22.0095 32.2328 23.0263 32.2328 24.3421V35.7655H31.0366V24.3421C31.0366 22.4282 32.5916 20.8134 34.5653 20.8134C36.4792 20.8134 38.094 22.3684 38.094 24.3421V35.7655Z" fill="#4C739E"/>
<path d="M29.6011 35.7655H28.4049V24.3421C28.4049 23.0861 27.3882 22.0095 26.0724 22.0095C24.8164 22.0095 23.7399 23.0263 23.7399 24.3421V35.7655H22.5437V24.3421C22.5437 22.4282 24.0987 20.8134 26.0724 20.8134C27.9863 20.8134 29.6011 22.3684 29.6011 24.3421V35.7655Z" fill="#4C739E"/>
<path d="M41.7423 38.3374H9.92407V39.5336H41.7423V38.3374Z" fill="#4C739E"/>
<path d="M44.3738 41.5072H7.29248V42.7034H44.3738V41.5072Z" fill="#4C739E"/>
</svg>
