<svg width="60" height="60" viewBox="0 0 60 60" fill="none" xmlns="http://www.w3.org/2000/svg">
<path d="M29.3185 57.0382C43.3015 57.0382 54.6369 45.7027 54.6369 31.7197C54.6369 17.7367 43.3015 6.40127 29.3185 6.40127C15.3355 6.40127 4 17.7367 4 31.7197C4 45.7027 15.3355 57.0382 29.3185 57.0382Z" fill="#F4F8FF"/>
<path d="M40.0191 11.0828C39.8281 10.7006 39.4459 10.2229 39.1593 9.84077L40.6879 8.69427C40.9746 9.07644 41.3567 9.64969 41.6433 10.1274L40.0191 11.0828Z" fill="#4C739E"/>
<path d="M38.2038 8.78982C37.9172 8.50319 37.4395 8.12103 37.0573 7.8344L38.2038 6.30574C38.586 6.59236 39.0637 7.07007 39.4458 7.45224L38.2038 8.78982Z" fill="#4C739E"/>
<path d="M35.8153 6.97452C35.3376 6.68789 34.8599 6.49681 34.3822 6.30573L35.051 4.49044C35.6242 4.68152 36.1975 4.96815 36.7707 5.25477L35.8153 6.97452Z" fill="#4C739E"/>
<path d="M19.2866 19.2994C17.4713 12.8981 21.1974 6.11465 27.5987 4.29936C29.5095 3.72611 31.5159 3.72611 33.4267 4.10828L33.0445 6.01911C31.4203 5.63694 29.7006 5.73248 28.0764 6.21019C22.6305 7.73885 19.4777 13.4713 21.1019 18.8217L19.2866 19.2994Z" fill="#4C739E"/>
<path d="M19.6688 20.5414L15.7516 16.6242L17.0892 15.2866L19.6688 17.7707L22.2484 15.1911L23.586 16.5287L19.6688 20.5414Z" fill="#4C739E"/>
<path d="M23.1083 2.38853L22.535 0.573248C23.2038 0.382166 24.0637 0.0955414 24.828 0L25.2102 1.91083C24.5414 2.00637 23.7771 2.19745 23.1083 2.38853Z" fill="#4C739E"/>
<path d="M19.6688 4.20382L18.6179 2.57962C19.1911 2.19745 20.051 1.71974 20.6242 1.43312L21.4841 3.15287C20.9109 3.34395 20.1465 3.82166 19.6688 4.20382Z" fill="#4C739E"/>
<path d="M16.4204 7.16561L14.8917 5.92357C15.465 5.25478 16.0382 4.68153 16.6115 4.10828L17.8535 5.5414C17.3758 6.01911 16.8981 6.59236 16.4204 7.16561Z" fill="#4C739E"/>
<path d="M15.8471 28.0892C12.5987 24.7452 10.879 20.1592 11.1656 15.4777C11.3567 12.707 12.121 10.0319 13.5541 7.73886L15.1783 8.69427C13.9363 10.7962 13.172 13.0892 13.0764 15.5733C12.8853 19.6815 14.3185 23.7898 17.1847 26.7516L15.8471 28.0892Z" fill="#4C739E"/>
<path d="M22.8216 55.0318C22.535 54.6497 22.0573 54.0764 21.8662 53.5987L23.4904 52.6433C23.6815 53.0255 24.0636 53.5032 24.3503 53.8854L22.8216 55.0318Z" fill="#4C739E"/>
<path d="M25.3057 57.5159C24.9236 57.2293 24.2548 56.6561 23.9682 56.3694L25.3057 55.0318C25.5924 55.3185 26.1656 55.7962 26.5478 56.0828L25.3057 57.5159Z" fill="#4C739E"/>
<path d="M28.5542 59.2357C27.9809 59.0446 27.4077 58.7579 26.8344 58.4713L27.7898 56.7516C28.2675 57.0382 28.7452 57.2293 29.2229 57.4204L28.5542 59.2357Z" fill="#4C739E"/>
<path d="M32.6624 60C31.8026 60 30.9427 59.9045 30.1784 59.7134L30.5605 57.8025C32.1847 58.1847 33.9045 58.0892 35.5287 57.6115C38.1083 56.8471 40.3057 55.1274 41.6433 52.7389C42.9809 50.3503 43.2675 47.5796 42.5032 45L44.3185 44.5223C45.1784 47.6752 44.7962 50.9236 43.2675 53.7898C41.7389 56.656 39.1593 58.6624 36.0064 59.5223C34.8599 59.8089 33.7134 60 32.6624 60Z" fill="#4C739E"/>
<path d="M41.2611 48.535L39.9235 47.1975L43.8407 43.2803L47.7579 47.1975L46.4204 48.535L43.8407 45.9554L41.2611 48.535Z" fill="#4C739E"/>
<path d="M23.5859 50.3503C30.7093 50.3503 36.484 44.5756 36.484 37.4522C36.484 30.3288 30.7093 24.5541 23.5859 24.5541C16.4625 24.5541 10.6878 30.3288 10.6878 37.4522C10.6878 44.5756 16.4625 50.3503 23.5859 50.3503Z" fill="#A3D4FF"/>
<path d="M23.586 51.3057C15.9427 51.3057 9.73248 45.0955 9.73248 37.4522C9.73248 29.8089 15.9427 23.5987 23.586 23.5987C31.2293 23.5987 37.4395 29.8089 37.4395 37.4522C37.4395 45.0955 31.2293 51.3057 23.586 51.3057ZM23.586 25.5095C16.9936 25.5095 11.6433 30.8599 11.6433 37.4522C11.6433 44.0446 16.9936 49.3949 23.586 49.3949C30.1783 49.3949 35.5287 44.0446 35.5287 37.4522C35.5287 30.8599 30.1783 25.5095 23.586 25.5095Z" fill="#4C739E"/>
<path d="M41.2611 38.8853C48.1207 38.8853 53.6815 33.3245 53.6815 26.465C53.6815 19.6054 48.1207 14.0446 41.2611 14.0446C34.4015 14.0446 28.8407 19.6054 28.8407 26.465C28.8407 33.3245 34.4015 38.8853 41.2611 38.8853Z" fill="white"/>
<path d="M41.2611 39.8408C33.9045 39.8408 27.8853 33.8216 27.8853 26.465C27.8853 19.1083 33.9045 13.0892 41.2611 13.0892C48.6178 13.0892 54.6369 19.1083 54.6369 26.465C54.6369 33.8216 48.6178 39.8408 41.2611 39.8408ZM41.2611 15C34.9554 15 29.7962 20.1592 29.7962 26.465C29.7962 32.7707 34.9554 37.9299 41.2611 37.9299C47.5669 37.9299 52.7261 32.7707 52.7261 26.465C52.7261 20.1592 47.5669 15 41.2611 15Z" fill="#4C739E"/>
<path d="M8.77707 50.3503H6.86624V56.0828H8.77707V50.3503Z" fill="#DFEEFF"/>
<path d="M10.6879 52.2611H4.95541V54.172H10.6879V52.2611Z" fill="#DFEEFF"/>
<path d="M53.6815 4.49044H51.7707V10.2229H53.6815V4.49044Z" fill="#DFEEFF"/>
<path d="M55.5923 6.40127H49.8599V8.3121H55.5923V6.40127Z" fill="#DFEEFF"/>
<path d="M42.2166 32.1974H40.3057C38.6815 32.1974 37.4395 30.9554 37.4395 29.3312H39.3503C39.3503 29.9045 39.7325 30.2866 40.3057 30.2866H42.2166C42.7898 30.2866 43.172 29.9045 43.172 29.3312V28.758C43.172 28.3758 42.8854 27.9936 42.5032 27.8981L39.3503 26.8471C38.2038 26.465 37.344 25.3185 37.344 24.172V23.5987C37.344 21.9745 38.586 20.7325 40.2102 20.7325H42.121C43.7452 20.7325 44.9873 21.9745 44.9873 23.5987H43.0764C43.0764 23.0255 42.6943 22.6433 42.121 22.6433H40.2102C39.637 22.6433 39.2548 23.0255 39.2548 23.5987V24.172C39.2548 24.5541 39.5414 24.9363 39.9236 25.0318L43.0764 26.0828C44.2229 26.465 45.0828 27.6115 45.0828 28.758V29.3312C45.0828 30.9554 43.8408 32.1974 42.2166 32.1974Z" fill="#4C739E"/>
<path d="M42.2166 18.8217H40.3057V21.6879H42.2166V18.8217Z" fill="#4C739E"/>
<path d="M42.2166 31.242H40.3057V34.1083H42.2166V31.242Z" fill="#4C739E"/>
<path d="M26.9299 43.6624H24.0637C21.3885 43.6624 19.2866 41.5605 19.2866 38.8853V36.0191C19.2866 33.3439 21.3885 31.242 24.0637 31.242H26.9299V33.1529H24.0637C22.4395 33.1529 21.1974 34.3949 21.1974 36.0191V38.8853C21.1974 40.5095 22.4395 41.7516 24.0637 41.7516H26.9299V43.6624Z" fill="#4C739E"/>
<path d="M24.0637 35.0637H17.3758V36.9745H24.0637V35.0637Z" fill="#4C739E"/>
<path d="M24.0637 37.9299H17.3758V39.8408H24.0637V37.9299Z" fill="#4C739E"/>
</svg>
