<?xml version="1.0" encoding="utf-8"?>
<!-- Generator: Adobe Illustrator 21.1.0, SVG Export Plug-In . SVG Version: 6.00 Build 0)  -->
<svg version="1.1" id="Layer_1" xmlns="http://www.w3.org/2000/svg" xmlns:xlink="http://www.w3.org/1999/xlink" x="0px" y="0px"
	 viewBox="0 0 215.6 69" style="enable-background:new 0 0 215.6 69;" xml:space="preserve">
<style type="text/css">
	.st0{fill:url(#SVGID_1_);}
	.st1{fill:#FFFFFF;}
</style>
<g>
	
		<linearGradient id="SVGID_1_" gradientUnits="userSpaceOnUse" x1="106.55" y1="61" x2="106.55" y2="9" gradientTransform="matrix(1 0 0 -1 0 70)">
		<stop  offset="3.098060e-03" style="stop-color:#E4B4D1"/>
		<stop  offset="0.1276" style="stop-color:#C171A2"/>
		<stop  offset="0.439" style="stop-color:#9A3A7E"/>
		<stop  offset="0.7316" style="stop-color:#91287C"/>
		<stop  offset="1" style="stop-color:#B14188"/>
	</linearGradient>
	<path class="st0" d="M179.9,61H33.1c-14.3,0-26-11.7-26-26l0,0c0-14.3,11.7-26,26-26H180c14.3,0,26,11.7,26,26l0,0
		C205.9,49.3,194.2,61,179.9,61z"/>
</g>
<g>
	<path class="st1" d="M29.5,33.9h1.8c1.6,0,2.7-1,2.7-2.4c0-1.4-1-2.3-2.6-2.3c-1.6,0-2.7,0.9-2.8,2.3h-2c0.2-2.6,2-4.2,4.9-4.2
		c2.7,0,4.6,1.7,4.6,4c0,1.7-1,2.9-2.6,3.4v0.1c1.8,0.3,2.9,1.7,2.9,3.6c0,2.5-2.2,4.3-5.1,4.3c-2.9,0-5.1-1.7-5.1-4.2h2
		c0.1,1.5,1.4,2.4,3.1,2.4s2.9-1,2.9-2.5c0-1.6-1.1-2.4-2.9-2.4h-1.9L29.5,33.9L29.5,33.9z"/>
	<path class="st1" d="M46.1,38.3h-5.2l-1.3,4h-2.2l5-14.5h2.3l5,14.5h-2.2L46.1,38.3z M41.4,36.6h4.1l-2-6.4l0,0L41.4,36.6z"/>
	<path class="st1" d="M62.2,42.3h-2.8l-5.9-6.8h-0.1v6.8h-2.1V27.7h2.1v6.5h0.1l5.6-6.5h2.6l-6,6.9L62.2,42.3z"/>
	<path class="st1" d="M71.5,38.3h-5.2l-1.3,4h-2.2l5-14.5H70l5,14.5h-2.2L71.5,38.3z M66.8,36.6h4.1l-2-6.3h-0.1L66.8,36.6z"/>
	<path class="st1" d="M79.1,33.9h1.8c1.6,0,2.7-1,2.7-2.4c0-1.4-1-2.3-2.6-2.3c-1.6,0-2.7,0.9-2.8,2.3h-2c0.2-2.6,2-4.2,4.9-4.2
		c2.7,0,4.6,1.7,4.6,4c0,1.7-1,2.9-2.6,3.4v0.1c1.8,0.3,2.9,1.7,2.9,3.6c0,2.5-2.2,4.3-5.1,4.3c-2.9,0-5.1-1.7-5.1-4.2h2
		c0.1,1.5,1.4,2.4,3.1,2.4s2.9-1,2.9-2.5c0-1.6-1.1-2.4-2.9-2.4H79L79.1,33.9L79.1,33.9z"/>
	<path class="st1" d="M95.7,38.3h-5.2l-1.3,4H87l5-14.5h2.3l5,14.5H97L95.7,38.3z M91.1,36.6h4.1l-2-6.4h-0.1L91.1,36.6z"/>
	<path class="st1" d="M102.7,42.3V29.7h-4.2v-1.9h10.7v1.9h-4.2v12.6H102.7z"/>
	<path class="st1" d="M111.1,27.7h2.1V33h3.1c2.7,0,4.6,1.9,4.6,4.7s-1.8,4.7-4.5,4.7h-5.2L111.1,27.7L111.1,27.7z M115.9,40.3
		c1.8,0,2.9-1,2.9-2.8s-1.1-2.8-2.9-2.8h-2.6v5.5H115.9z"/>
	<path class="st1" d="M138.3,42.3h-2.8l-5.9-6.8h-0.1v6.8h-2.1V27.7h2.1v6.5h0.1l5.6-6.5h2.6l-6,6.9L138.3,42.3z"/>
	<path class="st1" d="M147.5,38.3h-5.2l-1.3,4h-2.2l5-14.5h2.3l5,14.5h-2.2L147.5,38.3z M142.9,36.6h4.1l-2-6.3h-0.1L142.9,36.6z"/>
	<path class="st1" d="M158.1,27.7c2.7,0,4.5,1.9,4.5,4.8c0,2.9-1.9,4.8-4.6,4.8h-3.1v5h-2.1V27.7H158.1z M154.9,35.4h2.7
		c1.8,0,2.9-1.1,2.9-2.9c0-1.8-1-2.9-2.9-2.9h-2.7V35.4z"/>
	<path class="st1" d="M168.1,42.3V29.7h-4.2v-1.9h10.7v1.9h-4.2v12.6H168.1z"/>
	<path class="st1" d="M177.1,42.3v-1.9c0.2,0,0.5,0.1,0.8,0.1c0.9,0,1.6-0.4,2.1-1.4l-4.6-11.3h2.3l3.5,8.9h0.1l3.3-8.9h2.2
		l-4.2,10.4c-1.3,3.1-2.4,4.3-4.5,4.3C177.6,42.4,177.2,42.4,177.1,42.3z"/>
</g>
</svg>
