<?xml version="1.0" encoding="utf-8"?>
<!-- Generator: Adobe Illustrator 21.1.0, SVG Export Plug-In . SVG Version: 6.00 Build 0)  -->
<svg version="1.1" id="Layer_1" xmlns="http://www.w3.org/2000/svg" xmlns:xlink="http://www.w3.org/1999/xlink" x="0px" y="0px"
	 viewBox="0 0 288.1 74.3" style="enable-background:new 0 0 288.1 74.3;" xml:space="preserve">
<style type="text/css">
	.st0{fill:#FFFFFF;}
</style>
<g>
	<g>
		<path class="st0" d="M99.5,57.6H84.5c-0.3,0-0.4-0.3-0.4-0.3l-7.8-14.7c-4.9,3.8-0.6,9.8,0.6,10.9c0.6,0.7-1.7,5.3-6.9,5.3
			c-4.9,0-8.9-4-9.2-8.9C60.4,44.2,65.3,38.3,73,36L61.7,18c0,0-0.2-0.4,0.3-0.4h14.1c0.3,0,0.4,0.3,0.4,0.3l7.6,14.8
			c5.4-3.4,1.1-11.1-0.2-12.2c-0.4-0.4,0.7-3.9,5.8-4.3c5.5-0.5,9.5,3.4,10.1,8.3c0.6,5.9-4.4,11.8-12.1,14.2l12,18.5
			C99.7,57.3,99.9,57.6,99.5,57.6z"/>
		<path class="st0" d="M164.2,57.3c0,0.3-0.2,0.3-0.2,0.3h-10.8c0,0-0.2,0-0.2-0.3V34.7h-4c0.9,22.4-10,23.8-15.3,24.1
			c-5.8,0.4-11.8-2.1-13.2-6.3c-1.9,3.6-4.9,6.3-8.8,6.3c-7,0-10.9-7.8-10.9-15.2c0-7.7,3.9-15.1,11.2-15.1c3.9,0,6.6,2.2,8.3,5.3
			v-3.9c0-0.3,0.3-0.3,0.3-0.3h11.2c0,0,0.2,0.1,0.2,0.3c0,0-0.3,15.9-0.2,19.8c0.1,6.3,4,5,6-3.5c1.6-6.5,1.7-16.3,1.7-16.3
			c0-0.2,0.2-0.3,0.2-0.3c7.5-1.7,15.5-1.8,24.4,0c0.1,0,0.2,0.1,0.2,0.2V57.3z M120.5,43.5c0-4.2-1.5-7.6-4.2-7.6
			c-2.7,0-4.2,3.4-4.2,7.6s1.5,7.5,4.2,7.5C119.1,51,120.5,47.7,120.5,43.5z"/>
		<path class="st0" d="M195.6,48c0,7.2-6.9,10.7-14.4,10.7c-10.3,0-13.8-6.9-13.8-12.1c0,0,0-0.1,0-0.1c0-0.1,0-0.1,0-0.2
			c0-3.9,0-16.5,0-16.5c0-0.2,0.2-0.3,0.2-0.3c0,0,5.3-1.3,12.7-1.3c5.9,0,13,1.6,13,7.4c0,2.8-1.9,4.6-3.6,5.2
			C193.5,42,195.6,44.5,195.6,48z M180,34.2c-0.4,0-0.9,0.1-1.2,0.2c0,1.6,0,3.6,0,5.6h1.1c2.2,0,3.5-1,3.5-3
			C183.4,34.6,181.3,34.2,180,34.2z M185.1,48.2c0-2.1-1.8-3.2-4.3-3.2c-0.6,0-1.5,0-2,0.1c0,1.2,0,2.4,0,3.4c0.1,1.8,0.7,3.9,3,3.9
			C183.9,52.3,185.1,50.7,185.1,48.2z"/>
		<path class="st0" d="M230.8,54.8c-0.6,1.8-3.6,4-6.7,4c-3.9,0-6.9-2.4-7.6-6.4c-1.9,3.6-4.9,6.3-8.8,6.3c-7,0-10.9-7.8-10.9-15.2
			c0-7.7,3.9-15.1,11.2-15.1c3.9,0,6.6,2.2,8.3,5.3c0-2.3,0-3.9,0-3.9c0-0.3,0.3-0.3,0.3-0.3h11.2c0,0,0.2,0.1,0.2,0.3
			c0,0-0.4,12.7-0.4,16.6C227.6,55.2,231.4,53.3,230.8,54.8z M216.6,43.5c0-4.2-1.5-7.6-4.2-7.6c-2.7,0-4.2,3.4-4.2,7.6
			s1.5,7.5,4.2,7.5C215.2,51,216.6,47.7,216.6,43.5z"/>
	</g>
	<g>
		<g>
			<path class="st0" d="M42.4,46.3c-4.3-0.4-8.4-3.6-11.6-3.7c-4.3-0.2-5.3,3.1-6.1,3.2c-1.3,0.2-0.6-9.8,8.7-9.4
				c5,0.2,8.1,3.2,12.5,3.4c3.6,0.1,4.9-3.1,5.7-3.2C52.9,36.4,53.9,47.4,42.4,46.3z"/>
		</g>
		<g>
			<path class="st0" d="M257.5,46.3c-4.3-0.4-8.4-3.6-11.6-3.7c-4.3-0.2-5.3,3.1-6.1,3.2c-1.3,0.2-0.6-9.8,8.7-9.4
				c5,0.2,8.1,3.2,12.5,3.4c3.6,0.1,4.9-3.1,5.7-3.2C268,36.4,269,47.4,257.5,46.3z"/>
		</g>
	</g>
</g>
</svg>
