<?xml version="1.0" encoding="utf-8"?>
<!-- Generator: Adobe Illustrator 21.1.0, SVG Export Plug-In . SVG Version: 6.00 Build 0)  -->
<svg version="1.1" id="Layer_1" xmlns="http://www.w3.org/2000/svg" xmlns:xlink="http://www.w3.org/1999/xlink" x="0px" y="0px"
	 viewBox="0 0 200 36" style="enable-background:new 0 0 200 36;" xml:space="preserve">
<style type="text/css">
	.st0{fill:#FFFFFF;}
</style>
<g>
	<path class="st0" d="M11.2,17.5h2.1c1.8,0,3.1-1.1,3.1-2.6s-1.1-2.5-3-2.5s-3,1-3.2,2.5H7.9c0.2-2.8,2.3-4.6,5.6-4.6
		c3.1,0,5.3,1.8,5.3,4.3c0,1.8-1.2,3.2-3,3.7v0.1c2.1,0.3,3.4,1.8,3.4,3.9c0,2.7-2.5,4.7-5.8,4.7c-3.4,0-5.8-1.9-6-4.6h2.4
		C9.9,24,11.3,25,13.4,25c2,0,3.3-1.1,3.3-2.7c0-1.7-1.3-2.6-3.4-2.6h-2.2L11.2,17.5L11.2,17.5z"/>
	<path class="st0" d="M30.5,22.3h-6l-1.4,4.3h-2.6l5.7-15.8h2.7l5.7,15.8H32L30.5,22.3z M25.1,20.3h4.8l-2.4-6.9h-0.1L25.1,20.3z"/>
	<path class="st0" d="M49.1,26.6h-3.2l-6.8-7.4H39v7.4h-2.5V10.8H39v7.1h0.1l6.5-7.1h2.9l-7,7.5L49.1,26.6z"/>
	<path class="st0" d="M59.8,22.3h-6l-1.4,4.3h-2.6l5.7-15.8h2.7l5.7,15.8h-2.6L59.8,22.3z M54.4,20.3h4.8l-2.4-6.9h-0.1L54.4,20.3z"
		/>
	<path class="st0" d="M68.7,17.5h2.1c1.8,0,3.1-1.1,3.1-2.6s-1.1-2.5-3-2.5s-3,1-3.2,2.5h-2.3c0.2-2.8,2.3-4.6,5.6-4.6
		c3.1,0,5.3,1.8,5.3,4.3c0,1.8-1.2,3.2-3,3.7v0.1c2.1,0.3,3.4,1.8,3.4,3.9c0,2.7-2.5,4.7-5.8,4.7c-3.4,0-5.8-1.9-6-4.6h2.4
		c0.1,1.6,1.5,2.6,3.6,2.6c2,0,3.3-1.1,3.3-2.7c0-1.7-1.3-2.6-3.4-2.6h-2.2v-2.2H68.7z"/>
	<path class="st0" d="M88,22.3h-6l-1.4,4.3H78l5.7-15.8h2.7l5.7,15.8h-2.6L88,22.3z M82.6,20.3h4.8L85,13.4h-0.1L82.6,20.3z"/>
	<path class="st0" d="M96.1,26.6V12.9h-4.9v-2.1h12.3v2.1h-4.9v13.7H96.1z"/>
	<path class="st0" d="M105.8,10.8h2.5v5.7h3.6c3.1,0,5.3,2.1,5.3,5.1s-2.1,5.1-5.2,5.1h-6.1L105.8,10.8L105.8,10.8z M111.3,24.5
		c2.1,0,3.3-1.1,3.3-3s-1.2-3-3.3-3h-3v6H111.3z"/>
	<path class="st0" d="M137.3,26.6h-3.2l-6.8-7.4h-0.1v7.4h-2.5V10.8h2.5v7.1h0.1l6.5-7.1h2.9l-7,7.5L137.3,26.6z"/>
	<path class="st0" d="M148,22.3h-6l-1.4,4.3H138l5.7-15.8h2.7l5.7,15.8h-2.6L148,22.3z M142.6,20.3h4.8l-2.4-6.9l0,0L142.6,20.3z"/>
	<path class="st0" d="M160.2,10.8c3.1,0,5.2,2.1,5.2,5.2s-2.2,5.2-5.3,5.2h-3.7v5.4H154V10.8C154,10.8,160.2,10.8,160.2,10.8z
		 M156.5,19.1h3.1c2.1,0,3.4-1.2,3.4-3.1s-1.2-3.1-3.4-3.1h-3.1V19.1z"/>
	<path class="st0" d="M171.8,26.6V12.9h-4.9v-2.1h12.3v2.1h-4.9v13.7H171.8z"/>
	<path class="st0" d="M182.2,26.6v-2.1c0.2,0,0.5,0.1,0.9,0.1c1.1,0,1.9-0.4,2.5-1.5l-5.4-12.3h2.6l4,9.7h0.1l3.9-9.7h2.6l-4.8,11.3
		c-1.5,3.4-2.8,4.7-5.3,4.7C182.8,26.7,182.4,26.6,182.2,26.6z"/>
</g>
</svg>
