<?xml version="1.0" encoding="utf-8"?>
<!-- Generator: Adobe Illustrator 21.1.0, SVG Export Plug-In . SVG Version: 6.00 Build 0)  -->
<svg version="1.1" id="Layer_1" xmlns="http://www.w3.org/2000/svg" xmlns:xlink="http://www.w3.org/1999/xlink" x="0px" y="0px"
	 viewBox="0 0 200 200" style="enable-background:new 0 0 200 200;" xml:space="preserve">
<style type="text/css">
	.st0{fill:#F6E9AA;}
	.st1{fill:#D7C471;}
	.st2{display:none;fill:#AF4631;}
	.st3{display:none;fill:#B5A57C;}
	.st4{display:none;fill:#877651;}
	.st5{fill:#9B8E6C;}
	.st6{fill:#DE6945;}
	.st7{fill:#CA0935;}
	.st8{fill:#5B5039;}
</style>
<g>
	<g>
		<polygon class="st0" points="19.7,159.3 100.1,199 100.1,69.9 19.7,39.6 		"/>
		<polygon class="st1" points="180.4,156.7 100.1,199 100.1,69.9 180.4,39.6 		"/>
	</g>
	<g>
		<polygon class="st2" points="180.4,156.7 100.1,199 100.1,185.7 180.4,147.5 		"/>
	</g>
	<polygon class="st3" points="18.7,79.4 100.3,119.3 181.4,79.2 181.4,56.1 18.7,60.1 	"/>
	<polygon class="st4" points="100.3,119.3 181.4,79.2 181.4,56.1 99.3,58.1 	"/>
	<path class="st5" d="M19.2,160.2c23.5,11.6,46.9,23.2,70.4,34.7c3.3,1.6,6.7,3.3,10,4.9c0.7,0.3,1.5-0.1,1.5-0.9
		c0-14.5,0-29,0-43.5c0-23.2,0-46.5,0-69.7c0-5.3,0-10.6,0-15.9c0-0.5-0.3-0.8-0.7-1c-23.5-8.7-47-17.6-70.4-26.4
		c-3.3-1.3-6.7-2.5-10-3.8c-0.6-0.2-1.3,0.4-1.3,1c0,13.5,0,26.9,0,40.4c0,21.5,0,43,0,64.5c0,5,0,9.9,0,14.9c0,1.3,2,1.3,2,0
		c0-13.5,0-26.9,0-40.4c0-21.5,0-43,0-64.5c0-5,0-9.9,0-14.9c-0.4,0.3-0.8,0.6-1.3,1c23.5,8.8,46.9,17.7,70.4,26.5
		c3.3,1.3,6.7,2.5,10,3.8c-0.2-0.3-0.5-0.6-0.7-1c0,14.5,0,29,0,43.5c0,23.2,0,46.5,0,69.7c0,5.3,0,10.6,0,15.9
		c0.5-0.3,1-0.6,1.5-0.9c-23.5-11.6-46.9-23.2-70.4-34.7c-3.3-1.6-6.7-3.3-10-4.9C19.1,157.9,18.1,159.6,19.2,160.2z"/>
	<path class="st5" d="M179.9,155.9c-23.4,12.3-46.8,24.6-70.2,37c-3.4,1.8-6.8,3.6-10.1,5.3c0.5,0.3,1,0.6,1.5,0.9
		c0-14.5,0-29,0-43.5c0-23.2,0-46.5,0-69.7c0-5.3,0-10.6,0-15.9c-0.2,0.3-0.5,0.6-0.7,1c23.5-8.8,46.9-17.7,70.4-26.5
		c3.3-1.3,6.7-2.5,10-3.8c-0.4-0.3-0.8-0.6-1.3-1c0,13.1,0,26.3,0,39.4c0,21.1,0,42.2,0,63.2c0,4.8,0,9.7,0,14.5c0,1.3,2,1.3,2,0
		c0-13.1,0-26.3,0-39.4c0-21.1,0-42.2,0-63.2c0-4.8,0-9.7,0-14.5c0-0.6-0.6-1.2-1.3-1c-23.5,8.8-46.9,17.7-70.4,26.5
		c-3.3,1.3-6.7,2.5-10,3.8c-0.4,0.2-0.7,0.5-0.7,1c0,14.5,0,29,0,43.5c0,23.2,0,46.5,0,69.7c0,5.3,0,10.6,0,15.9
		c0,0.8,0.8,1.2,1.5,0.9c23.4-12.3,46.8-24.6,70.2-37c3.4-1.8,6.8-3.6,10.1-5.3C182,157,181,155.3,179.9,155.9z"/>
	<g>
		<polygon class="st0" points="16.1,70.5 100.1,106.2 184.1,68.4 184.1,38.8 100.1,7.1 16.1,38.8 		"/>
		<polygon class="st6" points="90.6,67.7 74.8,61.1 74.8,95.5 90.3,102.1 		"/>
		<polygon class="st6" points="40.9,46.4 25.1,39.8 25.1,74.3 40.7,80.8 		"/>
		<path class="st5" d="M15.6,71.3c24.9,10.6,49.8,21.2,74.7,31.8c2.1,0.9,4.3,1.8,6.4,2.7c0.9,0.4,1.9,1,2.8,1.2
			c2.1,0.4,5.4-1.9,7.2-2.8c14.3-6.5,28.6-12.9,42.9-19.4c11.6-5.2,23.2-10.5,34.8-15.7c0.3-0.1,0.5-0.5,0.5-0.9
			c0-9.9,0-19.7,0-29.6c0-0.5-0.3-0.8-0.7-1c-24.7-9.3-49.3-18.6-74-27.9c-2.3-0.9-4.5-1.7-6.8-2.6c-0.9-0.3-2.1-1.1-3.1-1.2
			c-2.1-0.2-4.9,1.6-6.8,2.3c-14.4,5.4-28.8,10.9-43.2,16.3c-11.5,4.4-23.1,8.7-34.6,13.1c-0.4,0.2-0.7,0.5-0.7,1
			c0,10.6,0,21.1,0,31.7c0,1.3,2,1.3,2,0c0-10.6,0-21.1,0-31.7c-0.2,0.3-0.5,0.6-0.7,1c24.5-9.2,49-18.5,73.5-27.7
			c3.2-1.2,6.9-3.3,10.3-3.9c0.5-0.1-0.7-0.1-0.2,0c0.4,0.1,0.8,0.3,1.2,0.5c1.7,0.7,3.5,1.3,5.2,2c14.5,5.5,28.9,10.9,43.4,16.4
			c11.3,4.3,22.7,8.6,34,12.8c-0.2-0.3-0.5-0.6-0.7-1c0,7.8,0,15.6,0,23.4c0,1.6,0,3.2,0,4.8c0,2-0.1,0.6,0.4,0.6
			c-1.1,0-3,1.3-4,1.8c-16,7.2-32,14.4-48,21.6c-7.8,3.5-15.7,7.1-23.5,10.6c-2.3,1-4.5,2-6.8,3.1c-0.3,0.1-1.1,0.3-1.4,0.6
			c-0.2,0.3,0.9,0.5,0.5,0c-0.7-0.9-3.7-1.6-4.7-2c-3.2-1.3-6.3-2.7-9.5-4c-8.8-3.7-17.5-7.4-26.3-11.2C45.4,81.9,31,75.8,16.6,69.6
			C15.4,69.1,14.4,70.8,15.6,71.3z"/>
	</g>
	<g>
		<polygon class="st1" points="100.1,106.2 184.1,68.4 184.1,38.8 100.1,70.6 		"/>
		<polygon class="st6" points="111.2,101.3 125.5,94.8 124.9,61.3 111,66.8 		"/>
		<polygon class="st6" points="133.2,92.1 147.5,85.7 146.9,52.2 133,57.6 		"/>
		<polygon class="st6" points="160.5,78.6 174.8,72.2 174.3,38.7 160.3,44.1 		"/>
		<path class="st5" d="M100.6,107.1C125.2,96,149.7,85,174.3,73.9c3.4-1.6,6.9-3.1,10.3-4.7c0.3-0.1,0.5-0.5,0.5-0.9
			c0-9.9,0-19.7,0-29.6c0-0.6-0.6-1.2-1.3-1c-24.5,9.3-49,18.5-73.5,27.8c-3.5,1.3-7,2.6-10.5,4c-0.4,0.2-0.7,0.5-0.7,1
			c0,11.9,0,23.8,0,35.6c0,1.3,2,1.3,2,0c0-11.9,0-23.8,0-35.6c-0.2,0.3-0.5,0.6-0.7,1c24.5-9.3,49-18.5,73.5-27.8
			c3.5-1.3,7-2.6,10.5-4c-0.4-0.3-0.8-0.6-1.3-1c0,8.8,0,17.5,0,26.3c0,0.7-0.1,1.5,0,2.2c0.1,0.6-0.3,1.2,0.2,0.6
			c0.6-0.8-0.5-0.1-0.8,0.1c-2.5,0.9-4.9,2.2-7.3,3.3c-19.5,8.8-39,17.6-58.5,26.4c-5.7,2.6-11.4,5.2-17.1,7.7
			C98.4,105.9,99.4,107.6,100.6,107.1z"/>
	</g>
	<g>
		<polygon class="st7" points="46,50.1 46,173.5 71,185.8 71,60.4 		"/>
		<path class="st8" d="M45.5,50.1c0,13.9,0,27.8,0,41.6c0,22.1,0,44.3,0,66.4c0,5.1,0,10.3,0,15.4c0,0.2,0.1,0.4,0.2,0.4
			c8.3,4.1,16.7,8.2,25,12.3c0.3,0.2,0.7,0,0.7-0.4c0-14.1,0-28.2,0-42.3c0-22.6,0-45.2,0-67.7c0-5.2,0-10.3,0-15.5
			c0-0.2-0.2-0.4-0.4-0.5c-8.3-3.4-16.7-6.9-25-10.3c-0.6-0.2-0.8,0.7-0.3,1c4.8,2,9.5,3.9,14.3,5.9c2.9,1.2,5.7,2.4,8.6,3.5
			c0.6,0.2,1.4,0.4,1.9,0.8c0.4,0.3-0.3-0.7-0.2-0.2c0.4,2.1,0,4.6,0,6.7c0,4.7,0,9.4,0,14.1c0,27.5,0,55,0,82.5c0,7.3,0,14.7,0,22
			c0.2-0.1,0.5-0.3,0.7-0.4c-4.6-2.2-9.1-4.5-13.7-6.7c-2.8-1.4-5.6-2.8-8.5-4.2c-0.8-0.4-1.6-0.8-2.3-1.2c-0.6-0.3-0.4-0.2-0.3,0.1
			c-0.6-1.6,0-4.4,0-6.1c0-4.5,0-9,0-13.5c0-27.3,0-54.6,0-81.8c0-7.3,0-14.6,0-21.9C46.5,49.4,45.5,49.4,45.5,50.1z"/>
	</g>
	<g>
		<polygon class="st7" points="160.6,47.2 160.7,168.2 135.7,181.4 135.6,57.5 		"/>
		<path class="st8" d="M160.1,47.2c0,19,0,37.9,0.1,56.9c0,13.8,0,27.5,0.1,41.3c0,7.4,0.5,15,0,22.4c0,0.1,0.1,0.4,0,0.5
			c0.3-0.8-0.5,0-1.1,0.3c-2.8,1.5-5.6,2.9-8.3,4.4c-5.1,2.7-10.2,5.4-15.4,8.1c0.2,0.1,0.5,0.3,0.7,0.4c0-19.1,0-38.2-0.1-57.3
			c0-13.9,0-27.8-0.1-41.8c0-5.1,0-10.2,0-15.2c0-2.8,0.4-5.9,0-8.6c0-0.2-0.1-0.6,0-0.8c0,0.1-0.7,0.4,0.2,0.1
			c2.6-0.7,5.3-2.2,7.8-3.2c5.6-2.3,11.1-4.6,16.7-6.9c0.6-0.2,0.3-1.2-0.3-1c-8.3,3.4-16.7,6.9-25,10.3c-0.2,0.1-0.4,0.2-0.4,0.5
			c0,13.9,0,27.9,0.1,41.8c0,22.2,0.1,44.5,0.1,66.7c0,5.1,0,10.2,0,15.3c0,0.4,0.4,0.6,0.7,0.4c8.3-4.4,16.7-8.8,25-13.2
			c0.2-0.1,0.2-0.3,0.2-0.4c0-13.6,0-27.1-0.1-40.7c0-21.8-0.1-43.5-0.1-65.3c0-5,0-10,0-15C161.1,46.6,160.1,46.6,160.1,47.2z"/>
	</g>
	<g>
		<polygon class="st0" points="100.3,6.9 15.9,38.7 100.3,70.5 184.1,38.8 		"/>
		<path class="st5" d="M100,5.9c-24.6,9.3-49.3,18.6-73.9,27.9c-3.5,1.3-6.9,2.6-10.4,3.9c-0.9,0.4-0.9,1.6,0,1.9
			c24.7,9.3,49.4,18.6,74.1,28c2.3,0.9,4.6,1.7,6.9,2.6c0.9,0.4,2.2,1.1,3.2,1.2c2.1,0.2,5-1.6,6.9-2.3
			c14.4-5.4,28.7-10.9,43.1-16.3c11.5-4.4,23-8.7,34.5-13.1c0.9-0.4,0.9-1.6,0-1.9c-24.5-9.3-48.9-18.6-73.4-27.9
			c-3.5-1.3-7-2.6-10.4-4c-1.2-0.5-1.7,1.5-0.5,1.9c24.5,9.3,48.9,18.6,73.4,27.9c3.5,1.3,7,2.6,10.4,4c0-0.6,0-1.3,0-1.9
			c-24.5,9.3-48.9,18.5-73.4,27.8c-3.2,1.2-6.9,3.3-10.3,3.9c-0.5,0.1,0.8,0.1,0.2,0c-0.4-0.1-0.8-0.3-1.2-0.5
			c-1.8-0.7-3.6-1.4-5.4-2C79.4,61.6,65,56.1,50.5,50.7C39,46.4,27.6,42.1,16.2,37.8c0,0.6,0,1.3,0,1.9
			c24.6-9.3,49.3-18.6,73.9-27.9c3.5-1.3,6.9-2.6,10.4-3.9C101.7,7.4,101.2,5.5,100,5.9z"/>
	</g>
	<g>
		<polygon class="st7" points="71,60.6 150.8,26.1 126.7,17 46,51.2 		"/>
		<path class="st8" d="M71.3,61c23.2-10,46.5-20.1,69.7-30.1c3.4-1.5,6.7-2.9,10.1-4.4c0.4-0.2,0.2-0.8-0.1-0.9
			c-7.6-2.9-15.2-5.8-22.9-8.6c-1.3-0.5-1.6-0.4-2.8,0.1c-2.4,1-4.8,2-7.2,3.1c-18.7,7.9-37.4,15.8-56,23.7
			c-5.4,2.3-10.9,4.6-16.3,6.9c-0.4,0.2-0.2,0.8,0.1,0.9c8.3,3.1,16.7,6.3,25,9.4c0.6,0.2,0.9-0.7,0.3-1c-8.3-3.1-16.7-6.3-25-9.4
			c0,0.3,0.1,0.6,0.1,0.9c13.5-5.7,27.1-11.5,40.6-17.2c9.3-4,18.7-7.9,28-11.9c3-1.3,6-2.5,8.9-3.8c0.8-0.3,1.6-0.7,2.4-1
			c0.6-0.2,0.7-0.2,0.5-0.2c1.4,0.2,3.1,1.2,4.5,1.7c2.7,1,5.4,2,8.1,3c3.8,1.4,7.6,2.9,11.4,4.3c0-0.3-0.1-0.6-0.1-0.9
			c-23.2,10-46.5,20.1-69.7,30.1c-3.4,1.5-6.7,2.9-10.1,4.4C70.2,60.4,70.7,61.3,71.3,61z"/>
	</g>
	<g>
		<polygon class="st7" points="135.6,58.3 50.7,25.5 77.1,15.8 160.6,48.8 		"/>
		<path class="st8" d="M135.7,57.8C111,48.2,86.3,38.7,61.6,29.1c-3.6-1.4-7.1-2.8-10.7-4.1c0,0.3,0,0.6,0,1
			c8-2.9,15.9-5.9,23.9-8.8c2.1-0.8,1.8-1,3.5-0.4c2.5,1,5,2,7.5,3c19.3,7.6,38.6,15.2,57.9,22.8c5.6,2.2,11.3,4.5,16.9,6.7
			c0-0.3,0-0.6,0-1c-8.3,3.2-16.7,6.3-25,9.5c-0.6,0.2-0.3,1.2,0.3,1c8.3-3.2,16.7-6.3,25-9.5c0.5-0.2,0.5-0.8,0-1
			C146.3,42.5,131.6,36.7,117,31c-9.6-3.8-19.2-7.6-28.8-11.4c-2.9-1.1-5.7-2.3-8.6-3.4c-1-0.4-1.8-0.9-2.9-0.8
			c-1.8,0.2-3.8,1.4-5.5,2c-2.9,1-5.7,2.1-8.6,3.1c-4,1.5-8,2.9-11.9,4.4c-0.5,0.2-0.5,0.8,0,1c24.7,9.6,49.4,19.1,74.2,28.7
			c3.6,1.4,7.1,2.8,10.7,4.1C136.1,59,136.3,58,135.7,57.8z"/>
	</g>
	<g>
		<g>
			<path class="st7" d="M102.4,39.3c0,0-1.9-26.5-23.5-33.6c0,0-6.6-0.6-9.6,19.3L102.4,39.3z"/>
			<path class="st8" d="M102.9,39.3c-0.6-7.6-3.4-15.5-7.7-21.7c-3.5-5-8.2-9.1-13.8-11.5c-2.3-1-3.5-1.3-5.5,0.3
				c-5,4-6.2,12.5-7.2,18.4c0,0.2,0,0.5,0.2,0.6C80,30.2,91,34.9,102.1,39.7c0.6,0.2,1.1-0.6,0.5-0.9c-4.9-2.1-9.9-4.2-14.8-6.4
				c-3.7-1.6-7.4-3.2-11.2-4.8c-1.9-0.8-5.2-1.5-6.7-2.9c-0.8-0.7,0.3-2.9,0.6-4.2c0.6-2.9,1.4-5.9,2.7-8.6c0.9-1.9,2.5-5.1,4.8-5.6
				c2.7-0.6,6.8,2.5,8.9,4c4,2.9,7.2,6.9,9.5,11.2c2.9,5.3,5,11.6,5.4,17.7C101.9,39.9,102.9,39.9,102.9,39.3z"/>
		</g>
		<path class="st8" d="M101.8,38c0,0-26.4-22.6-28.8-21.1s-1.8,7-1.8,7L101.8,38z"/>
		<g>
			<path class="st7" d="M102.4,38.5c0,0-23.5-21-48.7-20.1c-1.8,0.1-3.3,1.6-3.6,3.6c-0.6,5.4-1.1,15.6,3.6,18.6h48.6L102.4,38.5
				L102.4,38.5z"/>
			<path class="st8" d="M102.7,38.2c-6.1-5.5-13.4-10-20.8-13.5c-6.4-3.1-13.1-5.4-20.2-6.3c-4.6-0.6-11.2-2-12.2,4
				C48.7,27.2,48.6,34,51,38.5c1.4,2.4,2.3,2.7,4.7,2.7c8.3,0,16.5,0,24.8,0c7.2,0,14.5,0,21.7,0c0.3,0,0.5-0.2,0.5-0.5
				c0-0.7,0-1.4,0-2s-1-0.6-1,0c0,0.8-0.4,2,0.5,1.5c-0.1,0-0.3,0-0.4,0c-0.8,0.1-1.8,0-2.7,0c-3.2,0-6.4,0-9.5,0
				c-8.6,0-17.1,0-25.7,0c-2.8,0-5.7,0-8.5,0c-0.5,0-1.3,0.2-1.7,0c-2-0.7-2.9-4.6-3.2-6.4c-0.5-2.9-0.5-6-0.3-8.9
				c0.1-2.1,0-4.9,2.7-5.7c1.9-0.6,4.7-0.1,6.6,0.1c7,0.6,13.8,2.8,20.1,5.7c7.9,3.6,15.7,8.3,22.2,14.1
				C102.5,39.3,103.2,38.6,102.7,38.2z"/>
		</g>
		<path class="st8" d="M102.4,40.6c0,0-38.8-7.1-47.9-6.3c-1.1,0.1-2,1.2-1.8,2.3c0.1,1,0.5,2.1,1.4,2.5
			C55.9,39.9,102.4,40.6,102.4,40.6z"/>
		<path class="st8" d="M86.7,15.9c3.3,3.4,6.7,6.9,9.6,10.7c0.4,0.5-0.7,1-1.1,0.6c-3.4-3.3-6.7-6.7-10.3-9.8
			C83.7,16.3,85.7,14.8,86.7,15.9z"/>
		<g>
			<path class="st7" d="M104.6,39.3c0,0,1.9-26.5,23.5-33.6c0,0,6.6-0.6,9.6,19.3L104.6,39.3z"/>
			<path class="st8" d="M105.1,39.3c0.4-5,1.9-10.2,4-14.7c1.9-4.3,4.5-8.3,7.9-11.5c1.8-1.7,3.9-3.3,6.1-4.5
				c1.5-0.8,3.6-2.3,5.3-2.3s3.3,2.1,4.1,3.3c1.1,1.7,1.9,3.7,2.6,5.6c0.5,1.4,0.9,2.9,1.2,4.4c0.2,0.7,0.3,1.4,0.4,2.1
				c0.1,0.3,0.9,2.9,0.8,2.9c-0.5,0.9-4.2,1.8-5.1,2.2c-3.4,1.5-6.9,3-10.3,4.4c-5.9,2.6-11.9,5.1-17.8,7.7
				c-0.6,0.3-0.1,1.1,0.5,0.9c11.1-4.8,22.1-9.5,33.2-14.3c0.2-0.1,0.3-0.4,0.2-0.6c-0.9-5.8-2.1-12.9-6.2-17.4c-1-1-2.4-2.3-4-2.2
				c-2.8,0.2-6.3,2.7-8.5,4.3c-2.5,1.8-4.8,4.1-6.7,6.5c-3.2,4.2-5.5,9.1-7,14.2c-0.9,2.9-1.6,6-1.8,9
				C104.1,39.9,105.1,39.9,105.1,39.3z"/>
		</g>
		<g>
			<path class="st7" d="M98.9,40.6c0,0-5.1-26.6-3.9-36.5c0.2-2,1.9-3.4,3.9-3.4h11.5c1.8,0,3.3,1.4,3.4,3.2c0.1,0.8,0.1,1.8,0,3
				c-0.5,4.7-7.1,33.8-7.1,33.8L98.9,40.6L98.9,40.6z"/>
			<path class="st8" d="M99.3,40.4c-1.1-5.9-2.1-11.9-2.8-17.9c-0.5-4.3-1-8.6-1.2-12.9c-0.1-1.7-0.2-3.5,0.1-5.1
				c0.5-3,3-3.4,5.4-3.4c2.9,0,6.3-0.5,9.2,0c4.9,0.8,3.2,6.8,2.6,10c-1.4,7.4-3.1,14.7-4.7,22c-0.4,2-0.5,5.4-1.6,7.2
				c-0.1,0.1,0.7-0.2-0.1-0.2c-0.9,0-1.8,0-2.7,0c-1.5,0-3,0-4.6,0c-0.6,0-0.6,1,0,1c2.6,0,5.2,0,7.8,0c0.2,0,0.4-0.2,0.5-0.4
				c1.3-5.6,2.5-11.2,3.7-16.9c0.9-4,1.7-7.9,2.5-11.9c0.5-2.5,1.4-5.7,0.9-8.2c-0.6-3.2-3.1-3.5-5.8-3.5c-3.1,0-6.3-0.2-9.5,0
				c-3.4,0.3-4.5,2.6-4.7,5.7c-0.2,4.4,0.3,8.8,0.7,13.1c0.8,7.3,1.9,14.5,3.3,21.7C98.5,41.3,99.4,41,99.3,40.4z"/>
		</g>
		<path class="st8" d="M105.3,38c0,0,26.4-22.6,28.8-21.1c2.4,1.5,1.8,7,1.8,7L105.3,38z"/>
		<path class="st8" d="M112.1,2.4l-7.4,36.9C104.6,39.3,116,4.2,112.1,2.4z"/>
		<g>
			<path class="st7" d="M104.6,38.5c0,0,23.5-21,48.7-20.1c1.8,0.1,3.3,1.6,3.6,3.6c0.6,5.4,1.1,15.6-3.6,18.6h-48.6v-2.1H104.6z"/>
			<path class="st8" d="M105,38.9c5.4-4.8,11.8-8.8,18.2-12.2c5.8-3,12-5.4,18.4-6.7c3.5-0.7,7.1-1.2,10.7-1.1
				c5,0.2,4.5,6.3,4.4,9.9c0,3.1-0.3,10.5-4.2,11.3c-2.2,0.4-4.8,0-7,0c-8.4,0-16.9,0-25.3,0c-3.9,0-7.9,0-11.8,0
				c-1,0-2.1,0.1-3.1,0c-0.1,0-0.6,0.1-0.7,0c0.8,0.5,0.4-0.7,0.4-1.5c0-0.6-1-0.6-1,0c0,0.7,0,1.4,0,2c0,0.3,0.2,0.5,0.5,0.5
				c14.9,0,29.8,0,44.6,0c1.5,0,3.4,0.4,4.7-0.4c4.1-2.5,3.8-10.2,3.7-14.3c-0.1-2.1,0.1-5-1.3-6.8c-1.7-2.1-4.7-1.7-7.1-1.6
				c-7,0.4-13.9,2.2-20.4,5c-8.8,3.7-17.5,8.9-24.7,15.3C103.8,38.6,104.5,39.3,105,38.9z"/>
		</g>
		<path class="st8" d="M104.6,40.6c0,0,38.8-7.1,47.9-6.3c1.1,0.1,2,1.2,1.8,2.3c-0.1,1-0.5,2.1-1.4,2.5
			C151.1,39.9,104.6,40.6,104.6,40.6z"/>
		<path class="st8" d="M126.2,28.3c-4.7,2.3-9.4,4.6-13.9,7.3c-0.4,0.2,0.1,0.6,0.4,0.5c4.9-1.9,9.6-4.2,14.4-6.5
			C128.1,29.1,127.1,27.8,126.2,28.3z"/>
		<path class="st8" d="M120.3,15.9c-3.3,3.4-6.7,6.9-9.6,10.7c-0.4,0.5,0.7,1,1.1,0.6c3.4-3.3,6.7-6.7,10.3-9.8
			C123.3,16.3,121.4,14.8,120.3,15.9z"/>
		<path class="st8" d="M101.5,13c-0.4,3.6-0.8,7.5-0.3,11.1c0.1,0.6,0.6,0.9,1.2,0.7c0.2,0,0.4-0.1,0.5-0.3c0.5-0.9,0.6-3.4,0.8-4.8
			c0.2-2.3,0.4-4.6,0.4-6.9C104.1,11.3,101.7,11.6,101.5,13z"/>
		<path class="st8" d="M95.5,35.8c-1.7-1.6-3.9-2.2-6.1-2.8c-3.5-1-7-1.6-10.5-2.6c-2-0.5-3.8,2.2-1.5,3c3.1,1,6.3,1.5,9.5,2
			c2.8,0.4,5.5,1.3,8.3,1.4C95.8,36.8,95.9,36.1,95.5,35.8z"/>
		<path class="st8" d="M98.3,41.5c0,0-5.9-3.4-4.5-11.6s10.9-8.4,10.9-8.4s10.5,0.1,10.2,9.1s-4.3,10.9-4.3,10.9H98.3z"/>
		<path class="st7" d="M98.9,40.6c0,0-5.3-3.1-4.1-10.5s9.9-7.6,9.9-7.6s9.4,0.1,9.2,8.2c-0.2,8.1-3.9,9.9-3.9,9.9H98.9z"/>
	</g>
</g>
</svg>
