<svg id="Layer_1" data-name="Layer 1" xmlns="http://www.w3.org/2000/svg" viewBox="0 0 1200 91.71"><defs><style>.cls-1{fill:#f5eee4;}.cls-2{fill:#ebdecc;}.cls-3{fill:#e2cfb6;}.cls-4{fill:#d9c1a3;}.cls-5{fill:#d0b492;}.cls-6{fill:none;}.cls-7{fill:#e7d7c1;}</style></defs><title>backdrop</title><polygon class="cls-1" points="218.72 90.42 219.84 91.71 219.82 90.42 218.72 90.42"/><polygon class="cls-1" points="0 0 16 90 58.5 90 123.29 0 0 0"/><polygon class="cls-1" points="637.28 6.14 639.11 0 609.61 0 637.28 6.14"/><polygon class="cls-2" points="232.39 0 218.82 0 218.95 11.99 232.39 0"/><polygon class="cls-2" points="219.82 90 292.67 90 278.96 23.71 219.37 49.25 219.82 90"/><polygon class="cls-2" points="338.09 0 438.2 90 612.38 90 615.17 80.64 494.11 0 338.09 0"/><polygon class="cls-2" points="617.21 73.99 637.28 6.21 609.61 0 590.71 0 617.21 73.99"/><polygon class="cls-3" points="494.11 0 615.17 80.85 617.21 73.92 590.71 0 494.11 0"/><polygon class="cls-2" points="125.31 0 123.29 0 58.5 90 132.37 90 125.31 0"/><polygon class="cls-1" points="185.32 42.12 181.82 0 140.85 0 180.69 46.19 185.32 42.12"/><polygon class="cls-3" points="218.95 12.13 218.82 0 181.82 0 185.32 42.05 218.95 12.13"/><polygon class="cls-3" points="219.37 49.35 193.17 60.53 218.72 90 219.82 90 219.37 49.35"/><polygon class="cls-3" points="137.76 84.69 180.69 46.26 140.85 0 125.31 0 132.37 90 189.34 90 187.09 63.25 137.76 84.69"/><polygon class="cls-4" points="187.09 63.25 189.34 90 218.72 90 193.17 60.53 187.09 63.25"/><polygon class="cls-3" points="333.89 0 278.96 23.57 292.67 90 438.2 90 338.09 0 333.89 0"/><polygon class="cls-3" points="219.37 49.56 278.96 23.78 274.08 0 232.39 0 218.95 12.13 219.37 49.56"/><polygon class="cls-3" points="185.32 42.26 180.69 46.4 186.2 52.77 185.32 42.26"/><polygon class="cls-4" points="185.32 42.26 186.2 52.77 193.17 60.84 219.37 49.56 218.95 12.27 185.32 42.26"/><polygon class="cls-4" points="180.69 46.4 137.76 84.69 187.09 63.45 186.2 52.77 180.69 46.4"/><polygon class="cls-5" points="187.09 63.45 193.17 60.84 186.2 52.77 187.09 63.45"/><polygon class="cls-4" points="278.96 23.64 333.89 0 274.08 0 278.96 23.64"/><polygon class="cls-1" points="1026.74 54.45 1027.33 61.97 1057.37 60.12 1039.93 36.1 1026.74 54.45"/><polygon class="cls-1" points="1024.06 58.19 1004.68 85.29 1005.14 91 1071.54 91 1027.33 62.11 1024.06 58.19"/><polygon class="cls-6" points="892.63 71.17 893.72 70.7 891 70.09 892.63 71.17"/><polygon class="cls-1" points="937.95 91 983.97 91 947.11 82.82 937.95 91"/><polygon class="cls-1" points="1075.11 0 1065.94 0 1063.68 3.14 1075.11 0"/><polygon class="cls-2" points="985.64 30.66 985.45 13.53 973.72 0 950.78 0 959.47 42.1 985.64 30.66"/><polygon class="cls-1" points="1000.67 91 1005.14 91 1004.68 85.43 1000.67 91"/><polygon class="cls-2" points="985.83 48.11 964.6 67 964.6 67 964.6 67 947.11 82.72 983.97 91 986.31 91 985.83 48.11"/><polygon class="cls-1" points="1024.06 58.19 1027.33 61.97 1026.74 54.45 1024.06 58.19"/><polygon class="cls-1" points="973.72 0 985.45 13.57 985.3 0 973.72 0"/><polygon class="cls-7" points="1039.93 36.1 1057.31 60.12 1200 52.67 1152.16 0 1075.11 0 1063.68 3.1 1039.93 36.1"/><polygon class="cls-2" points="1057.37 60.26 1027.33 62.18 1071.54 91 1079.59 91 1057.37 60.26"/><polygon class="cls-3" points="1079.59 91 1140 91 1200 52.67 1057.31 60.26 1079.59 91"/><polygon class="cls-2" points="1026.74 54.45 1039.93 36.1 1023.89 13.99 1023.59 14.26 1026.74 54.45"/><polygon class="cls-2" points="1023.58 14.17 1023.89 14.02 1063.68 3.11 1065.94 0 1022.47 0 1023.58 14.17"/><polygon class="cls-2" points="1000.48 34.9 1004.68 85.15 1024.06 58.19 1002.43 33.15 1000.48 34.9"/><polygon class="cls-3" points="985.83 48.11 986.31 91 1000.67 91 1004.68 85.29 1000.48 35.03 985.83 48.11"/><polygon class="cls-3" points="985.64 30.66 996.27 26.02 985.45 13.49 985.64 30.66"/><polygon class="cls-3" points="1023.58 14.17 1022.47 0 997.56 0 999.62 24.63 1023.58 14.17"/><polygon class="cls-3" points="1023.59 14.26 1002.43 33.15 1024.06 58.19 1026.74 54.45 1023.59 14.26"/><polygon class="cls-4" points="985.45 13.53 996.27 26.05 999.62 24.62 997.56 0 985.3 0 985.45 13.53"/><polygon class="cls-3" points="1063.68 3.06 1023.89 13.99 1039.93 36.1 1063.68 3.06"/><polygon class="cls-1" points="964.6 66.93 964.6 66.93 964.6 66.93 964.6 66.93"/><polygon class="cls-1" points="964.6 66.93 964.6 66.93 964.6 66.93 964.6 66.93"/><polygon class="cls-3" points="950.78 0 885.07 0 943.39 49.1 959.47 42.12 950.78 0"/><polygon class="cls-2" points="893.72 70.7 892.63 71.31 921.94 91 937.95 91 947.11 82.68 893.72 70.7"/><polygon class="cls-3" points="959.47 42.06 964.6 66.93 985.83 47.97 985.64 30.66 959.47 42.06"/><polygon class="cls-3" points="893.72 70.7 947.11 82.54 964.6 66.93 943.39 49.06 893.72 70.7"/><polygon class="cls-3" points="921.94 91 892.63 71.45 847.75 91 921.94 91"/><polygon class="cls-1" points="1023.89 13.99 1023.58 14.13 1023.59 14.26 1023.89 13.99"/><polygon class="cls-1" points="1023.89 13.99 1023.58 14.13 1023.59 14.26 1023.89 13.99"/><polygon class="cls-1" points="1000.48 34.9 1002.43 33.15 1000.11 30.46 1000.48 34.9"/><polygon class="cls-4" points="1000.11 30.46 996.27 26.02 985.64 30.66 985.83 47.97 1000.48 34.9 1000.11 30.46"/><polygon class="cls-4" points="1000.11 30.46 1002.43 33.15 1023.59 14.26 1023.58 14.13 999.62 24.57 1000.11 30.46"/><polygon class="cls-5" points="996.27 26.02 1000.11 30.46 999.62 24.57 996.27 26.02"/><polygon class="cls-4" points="943.39 49.06 964.6 66.93 964.6 66.93 959.47 42.06 943.39 49.06"/><polygon class="cls-1" points="837.19 91 824.39 55.48 808.63 51.94 797.04 91 837.19 91"/><polygon class="cls-2" points="824.39 55.34 815.25 29.67 808.66 51.85 824.39 55.34"/><polygon class="cls-2" points="891 70.09 893.72 70.7 943.39 49.1 885.07 0 824.06 0 817.75 21.25 891 70.09"/><polygon class="cls-2" points="892.63 71.31 891 70.16 824.49 55.51 837.19 91 847.75 91 892.63 71.31"/><polygon class="cls-3" points="815.26 29.62 824.49 55.34 891 70.09 817.75 21.25 815.26 29.62"/></svg>