<svg id="Layer_1" data-name="Layer 1" xmlns="http://www.w3.org/2000/svg" xmlns:xlink="http://www.w3.org/1999/xlink" viewBox="0 0 371.02 95.02"><defs><style>.cls-1{fill:url(#radial-gradient);}.cls-2{fill:#231f20;}.cls-3{font-size:12.74px;fill:#6d6e70;font-family:Blogger Sans;}</style><radialGradient id="radial-gradient" cx="587.09" cy="-46.31" fx="664.2173503302262" r="392.61" gradientTransform="matrix(0, 1.05, -0.81, 0, 164.07, -671.97)" gradientUnits="userSpaceOnUse"><stop offset="0.07" stop-color="#fff"/><stop offset="0.16" stop-color="#fff6c0" stop-opacity="0.3"/><stop offset="0.21" stop-color="#fff9d3" stop-opacity="0.21"/><stop offset="0.3" stop-color="#fffceb" stop-opacity="0.09"/><stop offset="0.38" stop-color="#fffefa" stop-opacity="0.02"/><stop offset="0.43" stop-color="#fff" stop-opacity="0"/></radialGradient></defs><title>logo+shine</title><rect class="cls-1" width="371.02" height="95.02"/><path class="cls-2" d="M688.22,44.54l6.51-17.84-3.64-9.89L728.72,24Zm3.94-26.82,3.31,9-6,16.43L726.6,24.31Z" transform="translate(-385.55 1.02)"/><path class="cls-2" d="M688,44.75l6.59-18-3.69-10,0.18,0L729,24l-0.26.13Zm3.21-27.8,3.59,9.75v0l-6.42,17.6,40-20.27Zm-2,26.39,6.07-16.64L692,17.59l0.18,0,34.73,6.65-0.27.13Zm3-25.48,3.26,8.84v0l-5.91,16.19,36.64-18.57Z" transform="translate(-385.55 1.02)"/><rect class="cls-2" x="695.06" y="25.17" width="32.66" height="0.69" transform="translate(-385.39 56.3) rotate(-4.45)"/><path class="cls-2" d="M695,27.24L695,26.35h0.1l32.67-2.54,0.07,0.89h-0.1Zm0.15-.71,0,0.49,32.36-2.52,0-.49Z" transform="translate(-385.55 1.02)"/><polygon class="cls-2" points="303.53 45.11 303.06 44.61 321.75 26.89 306.3 18.82 306.62 18.2 322.93 26.73 303.53 45.11"/><path class="cls-2" d="M689.08,44.23l-0.62-.65,0.07-.07L707.13,25.9l-15.41-8.06,0.42-.79,0.09,0,16.44,8.59-0.1.1Zm-0.33-.64,0.34,0.35,19.22-18.21-16.09-8.42-0.23.43,15.49,8.1-0.1.1Z" transform="translate(-385.55 1.02)"/><polygon class="cls-2" points="304.1 44.23 303.5 43.87 313.33 27.32 313.93 27.67 304.1 44.23"/><path class="cls-2" d="M689.69,43.34l-0.77-.46,9.93-16.73,0.77,0.46-0.05.09Zm-0.49-.53,0.42,0.25,9.73-16.39-0.42-.25Z" transform="translate(-385.55 1.02)"/><path class="cls-2" d="M590.65,60.78v-5c0-3.28,1.53-6,5.42-6s5.42,2.73,5.42,6v5c0,3.35-1.81,6-5.42,6S590.65,64.12,590.65,60.78Zm1.88-5v5c0,2.47,1.11,4.19,3.54,4.19s3.53-1.72,3.53-4.19v-5c0-2.5-.94-4.17-3.53-4.17S592.54,53.23,592.54,55.73Z" transform="translate(-385.55 1.02)"/><path class="cls-2" d="M613.91,66.76a0.91,0.91,0,0,1-.94-0.92V51.77h-5l-0.73,10.82c-0.16,2.52-1,4.17-2.94,4.17-0.92,0-1.79,0-1.79-.94a0.86,0.86,0,0,1,.87-1c0.31,0,.31.07,0.66,0.07,0.85,0,1.23-.71,1.34-2.19l0.85-11.88a0.92,0.92,0,0,1,.9-0.92h6.83a0.94,0.94,0,0,1,.94.92v15A1,1,0,0,1,613.91,66.76Z" transform="translate(-385.55 1.02)"/><path class="cls-2" d="M618.32,65.77V50.69a1,1,0,0,1,.92-1,1,1,0,0,1,1,1v12l6.55-12.42a1.13,1.13,0,0,1,1-.57,1,1,0,0,1,1,1V65.84a1,1,0,0,1-.92,1,1,1,0,0,1-1-1v-12l-6.55,12.44a1.14,1.14,0,0,1-1,.54A1,1,0,0,1,618.32,65.77Z" transform="translate(-385.55 1.02)"/><path class="cls-2" d="M645.18,65.89a0.94,0.94,0,0,1-.92.92,1,1,0,0,1-1-.92V54.41l-3.79,8.11a1,1,0,0,1-.92.57,1,1,0,0,1-.9-0.57l-3.79-8.11V65.89a1,1,0,0,1-1,.92,0.92,0.92,0,0,1-.9-0.92V50.71a1,1,0,0,1,1-1,1.07,1.07,0,0,1,1,.61l4.6,9.85,4.6-9.87a1.07,1.07,0,0,1,1-.59,1,1,0,0,1,1,1V65.89Z" transform="translate(-385.55 1.02)"/><path class="cls-2" d="M657.72,66.81a1,1,0,0,1-.94-1V51.77h-6.43V65.84a0.94,0.94,0,1,1-1.89,0v-15a1,1,0,0,1,.94-0.94h8.32a1,1,0,0,1,.94.94v15A1,1,0,0,1,657.72,66.81Z" transform="translate(-385.55 1.02)"/><path class="cls-2" d="M662.1,65.77V50.69a1,1,0,0,1,.92-1,1,1,0,0,1,1,1v12l6.55-12.42a1.13,1.13,0,0,1,1-.57,1,1,0,0,1,1,1V65.84a1,1,0,0,1-.92,1,1,1,0,0,1-1-1v-12L664.1,66.27a1.15,1.15,0,0,1-1,.54A1,1,0,0,1,662.1,65.77Z" transform="translate(-385.55 1.02)"/><path class="cls-2" d="M677.86,57.33h1.37l4.93-7.16a0.91,0.91,0,0,1,.78-0.45,1,1,0,0,1,.89,1,0.84,0.84,0,0,1-.12.45l-5,7.09,5,7.07a0.84,0.84,0,0,1,.12.45,1,1,0,0,1-.89,1,0.91,0.91,0,0,1-.78-0.45l-5-7.19h-1.34v6.67a0.94,0.94,0,1,1-1.88,0V50.66a0.94,0.94,0,0,1,1.88,0v6.67Z" transform="translate(-385.55 1.02)"/><path class="cls-2" d="M704.47,66.81a1,1,0,0,1-.94-1V51.77h-6.43V65.84a0.94,0.94,0,1,1-1.89,0v-15a1,1,0,0,1,.94-0.94h8.32a1,1,0,0,1,.94.94v15A1,1,0,0,1,704.47,66.81Z" transform="translate(-385.55 1.02)"/><path class="cls-2" d="M709.6,66.1a1,1,0,0,1-.9.71,0.94,0.94,0,0,1-1-.94,1.55,1.55,0,0,1,0-.35L712.36,51a1.24,1.24,0,1,1,2.47,0l4.59,14.54a1.45,1.45,0,0,1,0,.35,0.93,0.93,0,0,1-1,.94,1,1,0,0,1-.92-0.71l-1-3.28h-6ZM711.16,61H716l-2.43-8Z" transform="translate(-385.55 1.02)"/><path class="cls-2" d="M723.67,60.44v5.37a0.94,0.94,0,1,1-1.89,0V51.09A1.14,1.14,0,0,1,722.92,50h3.46c3.91,0,5.3,2.52,5.3,5.28,0,3.35-2.07,5.21-5.3,5.21h-2.71Zm0-1.84h2.71c2.24,0,3.42-1.08,3.42-3.39,0-1.7-.64-3.42-3.42-3.42h-2.71v6.81Z" transform="translate(-385.55 1.02)"/><path class="cls-2" d="M736.16,57.33h1.37l4.93-7.16a0.91,0.91,0,0,1,.78-0.45,1,1,0,0,1,.9,1,0.86,0.86,0,0,1-.12.45l-4.95,7.09L744,65.35a0.86,0.86,0,0,1,.12.45,1,1,0,0,1-.9,1,0.91,0.91,0,0,1-.78-0.45l-4.95-7.19h-1.35v6.67a0.94,0.94,0,1,1-1.88,0V50.66a0.94,0.94,0,0,1,1.88,0v6.67Z" transform="translate(-385.55 1.02)"/><text class="cls-3" transform="translate(206 45.1)">жилой ква<tspan x="52.48" y="0">р</tspan><tspan x="58.15" y="0">т</tspan><tspan x="62.89" y="0">ал</tspan></text></svg>