<svg id="Layer_1" data-name="Layer 1" xmlns="http://www.w3.org/2000/svg" viewBox="0 0 419.79 90"><defs><style>.cls-1,.cls-3{opacity:0.5;}.cls-2,.cls-3{fill:#fff;}</style></defs><title>tapas+credit</title><polygon class="cls-1" points="267.73 90 0 90 27.02 0 294.75 0 267.73 90"/><path class="cls-2" d="M41.89-195.35v-26H53.4v12.55Zm0.84-25.13v22.87l9.83-11.46v-11.41H42.73Z" transform="translate(25.85 257.39)"/><path class="cls-2" d="M42.43-220.48H22.53l15.56-7.19H54.51Zm-16.11-.84H42.2l9.27-5.51H38.18Z" transform="translate(25.85 257.39)"/><path class="cls-2" d="M64.1-220.48H52.57v-7.19H70.32Zm-10.7-.84H63.72l4.77-5.51H53.4v5.51Z" transform="translate(25.85 257.39)"/><path class="cls-2" d="M67.15-212.19H64.72v6.55H63.11v-6.55H60.68v-1.5h6.47v1.5ZM71-207.35H68.42l-0.62,1.71H66.19l3-8.1h1.19l3,8.1H71.66Zm-2.12-1.34h1.74L70-210.38l-0.26-1.28H69.71l-0.26,1.28Zm9.59-3.49H75.55v6.55H73.93v-8.05h6.16v8.05H78.47v-6.55Zm7,4.84H82.89l-0.62,1.71H80.65l3-8.1h1.19l3,8.1H86.11Zm-2.13-1.34h1.76l-0.59-1.68-0.26-1.28H84.18l-0.26,1.28ZM93.65-206a2.33,2.33,0,0,1-1,.38,5.37,5.37,0,0,1-1.2.13,4.41,4.41,0,0,1-1.4-.23,2.93,2.93,0,0,1-1.19-.74,3.43,3.43,0,0,1-.83-1.29,5.16,5.16,0,0,1-.31-1.91,4.92,4.92,0,0,1,.35-2,3.76,3.76,0,0,1,.9-1.28,3.41,3.41,0,0,1,1.2-.71,4.08,4.08,0,0,1,1.32-.22,6.34,6.34,0,0,1,1.19.11,3.7,3.7,0,0,1,.8.21l-0.31,1.43a2.7,2.7,0,0,0-.65-0.19,5,5,0,0,0-.91-0.06,2.51,2.51,0,0,0-.9.16,1.77,1.77,0,0,0-.68.51,2.28,2.28,0,0,0-.44.83,4.39,4.39,0,0,0-.15,1.19,3.84,3.84,0,0,0,.13,1.08,2.35,2.35,0,0,0,.43.86,1.85,1.85,0,0,0,.72.56,2.45,2.45,0,0,0,1,.19,3.17,3.17,0,0,0,.9-0.1,2.92,2.92,0,0,0,.65-0.26Z" transform="translate(25.85 257.39)"/><path class="cls-2" d="M54.31-201.59h-1v1.85H53v-2.17h1.33v0.32Zm0.9-.32h0.25l0.07,0.28h0a0.64,0.64,0,0,1,.27-0.25,0.8,0.8,0,0,1,.39-0.09,0.83,0.83,0,0,1,.66.26,1.24,1.24,0,0,1,.23.83,1.74,1.74,0,0,1-.07.49,1.29,1.29,0,0,1-.21.38,1,1,0,0,1-.33.23,1.08,1.08,0,0,1-.45.09H55.92l-0.13,0-0.11,0-0.11,0v0.87H55.22v-3Zm0.93,0.26a0.57,0.57,0,0,0-.37.12,0.89,0.89,0,0,0-.19.38v1a0.43,0.43,0,0,0,.19.1,0.74,0.74,0,0,0,.28,0,0.63,0.63,0,0,0,.5-0.22,1,1,0,0,0,.18-0.65,1,1,0,0,0-.14-0.57A0.49,0.49,0,0,0,56.14-201.65Zm2.7,1.11L59-200.12H59l0.09-.42,0.43-1.37h0.37l-0.68,2c-0.06.13-.1,0.26-0.15,0.39l-0.17.34a0.94,0.94,0,0,1-.21.23,0.38,0.38,0,0,1-.25.08,1.85,1.85,0,0,1-.28,0l0.06-.32,0.13,0,0.14,0a0.28,0.28,0,0,0,.12-0.09,0.34,0.34,0,0,0,.1-0.15,1.34,1.34,0,0,0,.08-0.25l-0.91-2.19h0.43Zm3.38-1h-1v1.85H60.84v-2.17h1.74v2.17H62.22v-1.85Zm3,0h-1v1.85H63.82v-2.17h1.73v2.17H65.2v-1.85Zm1.58-.19a1.94,1.94,0,0,1,.88-0.18,0.93,0.93,0,0,1,.38.06,0.52,0.52,0,0,1,.22.18,0.49,0.49,0,0,1,.11.21,1.32,1.32,0,0,1,0,.23c0,0.16,0,.31,0,0.47s0,0.32,0,.49,0,0.21,0,.31a1.47,1.47,0,0,0,.06.28H68.14l-0.1-.33h0a1,1,0,0,1-.11.12,0.68,0.68,0,0,1-.15.11,0.69,0.69,0,0,1-.19.09,0.72,0.72,0,0,1-.26,0,0.77,0.77,0,0,1-.26,0,0.79,0.79,0,0,1-.21-0.12,0.73,0.73,0,0,1-.15-0.19,0.86,0.86,0,0,1,0-.26,0.79,0.79,0,0,1,.07-0.32,0.78,0.78,0,0,1,.21-0.22,0.76,0.76,0,0,1,.28-0.13,1.06,1.06,0,0,1,.3,0h0.34l0.1,0a0.1,0.1,0,0,1,.07,0,0.4,0.4,0,0,0,0-.12v-0.12a0.81,0.81,0,0,0,0-.19,0.2,0.2,0,0,0-.09-0.13,0.2,0.2,0,0,0-.14-0.06,1.11,1.11,0,0,0-.22,0,0.5,0.5,0,0,0-.16,0l-0.18,0-0.18.06-0.17.07Zm1.23,1a0.12,0.12,0,0,1-.07,0H67.55a0.76,0.76,0,0,0-.39.09,0.33,0.33,0,0,0-.14.31,0.25,0.25,0,0,0,.11.25,0.42,0.42,0,0,0,.29.09l0.22,0,0.18-.09a0.9,0.9,0,0,0,.11-0.12A0.67,0.67,0,0,0,68-200.4v-0.33Zm3.36,0H71.15v1H70.79v-2.17h0.36v1l0.22-.07,0.71-.92h0.39l-0.67.85-0.2.16,0.25,0.19,0.73,1H72.12Zm2-.1a1.92,1.92,0,0,1,.07-0.5,1,1,0,0,1,.2-0.35,0.89,0.89,0,0,1,.32-0.23,1,1,0,0,1,.43-0.07,1.33,1.33,0,0,1,.44.07,0.88,0.88,0,0,1,.3.25,1,1,0,0,1,.2.37,1.65,1.65,0,0,1,.06.47,1.18,1.18,0,0,1-.07.46,1.05,1.05,0,0,1-.19.36,0.88,0.88,0,0,1-.32.23,1.26,1.26,0,0,1-.42.07,1.07,1.07,0,0,1-.46-0.09,0.76,0.76,0,0,1-.3-0.23,0.9,0.9,0,0,1-.18-0.37A1.69,1.69,0,0,1,73.34-200.82Zm0.39,0a1.93,1.93,0,0,0,0,.29,1.07,1.07,0,0,0,.11.26,0.58,0.58,0,0,0,.2.19,0.62,0.62,0,0,0,.29.08,0.65,0.65,0,0,0,.62-0.81,1.26,1.26,0,0,0,0-.32,0.76,0.76,0,0,0-.11-0.27,0.57,0.57,0,0,0-.18-0.17,0.48,0.48,0,0,0-.29-0.08,0.54,0.54,0,0,0-.47.2A1.06,1.06,0,0,0,73.72-200.82Zm4.66-.15,0-.45h0l-0.18.33-0.53.83H77.54L77-201.08l-0.15-.33h0l0,0.44v1.23H76.48v-2.17h0.39L77.48-201l0.15,0.31,0.16-.31,0.58-.95h0.37v2.17H78.39V-201Zm3-.63h-1v1.85H80v-2.17h1.73v2.17H81.37v-1.85Zm1.59-.19a1.93,1.93,0,0,1,.87-0.18,0.92,0.92,0,0,1,.38.06,0.46,0.46,0,0,1,.22.18,0.41,0.41,0,0,1,.11.21,1.38,1.38,0,0,1,0,.23c0,0.16,0,.31,0,0.47s0,0.32,0,.49a2.33,2.33,0,0,0,0,.31,0.83,0.83,0,0,0,0,.28H84.33l-0.1-.33h0a0.41,0.41,0,0,1-.11.12,0.55,0.55,0,0,1-.15.11,0.7,0.7,0,0,1-.19.09,0.68,0.68,0,0,1-.26,0,0.75,0.75,0,0,1-.26,0,0.72,0.72,0,0,1-.21-0.12,0.64,0.64,0,0,1-.14-0.19,0.6,0.6,0,0,1-.06-0.26,0.63,0.63,0,0,1,.08-0.32,0.61,0.61,0,0,1,.19-0.22,0.8,0.8,0,0,1,.28-0.13,1,1,0,0,1,.3,0H84l0.1,0h0.08v-0.12a0.28,0.28,0,0,0,0-.12,0.7,0.7,0,0,0,0-.19,0.19,0.19,0,0,0-.08-0.13,0.21,0.21,0,0,0-.14-0.06,1,1,0,0,0-.22,0,0.58,0.58,0,0,0-.17,0l-0.18,0-0.18.06-0.15.07Zm1.23,1a0.09,0.09,0,0,1-.07,0H84a0.33,0.33,0,0,0-.13,0H83.72a0.76,0.76,0,0,0-.39.09,0.33,0.33,0,0,0-.14.31,0.28,0.28,0,0,0,.11.25,0.42,0.42,0,0,0,.29.09l0.22,0,0.18-.09,0.13-.12,0.07-.13v-0.33Zm3,0h-1v0.94H85.81v-2.17h0.38V-201h1v-0.89h0.36v2.17H87.22v-0.94Zm3-.29,0.05-.44h0l-0.19.41-1,1.26H88.83v-2.17h0.36v1.28l0,0.38h0l0.18-.36,0.94-1.3h0.29v2.17H90.26V-201Zm3,0,0.06-.44h0l-0.19.41-1,1.26H91.86v-2.17h0.36v1.28l0,0.38h0l0.18-.36,1-1.3h0.28v2.17H93.29V-201Zm-0.87-1.71a0.69,0.69,0,0,0,.06.15l0.08,0.07a0.29,0.29,0,0,0,.11,0h0.25l0.11,0a0.67,0.67,0,0,0,.08-0.09,0.25,0.25,0,0,0,.05-0.13l0.29,0.08a0.42,0.42,0,0,1-.24.34,0.82,0.82,0,0,1-.43.1H92.55a0.76,0.76,0,0,1-.21-0.07,0.38,0.38,0,0,1-.17-0.13,0.46,0.46,0,0,1-.08-0.2Z" transform="translate(25.85 257.39)"/><path d="M289.53-230.65v-7.7h0.93V-235h0.82a2.12,2.12,0,0,0,.37,0,1,1,0,0,0,.37-0.15,1.2,1.2,0,0,0,.34-0.34,2.15,2.15,0,0,0,.27-0.6l0.62-2.23h0.88l-0.6,2.26a3.25,3.25,0,0,1-.41.95,1.21,1.21,0,0,1-.61.5,1.28,1.28,0,0,1,.71.55,3.4,3.4,0,0,1,.39,1l0.65,2.47h-1L292.69-233a2.23,2.23,0,0,0-.25-0.63,1.28,1.28,0,0,0-.33-0.37,1,1,0,0,0-.38-0.17,2.14,2.14,0,0,0-.41,0h-0.87v3.51h-0.93Z" transform="translate(25.85 257.39)"/><path d="M299.62-232.85a2.23,2.23,0,0,1-.56,1.64,2,2,0,0,1-1.51.56H295.2v-7.71h2.21a2.06,2.06,0,0,1,1.57.55,2.08,2.08,0,0,1,.51,1.48,2.15,2.15,0,0,1-.2.94,1.6,1.6,0,0,1-.78.7v0a1.28,1.28,0,0,1,.51.25,1.49,1.49,0,0,1,.34.42,1.87,1.87,0,0,1,.19.53A3,3,0,0,1,299.62-232.85Zm-3.51-4.67V-235h1.21a1.23,1.23,0,0,0,1-.34,1.33,1.33,0,0,0,.3-0.91,1.27,1.27,0,0,0-.3-0.89,1.25,1.25,0,0,0-1-.33h-1.21Zm0,3.28v2.7h1.34a1.47,1.47,0,0,0,.61-0.11,1,1,0,0,0,.39-0.3,1.17,1.17,0,0,0,.2-0.44,2.26,2.26,0,0,0,.06-0.54,1.48,1.48,0,0,0-.29-0.95,1.19,1.19,0,0,0-1-.37h-1.32Z" transform="translate(25.85 257.39)"/><path d="M304.63-230.65l-0.49-1.75h-2.46l-0.48,1.75h-0.94l2.24-7.71h0.83l2.25,7.71h-1Zm-1.26-4.57-0.43-1.71h0l-0.43,1.69-0.56,2h2Z" transform="translate(25.85 257.39)"/><path d="M310.92-236a3,3,0,0,1-.12.86,2,2,0,0,1-.38.73,1.88,1.88,0,0,1-.68.51,2.42,2.42,0,0,1-1,.19H307.4v3.1h-0.92v-7.71h2.19a2.28,2.28,0,0,1,1.66.57A2.33,2.33,0,0,1,310.92-236Zm-0.93,0a1.64,1.64,0,0,0-.31-1.05,1.24,1.24,0,0,0-1-.39H307.4v2.88h1.26a1.49,1.49,0,0,0,.64-0.12,1.12,1.12,0,0,0,.41-0.32,1.17,1.17,0,0,0,.22-0.46A2.35,2.35,0,0,0,310-236.05Z" transform="translate(25.85 257.39)"/><path d="M313.9-237.52v6.88H313v-6.88h-1.76v-0.83h4.44v0.83H313.9Z" transform="translate(25.85 257.39)"/><path d="M316.46-230.65v-7.71h0.92v5.85h0l1.15-2.3,1.83-3.55h0.9v7.71h-0.93v-5.87h0l-1.07,2.14-1.92,3.73h-0.89Z" transform="translate(25.85 257.39)"/><path d="M327.23-236a3,3,0,0,1-.12.86,2,2,0,0,1-.38.73,1.88,1.88,0,0,1-.68.51,2.42,2.42,0,0,1-1,.19h-1.32v3.1h-0.92v-7.71H325a2.28,2.28,0,0,1,1.66.57A2.33,2.33,0,0,1,327.23-236Zm-0.93,0a1.64,1.64,0,0,0-.31-1.05,1.24,1.24,0,0,0-1-.39h-1.25v2.88H325a1.49,1.49,0,0,0,.64-0.12,1.12,1.12,0,0,0,.41-0.32,1.17,1.17,0,0,0,.22-0.46A2.35,2.35,0,0,0,326.3-236.05Z" transform="translate(25.85 257.39)"/><path d="M328.27-230.65v-7.71h0.92v3.22h1.26a2.92,2.92,0,0,1,1,.16,1.84,1.84,0,0,1,.7.45,1.79,1.79,0,0,1,.4.69,2.86,2.86,0,0,1,.13.87,2.34,2.34,0,0,1-.58,1.72,2.24,2.24,0,0,1-1.66.58h-2.2Zm3.51-2.27a1.93,1.93,0,0,0-.07-0.51,1.2,1.2,0,0,0-.22-0.44,1,1,0,0,0-.42-0.3,1.66,1.66,0,0,0-.65-0.11h-1.24v2.77h1.25a1.26,1.26,0,0,0,1-.38A1.57,1.57,0,0,0,331.78-232.92Zm1.62,2.27v-7.71h0.93v7.71h-0.93Z" transform="translate(25.85 257.39)"/><path d="M338.23-230.18h-0.7l2.42-8.49h0.7Z" transform="translate(25.85 257.39)"/><path d="M347.37-230.65v-6.9h-2.54v6.9h-0.92v-7.71h4.38v7.71h-0.93Z" transform="translate(25.85 257.39)"/><path d="M349.81-230.65v-7.71h4.09v0.86h-3.17V-235h2.71v0.83h-2.71v2.59h3.17v0.9h-4.09Z" transform="translate(25.85 257.39)"/><path d="M358.65-230.65v-3.51H356v3.51h-0.92v-7.71H356V-235h2.6v-3.39h0.93v7.71h-0.93Z" transform="translate(25.85 257.39)"/><path d="M363.27-237.52v6.88h-0.92v-6.88h-1.76v-0.83H365v0.83h-1.76Z" transform="translate(25.85 257.39)"/><path d="M369.26-230.65l-1.45-3.12-1.44,3.12h-1l2-4-1.83-3.71h1l1.31,2.87,1.31-2.87h1l-1.84,3.71,2,4h-1Z" transform="translate(25.85 257.39)"/><path d="M375-230.65l-0.49-1.75h-2.46l-0.48,1.75h-0.94l2.24-7.71h0.83l2.25,7.71h-1Zm-1.26-4.57-0.43-1.71h0l-0.43,1.69-0.56,2h2Z" transform="translate(25.85 257.39)"/><path d="M380.29-235.37l-0.95,3a5.1,5.1,0,0,1-.37.95,1.88,1.88,0,0,1-.4.53,1.05,1.05,0,0,1-.43.24,2.41,2.41,0,0,1-.46.07h-0.63v-0.8h0.52a0.65,0.65,0,0,0,.43-0.16,1.37,1.37,0,0,0,.35-0.58l0.1-.35-1-2.92-1-2.92h1l0.83,2.61,0.62,2h0l0.14-.46,0.24-.81,0.3-1,0.3-1,0.24-.84q0.1-.36.15-0.48h0.93Q380.76-236.85,380.29-235.37Z" transform="translate(25.85 257.39)"/><path d="M386.59-232.08a1.88,1.88,0,0,1-.77,1.11,2.4,2.4,0,0,1-1.37.38,2.47,2.47,0,0,1-.94-0.17,2,2,0,0,1-.71-0.48,2.1,2.1,0,0,1-.44-0.73,2.67,2.67,0,0,1-.15-0.93v-3.23a2.69,2.69,0,0,1,.15-0.91,2,2,0,0,1,.44-0.73,2.06,2.06,0,0,1,.71-0.48,2.44,2.44,0,0,1,1-.18,2.36,2.36,0,0,1,1.36.39,2,2,0,0,1,.78,1.08l-0.87.34a1.25,1.25,0,0,0-.43-0.68,1.29,1.29,0,0,0-.84-0.25,1.33,1.33,0,0,0-.57.12,1.25,1.25,0,0,0-.42.3,1.32,1.32,0,0,0-.25.44,1.57,1.57,0,0,0-.09.52v3.28a1.6,1.6,0,0,0,.09.53,1.38,1.38,0,0,0,.25.45,1.22,1.22,0,0,0,.42.31,1.34,1.34,0,0,0,.57.12,1.3,1.3,0,0,0,.82-0.25,1.22,1.22,0,0,0,.44-0.69Z" transform="translate(25.85 257.39)"/><path d="M387.88-230.65v-7.71h0.92v3.22h1.26a2.92,2.92,0,0,1,1,.16,1.85,1.85,0,0,1,.7.45,1.79,1.79,0,0,1,.4.69,2.86,2.86,0,0,1,.13.87,2.34,2.34,0,0,1-.58,1.72,2.24,2.24,0,0,1-1.66.58h-2.2Zm3.51-2.27a1.91,1.91,0,0,0-.07-0.51,1.2,1.2,0,0,0-.22-0.44,1,1,0,0,0-.42-0.3,1.66,1.66,0,0,0-.65-0.11H388.8v2.77H390a1.26,1.26,0,0,0,1-.38A1.57,1.57,0,0,0,391.39-232.92Zm1.62,2.27v-7.71h0.93v7.71H393Z" transform="translate(25.85 257.39)"/><path d="M286.74-215v-6.9h-2.54v6.9h-0.92v-7.71h4.38V-215h-0.93Z" transform="translate(25.85 257.39)"/><path d="M293.14-215l-0.49-1.75H290.2L289.72-215h-0.94l2.24-7.71h0.83l2.25,7.71h-1Zm-1.26-4.57-0.43-1.71h0L291-219.59l-0.56,2h2Z" transform="translate(25.85 257.39)"/><path d="M299.64-220.4a3,3,0,0,1-.12.86,2,2,0,0,1-.38.73,1.88,1.88,0,0,1-.68.51,2.41,2.41,0,0,1-1,.19h-1.32v3.1H295.2v-7.71h2.19a2.28,2.28,0,0,1,1.66.57A2.33,2.33,0,0,1,299.64-220.4Zm-0.93,0a1.64,1.64,0,0,0-.31-1.05,1.24,1.24,0,0,0-1-.39h-1.25V-219h1.26a1.49,1.49,0,0,0,.64-0.12,1.12,1.12,0,0,0,.41-0.32,1.17,1.17,0,0,0,.22-0.46A2.35,2.35,0,0,0,298.71-220.41Z" transform="translate(25.85 257.39)"/><path d="M300.83-215v-7.7h0.93v3.35h0.82a2.12,2.12,0,0,0,.37,0,1,1,0,0,0,.37-0.15,1.2,1.2,0,0,0,.34-0.34,2.15,2.15,0,0,0,.27-0.6l0.62-2.23h0.88l-0.6,2.26a3.25,3.25,0,0,1-.41.95,1.21,1.21,0,0,1-.61.5,1.28,1.28,0,0,1,.71.55,3.4,3.4,0,0,1,.39,1l0.65,2.47h-1L304-217.32a2.22,2.22,0,0,0-.25-0.62,1.27,1.27,0,0,0-.33-0.37,0.94,0.94,0,0,0-.38-0.17,2.1,2.1,0,0,0-.41,0h-0.87V-215h-0.93Z" transform="translate(25.85 257.39)"/><path d="M306.69-215v-7.71h0.92v5.85h0l1.15-2.3,1.83-3.55h0.9V-215H310.6v-5.87h0l-1.07,2.14L307.58-215h-0.89Z" transform="translate(25.85 257.39)"/><path d="M316.75-215v-3.51h-2.6V-215h-0.92v-7.71h0.92v3.39h2.6v-3.39h0.93V-215h-0.93Z" transform="translate(25.85 257.39)"/><path d="M320.33-221.85V-215h-0.92v-7.71h4v0.86h-3.08Z" transform="translate(25.85 257.39)"/><path d="M327.22-214.54h-0.7l2.42-8.49h0.7Z" transform="translate(25.85 257.39)"/><path d="M333.29-215v-7.7h0.93v3.35H335a2.12,2.12,0,0,0,.37,0,1,1,0,0,0,.37-0.15,1.2,1.2,0,0,0,.34-0.34,2.15,2.15,0,0,0,.27-0.6L337-222.7h0.88l-0.6,2.26a3.25,3.25,0,0,1-.41.95,1.21,1.21,0,0,1-.61.5,1.28,1.28,0,0,1,.71.55,3.4,3.4,0,0,1,.39,1L338-215h-1l-0.59-2.31a2.22,2.22,0,0,0-.25-0.62,1.27,1.27,0,0,0-.33-0.37,0.94,0.94,0,0,0-.38-0.17,2.1,2.1,0,0,0-.41,0h-0.87V-215h-0.93Z" transform="translate(25.85 257.39)"/><path d="M343.45-217.26a2.62,2.62,0,0,1-.17,1,2.13,2.13,0,0,1-.46.73,2,2,0,0,1-.71.47,2.52,2.52,0,0,1-.91.16,2.47,2.47,0,0,1-1-.2,1.9,1.9,0,0,1-.7-0.54,2.13,2.13,0,0,1-.39-0.78,3.5,3.5,0,0,1-.12-0.93v-3.09a2.79,2.79,0,0,1,.12-0.8,2.16,2.16,0,0,1,.39-0.74,2,2,0,0,1,.7-0.54,2.39,2.39,0,0,1,1.05-.21,2.37,2.37,0,0,1,1,.2,2,2,0,0,1,.7.53,2.15,2.15,0,0,1,.41.74,2.67,2.67,0,0,1,.13.83v3.22Zm-0.94-3.21a1.78,1.78,0,0,0-.06-0.42,1.46,1.46,0,0,0-.21-0.46,1.35,1.35,0,0,0-.41-0.38,1.22,1.22,0,0,0-.66-0.16,1.29,1.29,0,0,0-.66.15,1.32,1.32,0,0,0-.41.37,1.33,1.33,0,0,0-.22.47,2,2,0,0,0-.06.46v3a2.61,2.61,0,0,0,.07.63,1.35,1.35,0,0,0,.24.51,1.18,1.18,0,0,0,.43.34,1.42,1.42,0,0,0,.63.13,1.37,1.37,0,0,0,.51-0.09,1.15,1.15,0,0,0,.41-0.27,1.35,1.35,0,0,0,.28-0.43,1.49,1.49,0,0,0,.11-0.58v-3.3Z" transform="translate(25.85 257.39)"/><path d="M346.94-221.88V-215H346v-6.88h-1.76v-0.83h4.44v0.83h-1.76Z" transform="translate(25.85 257.39)"/><path d="M351.7-221.88V-215h-0.92v-6.88H349v-0.83h4.44v0.83H351.7Z" transform="translate(25.85 257.39)"/><path d="M355.1-215v-7.71h4.09v0.86H356v2.52h2.71v0.83H356v2.59h3.17v0.9H355.1Z" transform="translate(25.85 257.39)"/><path d="M360.86-213.45H360v-2.28l0.46-.09a1.27,1.27,0,0,0,.41-0.43,2.31,2.31,0,0,0,.24-0.7,7.79,7.79,0,0,0,.13-1.06c0-.42,0-0.93.06-1.54l0.09-3.17h4.1q0,1.74,0,3.45t0,3.45H366v2.36h-0.86V-215h-4.32v1.56Zm3.71-2.36v-6.1h-2.34l-0.09,2.65q0,1.28-.13,2.13a2.76,2.76,0,0,1-.43,1.33h3Z" transform="translate(25.85 257.39)"/><path d="M370.56-222.73h0.93v3.38h0.71a2.15,2.15,0,0,0,.36,0,1,1,0,0,0,.38-0.15,1.22,1.22,0,0,0,.34-0.34,1.89,1.89,0,0,0,.25-0.61l0.62-2.23H375l-0.61,2.26a3,3,0,0,1-.4.95,1.24,1.24,0,0,1-.61.5,1.28,1.28,0,0,1,.71.55,3.62,3.62,0,0,1,.4,1l0.64,2.47h-1l-0.59-2.31a2.26,2.26,0,0,0-.24-0.62,1.24,1.24,0,0,0-.32-0.36,1,1,0,0,0-.38-0.17,1.91,1.91,0,0,0-.42,0h-0.75V-215h-0.93v-3.51h-0.76a1.84,1.84,0,0,0-.41,0,1,1,0,0,0-.38.17,1.31,1.31,0,0,0-.33.36,2.15,2.15,0,0,0-.25.62L367.84-215h-1l0.65-2.47a3.38,3.38,0,0,1,.39-1,1.28,1.28,0,0,1,.71-0.55,1.08,1.08,0,0,1-.64-0.5,3.84,3.84,0,0,1-.38-0.95L367-222.7h0.88l0.62,2.23a1.81,1.81,0,0,0,.26.61,1.29,1.29,0,0,0,.34.34,1,1,0,0,0,.37.15,2.12,2.12,0,0,0,.37,0h0.71v-3.38Z" transform="translate(25.85 257.39)"/><path d="M376.49-215v-7.71h0.92v5.85h0l1.15-2.3,1.83-3.55h0.9V-215H380.4v-5.87h0l-1.07,2.14L377.38-215h-0.89Z" transform="translate(25.85 257.39)"/><path d="M280.94-200.77a1.88,1.88,0,0,1-.77,1.11,2.4,2.4,0,0,1-1.37.38,2.47,2.47,0,0,1-.94-0.17,2,2,0,0,1-.71-0.48,2.1,2.1,0,0,1-.44-0.73,2.66,2.66,0,0,1-.15-0.93v-3.23a2.7,2.7,0,0,1,.15-0.91,2,2,0,0,1,.44-0.72,2.06,2.06,0,0,1,.71-0.48,2.43,2.43,0,0,1,1-.18,2.36,2.36,0,0,1,1.36.39,2,2,0,0,1,.78,1.08l-0.87.34a1.25,1.25,0,0,0-.43-0.68,1.29,1.29,0,0,0-.84-0.25,1.34,1.34,0,0,0-.57.12,1.27,1.27,0,0,0-.42.3,1.32,1.32,0,0,0-.25.44,1.57,1.57,0,0,0-.09.52v3.28a1.61,1.61,0,0,0,.09.53,1.37,1.37,0,0,0,.25.45,1.21,1.21,0,0,0,.42.31,1.32,1.32,0,0,0,.57.12,1.3,1.3,0,0,0,.82-0.25,1.23,1.23,0,0,0,.44-0.69Z" transform="translate(25.85 257.39)"/><path d="M285.8-199.34v-6.9h-2.54v6.9h-0.92V-207h4.38v7.71H285.8Z" transform="translate(25.85 257.39)"/><path d="M292.87-201.59a2.62,2.62,0,0,1-.17,1,2.13,2.13,0,0,1-.46.73,2,2,0,0,1-.71.47,2.52,2.52,0,0,1-.91.16,2.47,2.47,0,0,1-1-.2,1.9,1.9,0,0,1-.7-0.54,2.13,2.13,0,0,1-.39-0.78,3.5,3.5,0,0,1-.12-0.93v-3.09a2.8,2.8,0,0,1,.12-0.8,2.16,2.16,0,0,1,.39-0.74,2,2,0,0,1,.7-0.54,2.38,2.38,0,0,1,1.05-.21,2.37,2.37,0,0,1,1,.2,2,2,0,0,1,.7.53,2.15,2.15,0,0,1,.41.74,2.67,2.67,0,0,1,.13.83v3.22Zm-0.94-3.21a1.78,1.78,0,0,0-.06-0.42,1.47,1.47,0,0,0-.21-0.47,1.35,1.35,0,0,0-.41-0.38,1.22,1.22,0,0,0-.66-0.16,1.29,1.29,0,0,0-.66.15,1.33,1.33,0,0,0-.41.37,1.32,1.32,0,0,0-.22.47,2,2,0,0,0-.06.46v3a2.61,2.61,0,0,0,.07.63,1.35,1.35,0,0,0,.24.51,1.18,1.18,0,0,0,.43.34,1.42,1.42,0,0,0,.63.13,1.37,1.37,0,0,0,.51-0.09,1.15,1.15,0,0,0,.41-0.27,1.35,1.35,0,0,0,.28-0.43,1.49,1.49,0,0,0,.11-0.58v-3.3Z" transform="translate(25.85 257.39)"/><path d="M299-204.73a3,3,0,0,1-.12.86,2,2,0,0,1-.38.73,1.88,1.88,0,0,1-.68.51,2.43,2.43,0,0,1-1,.19h-1.32v3.1h-0.92V-207h2.19a2.29,2.29,0,0,1,1.66.57A2.33,2.33,0,0,1,299-204.73Zm-0.93,0a1.64,1.64,0,0,0-.31-1.05,1.25,1.25,0,0,0-1-.39h-1.25v2.88h1.26a1.48,1.48,0,0,0,.64-0.12,1.12,1.12,0,0,0,.41-0.32,1.17,1.17,0,0,0,.22-0.46A2.35,2.35,0,0,0,298-204.74Z" transform="translate(25.85 257.39)"/><path d="M302.28-206.21v6.88h-0.92v-6.88H299.6V-207H304v0.83h-1.76Z" transform="translate(25.85 257.39)"/><path d="M305.17-199.34V-207h0.93v3.36h0.82a2.17,2.17,0,0,0,.37,0,1,1,0,0,0,.37-0.15,1.21,1.21,0,0,0,.34-0.34,2.15,2.15,0,0,0,.27-0.6l0.62-2.23h0.88l-0.6,2.26a3.25,3.25,0,0,1-.41.95,1.21,1.21,0,0,1-.61.5,1.28,1.28,0,0,1,.71.55,3.4,3.4,0,0,1,.39,1l0.65,2.47h-1l-0.59-2.31a2.22,2.22,0,0,0-.25-0.62,1.27,1.27,0,0,0-.33-0.37,0.94,0.94,0,0,0-.38-0.17,2.1,2.1,0,0,0-.41,0H306.1v3.51h-0.93Z" transform="translate(25.85 257.39)"/><path d="M315.47-201.59a2.62,2.62,0,0,1-.17,1,2.13,2.13,0,0,1-.46.73,2,2,0,0,1-.71.47,2.52,2.52,0,0,1-.91.16,2.47,2.47,0,0,1-1-.2,1.9,1.9,0,0,1-.7-0.54,2.13,2.13,0,0,1-.39-0.78,3.5,3.5,0,0,1-.12-0.93v-3.09a2.8,2.8,0,0,1,.12-0.8,2.16,2.16,0,0,1,.39-0.74,2,2,0,0,1,.7-0.54,2.38,2.38,0,0,1,1.05-.21,2.37,2.37,0,0,1,1,.2,2,2,0,0,1,.7.53,2.15,2.15,0,0,1,.41.74,2.67,2.67,0,0,1,.13.83v3.22Zm-0.94-3.21a1.78,1.78,0,0,0-.06-0.42,1.47,1.47,0,0,0-.21-0.47,1.35,1.35,0,0,0-.41-0.38,1.22,1.22,0,0,0-.66-0.16,1.29,1.29,0,0,0-.66.15,1.33,1.33,0,0,0-.41.37,1.32,1.32,0,0,0-.22.47,2,2,0,0,0-.06.46v3a2.61,2.61,0,0,0,.07.63,1.35,1.35,0,0,0,.24.51,1.18,1.18,0,0,0,.43.34,1.42,1.42,0,0,0,.63.13,1.37,1.37,0,0,0,.51-0.09,1.15,1.15,0,0,0,.41-0.27,1.35,1.35,0,0,0,.28-0.43,1.49,1.49,0,0,0,.11-0.58v-3.3Z" transform="translate(25.85 257.39)"/><path d="M322.09-199.34v-5.38h0l-0.61,1.48-1.06,2.38h-0.63l-1.07-2.42-0.59-1.45h0v5.37h-0.92V-207H318l1.27,2.91,0.73,1.78h0l0.75-1.8,1.25-2.89H323v7.71h-0.92Z" transform="translate(25.85 257.39)"/><path d="M328.27-199.34v-6.9h-2.54v6.9h-0.92V-207h4.38v7.71h-0.93Z" transform="translate(25.85 257.39)"/><path d="M332.49-202.86a9.6,9.6,0,0,1-.12,1.65,3.46,3.46,0,0,1-.34,1.06,1.73,1.73,0,0,1-.57.63,3.31,3.31,0,0,1-.8.37c-0.06-.12-0.11-0.24-0.16-0.35l-0.16-.37a4.75,4.75,0,0,0,.53-0.3,1.37,1.37,0,0,0,.4-0.44,2.36,2.36,0,0,0,.26-0.73,6.14,6.14,0,0,0,.09-1.2V-207h4v7.71h-0.92v-6.88h-2.2v3.35Z" transform="translate(25.85 257.39)"/><path d="M337.5-199.34V-207h4.09v0.86h-3.17v2.52h2.71v0.83h-2.71v2.59h3.17v0.9H337.5Z" transform="translate(25.85 257.39)"/><path d="M342.94-199.34V-207h0.93v3.36h0.82a2.17,2.17,0,0,0,.37,0,1,1,0,0,0,.37-0.15,1.21,1.21,0,0,0,.34-0.34,2.15,2.15,0,0,0,.27-0.6l0.62-2.23h0.88l-0.6,2.26a3.25,3.25,0,0,1-.41.95,1.21,1.21,0,0,1-.61.5,1.28,1.28,0,0,1,.71.55,3.4,3.4,0,0,1,.39,1l0.65,2.47h-1l-0.59-2.31a2.22,2.22,0,0,0-.25-0.62,1.27,1.27,0,0,0-.33-0.37,0.94,0.94,0,0,0-.38-0.17,2.1,2.1,0,0,0-.41,0h-0.87v3.51h-0.93Z" transform="translate(25.85 257.39)"/><path d="M353.17-200.77a1.88,1.88,0,0,1-.77,1.11,2.4,2.4,0,0,1-1.37.38,2.47,2.47,0,0,1-.94-0.17,2,2,0,0,1-.71-0.48,2.1,2.1,0,0,1-.44-0.73,2.66,2.66,0,0,1-.15-0.93v-3.23a2.7,2.7,0,0,1,.15-0.91,2,2,0,0,1,.44-0.72,2.06,2.06,0,0,1,.71-0.48,2.43,2.43,0,0,1,1-.18,2.36,2.36,0,0,1,1.36.39,2,2,0,0,1,.78,1.08l-0.87.34a1.25,1.25,0,0,0-.43-0.68,1.29,1.29,0,0,0-.84-0.25,1.34,1.34,0,0,0-.57.12,1.27,1.27,0,0,0-.42.3,1.32,1.32,0,0,0-.25.44,1.57,1.57,0,0,0-.09.52v3.28a1.61,1.61,0,0,0,.09.53,1.37,1.37,0,0,0,.25.45,1.21,1.21,0,0,0,.42.31,1.32,1.32,0,0,0,.57.12,1.3,1.3,0,0,0,.82-0.25,1.23,1.23,0,0,0,.44-0.69Z" transform="translate(25.85 257.39)"/><path d="M274.89-189.09a3,3,0,0,1-.12.86,2,2,0,0,1-.38.73,1.88,1.88,0,0,1-.68.51,2.43,2.43,0,0,1-1,.19h-1.32v3.1h-0.92v-7.71h2.19a2.29,2.29,0,0,1,1.66.57A2.33,2.33,0,0,1,274.89-189.09Zm-0.93,0a1.64,1.64,0,0,0-.31-1.05,1.25,1.25,0,0,0-1-.39h-1.25v2.88h1.26a1.48,1.48,0,0,0,.64-0.12,1.12,1.12,0,0,0,.41-0.32,1.17,1.17,0,0,0,.22-0.46A2.35,2.35,0,0,0,274-189.1Z" transform="translate(25.85 257.39)"/><path d="M276.24-183.7v-7.71h4.09v0.86h-3.17V-188h2.71v0.83h-2.71v2.59h3.17v0.9h-4.09Z" transform="translate(25.85 257.39)"/><path d="M285.92-185.13a1.88,1.88,0,0,1-.77,1.11,2.4,2.4,0,0,1-1.37.38,2.47,2.47,0,0,1-.94-0.17,2,2,0,0,1-.71-0.48,2.1,2.1,0,0,1-.44-0.73,2.66,2.66,0,0,1-.15-0.93v-3.23a2.7,2.7,0,0,1,.15-0.91,2,2,0,0,1,.44-0.72,2.06,2.06,0,0,1,.71-0.48,2.43,2.43,0,0,1,1-.18,2.36,2.36,0,0,1,1.36.39,2,2,0,0,1,.78,1.08l-0.87.34a1.25,1.25,0,0,0-.43-0.68,1.29,1.29,0,0,0-.84-0.25,1.34,1.34,0,0,0-.57.12,1.27,1.27,0,0,0-.42.3,1.32,1.32,0,0,0-.25.44,1.57,1.57,0,0,0-.09.52v3.28a1.61,1.61,0,0,0,.09.53,1.37,1.37,0,0,0,.25.45,1.21,1.21,0,0,0,.42.31,1.32,1.32,0,0,0,.57.12,1.3,1.3,0,0,0,.82-0.25,1.23,1.23,0,0,0,.44-0.69Z" transform="translate(25.85 257.39)"/><path d="M289.3-190.57v6.88h-0.92v-6.88h-1.76v-0.83h4.44v0.83H289.3Z" transform="translate(25.85 257.39)"/><path d="M296.51-185.94a2.62,2.62,0,0,1-.17,1,2.13,2.13,0,0,1-.46.73,2,2,0,0,1-.71.47,2.52,2.52,0,0,1-.91.16,2.47,2.47,0,0,1-1-.2,1.9,1.9,0,0,1-.7-0.54,2.13,2.13,0,0,1-.39-0.78,3.5,3.5,0,0,1-.12-0.93v-3.09a2.8,2.8,0,0,1,.12-0.8,2.16,2.16,0,0,1,.39-0.74,2,2,0,0,1,.7-0.54,2.38,2.38,0,0,1,1.05-.21,2.37,2.37,0,0,1,1,.2,2,2,0,0,1,.7.53,2.15,2.15,0,0,1,.41.74,2.67,2.67,0,0,1,.13.83v3.22Zm-0.94-3.21a1.78,1.78,0,0,0-.06-0.42,1.47,1.47,0,0,0-.21-0.47,1.35,1.35,0,0,0-.41-0.38,1.22,1.22,0,0,0-.66-0.16,1.29,1.29,0,0,0-.66.15,1.33,1.33,0,0,0-.41.37,1.32,1.32,0,0,0-.22.47,2,2,0,0,0-.06.46v3a2.61,2.61,0,0,0,.07.63,1.35,1.35,0,0,0,.24.51,1.18,1.18,0,0,0,.43.34,1.42,1.42,0,0,0,.63.13,1.37,1.37,0,0,0,.51-0.09,1.15,1.15,0,0,0,.41-0.27,1.35,1.35,0,0,0,.28-0.43,1.49,1.49,0,0,0,.11-0.58v-3.3Z" transform="translate(25.85 257.39)"/><path d="M302.6-189.09a3,3,0,0,1-.12.86,2,2,0,0,1-.38.73,1.88,1.88,0,0,1-.68.51,2.43,2.43,0,0,1-1,.19h-1.32v3.1h-0.92v-7.71h2.19a2.29,2.29,0,0,1,1.66.57A2.33,2.33,0,0,1,302.6-189.09Zm-0.93,0a1.64,1.64,0,0,0-.31-1.05,1.25,1.25,0,0,0-1-.39h-1.25v2.88h1.26a1.48,1.48,0,0,0,.64-0.12,1.12,1.12,0,0,0,.41-0.32,1.17,1.17,0,0,0,.22-0.46A2.35,2.35,0,0,0,301.67-189.1Z" transform="translate(25.85 257.39)"/><path d="M307.25-183.7l-0.49-1.75H304.3l-0.48,1.75h-0.94l2.24-7.71H306l2.25,7.71h-1ZM306-188.27L305.56-190h0l-0.43,1.69-0.56,2h2Z" transform="translate(25.85 257.39)"/><path d="M313-183.7v-3.51h-2.6v3.51h-0.92v-7.71h0.92V-188H313v-3.39h0.93v7.71H313Z" transform="translate(25.85 257.39)"/><path d="M318.52-183.23h-0.7l2.42-8.49h0.7Z" transform="translate(25.85 257.39)"/><path d="M328.34-183.7v-6.9h-2.54v6.9h-0.92v-7.71h4.38v7.71h-0.93Z" transform="translate(25.85 257.39)"/><path d="M334.87-183.7l-0.49-1.75h-2.46l-0.48,1.75h-0.94l2.24-7.71h0.83l2.25,7.71h-1Zm-1.26-4.57L333.18-190h0l-0.43,1.69-0.56,2h2Z" transform="translate(25.85 257.39)"/><path d="M341.51-189.09a3,3,0,0,1-.12.86,2,2,0,0,1-.38.73,1.88,1.88,0,0,1-.68.51,2.43,2.43,0,0,1-1,.19H338v3.1h-0.92v-7.71h2.19a2.29,2.29,0,0,1,1.66.57A2.33,2.33,0,0,1,341.51-189.09Zm-0.93,0a1.64,1.64,0,0,0-.31-1.05,1.25,1.25,0,0,0-1-.39H338v2.88h1.26a1.48,1.48,0,0,0,.64-0.12,1.12,1.12,0,0,0,.41-0.32,1.17,1.17,0,0,0,.22-0.46A2.35,2.35,0,0,0,340.58-189.1Z" transform="translate(25.85 257.39)"/><path d="M342.82-183.7v-7.7h0.93V-188h0.82a2.17,2.17,0,0,0,.37,0,1,1,0,0,0,.37-0.15,1.21,1.21,0,0,0,.34-0.34,2.15,2.15,0,0,0,.27-0.6l0.62-2.23h0.88l-0.6,2.26a3.25,3.25,0,0,1-.41.95,1.21,1.21,0,0,1-.61.5,1.28,1.28,0,0,1,.71.55,3.4,3.4,0,0,1,.39,1l0.65,2.47h-1L346-186a2.22,2.22,0,0,0-.25-0.62,1.27,1.27,0,0,0-.33-0.37,0.94,0.94,0,0,0-.38-0.17,2.1,2.1,0,0,0-.41,0h-0.87v3.51h-0.93Z" transform="translate(25.85 257.39)"/><path class="cls-2" d="M124-190h-0.68v-2.13l0.43-.07a1.55,1.55,0,0,0,.41-0.44,2.29,2.29,0,0,0,.27-0.7,8,8,0,0,0,.15-1.07q0.06-.64.09-1.56l0.1-3.31h4v7.09h0.52V-190h-0.68v-1.56H124V-190Zm1.43-8.62-0.1,2.91q0,0.65-.07,1.19t-0.12,1a4.32,4.32,0,0,1-.19.78,2.53,2.53,0,0,1-.3.59h3.41v-6.46h-2.64Z" transform="translate(25.85 257.39)"/><path class="cls-2" d="M134.94-193.79a2.56,2.56,0,0,1-.16.92,2.09,2.09,0,0,1-.45.71,2.07,2.07,0,0,1-.7.46,2.35,2.35,0,0,1-.9.17,2.49,2.49,0,0,1-1-.18,1.91,1.91,0,0,1-.7-0.5,2.06,2.06,0,0,1-.41-0.75,3.1,3.1,0,0,1-.13-0.92v-3.24a2.57,2.57,0,0,1,.13-0.82,2.1,2.1,0,0,1,.4-0.71,1.94,1.94,0,0,1,.69-0.5,2.45,2.45,0,0,1,1-.19,2.31,2.31,0,0,1,1,.18,2.1,2.1,0,0,1,.69.49,2,2,0,0,1,.43.71,2.51,2.51,0,0,1,.14.85v3.33Zm-0.73-3.32a1.85,1.85,0,0,0-.08-0.53,1.53,1.53,0,0,0-.26-0.5,1.42,1.42,0,0,0-.46-0.38,1.45,1.45,0,0,0-.68-0.15,1.58,1.58,0,0,0-.69.14,1.43,1.43,0,0,0-.48.36,1.44,1.44,0,0,0-.28.5,1.87,1.87,0,0,0-.09.56v3.25a2.32,2.32,0,0,0,.09.68,1.48,1.48,0,0,0,.29.54,1.35,1.35,0,0,0,.48.35,1.67,1.67,0,0,0,.68.13,1.46,1.46,0,0,0,.58-0.12,1.4,1.4,0,0,0,.47-0.33,1.5,1.5,0,0,0,.31-0.5,1.71,1.71,0,0,0,.11-0.62v-3.38Z" transform="translate(25.85 257.39)"/><path class="cls-2" d="M141.46-191.59h-0.69v-7l-1.11.8v-0.74l1.08-.8h0.7v7.71Z" transform="translate(25.85 257.39)"/><path class="cls-2" d="M147.94-193.71a3,3,0,0,1-.16,1,1.83,1.83,0,0,1-.41.68,1.53,1.53,0,0,1-.6.37,2.19,2.19,0,0,1-.71.12,2.17,2.17,0,0,1-.71-0.12,1.58,1.58,0,0,1-.6-0.37,1.73,1.73,0,0,1-.41-0.68,3.08,3.08,0,0,1-.15-1,2.64,2.64,0,0,1,.24-1.25,1.4,1.4,0,0,1,.68-0.64,1.42,1.42,0,0,1-.65-0.64,2.53,2.53,0,0,1-.19-1.08,2.63,2.63,0,0,1,.14-0.92,1.78,1.78,0,0,1,.39-0.64,1.54,1.54,0,0,1,.57-0.37,2,2,0,0,1,.69-0.12,2.13,2.13,0,0,1,.71.12,1.48,1.48,0,0,1,.58.37,1.73,1.73,0,0,1,.38.64,2.77,2.77,0,0,1,.14.93,2.3,2.3,0,0,1-.22,1.08,1.59,1.59,0,0,1-.61.64,1.3,1.3,0,0,1,.68.65A2.93,2.93,0,0,1,147.94-193.71Zm-1.87-1.61a1.12,1.12,0,0,0-.85.35,1.72,1.72,0,0,0-.33,1.19,1.82,1.82,0,0,0,.33,1.24,1.1,1.1,0,0,0,.85.36,1,1,0,0,0,.88-0.39,2.08,2.08,0,0,0,.28-1.21,1.8,1.8,0,0,0-.31-1.2A1.08,1.08,0,0,0,146.06-195.31Zm0-3.41q-1.12,0-1.12,1.44a1.58,1.58,0,0,0,.29,1.05,1,1,0,0,0,.83.34,1,1,0,0,0,.82-0.34,1.66,1.66,0,0,0,.29-1.08Q147.17-198.72,146.06-198.72Z" transform="translate(25.85 257.39)"/><path class="cls-2" d="M157.31-191.59v-6h0l-0.87,2.1-1,2.34h-0.51l-0.2-.48-0.31-.7L154-195l-0.21-.48L153-197.53h0v5.92h-0.7v-7.71H153l0.14,0.35,0.22,0.51,0.26,0.59,0.26,0.59,0.22,0.51,0.15,0.35,0.89,2.15h0l0.92-2.17,1.25-2.89H158v7.71h-0.7Z" transform="translate(25.85 257.39)"/><path class="cls-2" d="M159.84-191.59v-7.71h4v0.66h-3.3v2.8h2.83v0.64h-2.83v2.91h3.3v0.69h-4Z" transform="translate(25.85 257.39)"/><path class="cls-2" d="M169.37-193a1.79,1.79,0,0,1-.75,1.12,2.37,2.37,0,0,1-1.34.38,2.42,2.42,0,0,1-.92-0.17,2,2,0,0,1-.69-0.46,2,2,0,0,1-.44-0.71,2.64,2.64,0,0,1-.15-0.91v-3.34a2.64,2.64,0,0,1,.15-0.9,2,2,0,0,1,.43-0.71,2,2,0,0,1,.69-0.46,2.46,2.46,0,0,1,.93-0.17,2.34,2.34,0,0,1,1.33.38,1.83,1.83,0,0,1,.76,1.09l-0.69.25a1.28,1.28,0,0,0-.48-0.77,1.5,1.5,0,0,0-.93-0.28,1.6,1.6,0,0,0-.64.12,1.39,1.39,0,0,0-.48.33,1.42,1.42,0,0,0-.29.49,1.8,1.8,0,0,0-.1.6v3.38a1.75,1.75,0,0,0,.11.61,1.46,1.46,0,0,0,.3.5,1.39,1.39,0,0,0,.47.33,1.54,1.54,0,0,0,.63.12,1.51,1.51,0,0,0,.92-0.28,1.33,1.33,0,0,0,.5-0.81Z" transform="translate(25.85 257.39)"/><path class="cls-2" d="M174.31-195.11H173a1.78,1.78,0,0,0-.41,0,1,1,0,0,0-.39.19,1.37,1.37,0,0,0-.33.38,2.32,2.32,0,0,0-.25.63l-0.54,2.27h-0.74l0.56-2.36a3.31,3.31,0,0,1,.32-0.84,1.22,1.22,0,0,1,.6-0.52,1.68,1.68,0,0,1-.56-0.28,1.37,1.37,0,0,1-.36-0.41,1.84,1.84,0,0,1-.19-0.53,2.83,2.83,0,0,1-.06-0.59,2.28,2.28,0,0,1,.54-1.58,2,2,0,0,1,1.56-.6H175v7.71h-0.7v-3.52Zm-2.92-2a1.24,1.24,0,0,0,.42,1,1.77,1.77,0,0,0,1.11.32h1.4v-2.9h-1.4a1.49,1.49,0,0,0-1.13.41A1.56,1.56,0,0,0,171.39-197.12Z" transform="translate(25.85 257.39)"/><path class="cls-2" d="M181.12-191.59h-4.23v-7.71h0.72v7h2.92v-7h0.72v7.05h0.54V-190h-0.68v-1.56Z" transform="translate(25.85 257.39)"/><path class="cls-2" d="M183.2-191.59v-7.71h4v0.66h-3.3v2.8h2.83v0.64H183.9v2.91h3.3v0.69h-4Z" transform="translate(25.85 257.39)"/><path class="cls-2" d="M193-193.78a2.2,2.2,0,0,1-.56,1.64,2,2,0,0,1-1.48.55H188.6v-7.71h2.21a2,2,0,0,1,1.55.54,2,2,0,0,1,.5,1.44,2.26,2.26,0,0,1-.21,1,1.51,1.51,0,0,1-.81.71v0a1.33,1.33,0,0,1,.53.26,1.62,1.62,0,0,1,.37.43,1.75,1.75,0,0,1,.2.54A3,3,0,0,1,193-193.78Zm-3.7-4.88v2.73h1.47a1.35,1.35,0,0,0,1.05-.37,1.44,1.44,0,0,0,.34-1,1.38,1.38,0,0,0-.35-1,1.43,1.43,0,0,0-1.08-.37H189.3Zm0,3.38v3h1.55a1.64,1.64,0,0,0,.67-0.12,1.14,1.14,0,0,0,.44-0.33,1.3,1.3,0,0,0,.24-0.49,2.44,2.44,0,0,0,.07-0.6,1.6,1.6,0,0,0-.33-1,1.29,1.29,0,0,0-1.06-.41H189.3Z" transform="translate(25.85 257.39)"/><path class="cls-2" d="M197.18-191.59v-7.71H201v0.66h-3.13V-196h1.47a2.8,2.8,0,0,1,1,.16,1.79,1.79,0,0,1,.68.45,1.81,1.81,0,0,1,.39.68,2.71,2.71,0,0,1,.13.85,2.24,2.24,0,0,1-.57,1.66,2.23,2.23,0,0,1-1.64.57h-2.16Zm3.64-2.21a2,2,0,0,0-.08-0.58,1.21,1.21,0,0,0-.27-0.47,1.29,1.29,0,0,0-.47-0.32,1.84,1.84,0,0,0-.69-0.12h-1.43v3h1.44a1.45,1.45,0,0,0,1.14-.4A1.64,1.64,0,0,0,200.83-193.81Z" transform="translate(25.85 257.39)"/><path class="cls-2" d="M203-191.59v-7.71h4v0.66h-3.3v2.8h2.83v0.64h-2.83v2.91H207v0.69h-4Z" transform="translate(25.85 257.39)"/><path class="cls-2" d="M210.06-191.53a2.92,2.92,0,0,1-.79-0.1,2,2,0,0,1-.65-0.31,1.86,1.86,0,0,1-.48-0.51,1.88,1.88,0,0,1-.26-0.71l0.13,0,0.21-.07,0.2-.07,0.13,0a1.42,1.42,0,0,0,.54.92,1.63,1.63,0,0,0,1,.3,1.49,1.49,0,0,0,1.12-.41,1.72,1.72,0,0,0,.41-1.22,1.71,1.71,0,0,0-.34-1.15,1.15,1.15,0,0,0-.92-0.4h-0.72V-196h0.69a1.11,1.11,0,0,0,.91-0.39,1.6,1.6,0,0,0,.32-1,1.41,1.41,0,0,0-.1-0.57,1.13,1.13,0,0,0-.29-0.4,1.17,1.17,0,0,0-.44-0.24,1.85,1.85,0,0,0-.54-0.08,1.53,1.53,0,0,0-1,.32,1.46,1.46,0,0,0-.53.85l-0.68-.23a1.83,1.83,0,0,1,.28-0.68,2.08,2.08,0,0,1,.49-0.51,2.08,2.08,0,0,1,.65-0.32,2.72,2.72,0,0,1,.77-0.11,2.19,2.19,0,0,1,1.54.49,1.86,1.86,0,0,1,.53,1.43,2.8,2.8,0,0,1,0,.46,2.33,2.33,0,0,1-.15.51,1.72,1.72,0,0,1-.28.45,1.15,1.15,0,0,1-.45.32v0a1.36,1.36,0,0,1,.54.36,1.69,1.69,0,0,1,.3.49,2,2,0,0,1,.13.53,4.74,4.74,0,0,1,0,.48,2.29,2.29,0,0,1-.59,1.67A2.24,2.24,0,0,1,210.06-191.53Z" transform="translate(25.85 257.39)"/><path class="cls-2" d="M218.8-195.77a1.15,1.15,0,0,1-.09.48,1,1,0,0,1-.26.35,1.17,1.17,0,0,1-.39.22,1.4,1.4,0,0,1-.47.08,1.31,1.31,0,0,1-.86-0.3,1,1,0,0,1-.36-0.83v-2.44a1,1,0,0,1,.36-0.83,1.3,1.3,0,0,1,.87-0.3,1.28,1.28,0,0,1,.86.3,1,1,0,0,1,.35.83v2.44Zm-0.58-2.42a0.62,0.62,0,0,0-.18-0.45,0.63,0.63,0,0,0-.47-0.18,0.66,0.66,0,0,0-.48.18,0.6,0.6,0,0,0-.18.45v2.41a0.62,0.62,0,0,0,.18.46,0.66,0.66,0,0,0,.48.18,0.63,0.63,0,0,0,.47-0.18,0.63,0.63,0,0,0,.18-0.46v-2.41Zm-0.63,6.79h-0.51l4.09-8.09h0.52Zm4.86-1.25a1.06,1.06,0,0,1-.1.47,1.07,1.07,0,0,1-.27.35,1.12,1.12,0,0,1-.38.22,1.46,1.46,0,0,1-.46.07,1.51,1.51,0,0,1-.47-0.07,1.11,1.11,0,0,1-.39-0.22,1.08,1.08,0,0,1-.27-0.35,1.06,1.06,0,0,1-.1-0.47v-2.49a1,1,0,0,1,.1-0.46,1.1,1.1,0,0,1,.27-0.34,1.12,1.12,0,0,1,.39-0.22,1.5,1.5,0,0,1,.47-0.07,1.45,1.45,0,0,1,.46.07,1.13,1.13,0,0,1,.38.22,1.09,1.09,0,0,1,.27.34,1,1,0,0,1,.1.46v2.49Zm-0.58-2.48a0.56,0.56,0,0,0-.18-0.44,0.67,0.67,0,0,0-.47-0.16,0.7,0.7,0,0,0-.48.16,0.55,0.55,0,0,0-.18.44v2.48a0.55,0.55,0,0,0,.18.44,0.72,0.72,0,0,0,.48.16,0.68,0.68,0,0,0,.47-0.16,0.56,0.56,0,0,0,.18-0.44v-2.48Z" transform="translate(25.85 257.39)"/><path class="cls-2" d="M123.85-223v-7.71h1.27v3.23h0.61a1.4,1.4,0,0,0,.34,0,1,1,0,0,0,.34-0.16,1.21,1.21,0,0,0,.3-0.33,1.93,1.93,0,0,0,.23-0.56l0.56-2.11h1.22l-0.6,2.27a2.77,2.77,0,0,1-.41.94,1.28,1.28,0,0,1-.62.49,1.37,1.37,0,0,1,.72.53,2.77,2.77,0,0,1,.39.95l0.64,2.51h-1.3L127-225.21a1.62,1.62,0,0,0-.49-0.92,1.2,1.2,0,0,0-.73-0.23h-0.66V-223h-1.27Z" transform="translate(25.85 257.39)"/><path class="cls-2" d="M134.8-228.34a2.93,2.93,0,0,1-.14.93,2.17,2.17,0,0,1-.43.75,1.94,1.94,0,0,1-.71.5,2.57,2.57,0,0,1-1,.18h-1.13v3h-1.26v-7.71h2.32a3.07,3.07,0,0,1,1,.14,2,2,0,0,1,.74.44,1.92,1.92,0,0,1,.48.74A3,3,0,0,1,134.8-228.34Zm-1.25,0a1.26,1.26,0,0,0-.28-0.88,1.08,1.08,0,0,0-.84-0.3h-1.05v2.38h1.06a1,1,0,0,0,.84-0.33A1.32,1.32,0,0,0,133.55-228.37Z" transform="translate(25.85 257.39)"/><path class="cls-2" d="M136.11-223v-7.71h4.28v1.17h-3v2.06H140v1.15h-2.6v2.13h3v1.2h-4.28Z" transform="translate(25.85 257.39)"/><path class="cls-2" d="M142.33-221.43h-1.1v-2.62l0.28,0,0.28-.06a1.57,1.57,0,0,0,.38-0.49,2.8,2.8,0,0,0,.22-0.68,6.84,6.84,0,0,0,.12-1q0-.55.06-1.29l0.11-3.14h4.25q0,1.65,0,3.29t0,3.29h0.61v2.71h-1.1V-223h-4.12v1.58Zm3.35-2.71v-5.43h-1.9l-0.09,2.31q0,0.5,0,1t-0.07.86a5.28,5.28,0,0,1-.14.73,1.89,1.89,0,0,1-.24.56h2.49Z" transform="translate(25.85 257.39)"/><path class="cls-2" d="M148.92-223v-7.71h1.25v5.16h0q0.25-.48.48-1l0.46-1,0.83-1.63,0.82-1.64H154V-223h-1.26v-5h0l-0.38.74-0.38.74L150.12-223h-1.2Z" transform="translate(25.85 257.39)"/><path class="cls-2" d="M158.06-229.57V-223h-1.26v-6.55H155.1v-1.15h4.66v1.15h-1.71Z" transform="translate(25.85 257.39)"/><path class="cls-2" d="M168.44-225.35a2.74,2.74,0,0,1-.17,1,2.17,2.17,0,0,1-.49.76,2.13,2.13,0,0,1-.75.48,2.63,2.63,0,0,1-1,.17,2.63,2.63,0,0,1-1.08-.2,2,2,0,0,1-.74-0.55,2.27,2.27,0,0,1-.42-0.81,3.46,3.46,0,0,1-.13-1v-2.91a2.87,2.87,0,0,1,.13-0.83,2.2,2.2,0,0,1,.41-0.76,2.18,2.18,0,0,1,.73-0.56,2.47,2.47,0,0,1,1.1-.22,2.43,2.43,0,0,1,1.05.21,2.23,2.23,0,0,1,.74.55,2.18,2.18,0,0,1,.43.76,2.76,2.76,0,0,1,.14.86v3Zm-1.28-3.06a1.39,1.39,0,0,0,0-.34,1.17,1.17,0,0,0-.17-0.37,1.08,1.08,0,0,0-.33-0.31,1,1,0,0,0-.53-0.13,1.11,1.11,0,0,0-.54.12,1,1,0,0,0-.34.29,1.13,1.13,0,0,0-.18.37,1.42,1.42,0,0,0-.06.38v3a1.63,1.63,0,0,0,.25.93,1,1,0,0,0,.86.38,1.06,1.06,0,0,0,.75-0.29,1,1,0,0,0,.32-0.8v-3.17Z" transform="translate(25.85 257.39)"/><path class="cls-2" d="M172.37-229.57V-223h-1.26v-6.55h-1.69v-1.15h4.66v1.15h-1.71Z" transform="translate(25.85 257.39)"/><path class="cls-2" d="M180.19-226.29a0.71,0.71,0,0,1-.24.08l-0.26,0a1.43,1.43,0,0,1-.68-0.15,1.35,1.35,0,0,1-.49-0.44,2,2,0,0,1-.29-0.67,3.67,3.67,0,0,1-.09-0.86,4.17,4.17,0,0,1,.12-1,2,2,0,0,1,.37-0.77,1.64,1.64,0,0,1,.64-0.49,2.29,2.29,0,0,1,.93-0.17,1.79,1.79,0,0,1,1.52.6,2.73,2.73,0,0,1,.45,1.68,4.54,4.54,0,0,1-.11,1,4,4,0,0,1-.27.83L180.12-223h-1.34l1.44-3.26Zm0-.92a0.59,0.59,0,0,0,.58-0.33,2.14,2.14,0,0,0,.17-0.89,2.1,2.1,0,0,0-.15-0.88,0.59,0.59,0,0,0-.59-0.32,0.67,0.67,0,0,0-.61.29,1.92,1.92,0,0,0-.19,1,1.8,1.8,0,0,0,.16.81A0.63,0.63,0,0,0,180.17-227.21Z" transform="translate(25.85 257.39)"/><path class="cls-2" d="M183.76-223v-1.44h1.37V-223h-1.37Z" transform="translate(25.85 257.39)"/><path class="cls-2" d="M188.16-227.82a1.19,1.19,0,0,1,.52-0.29,2.18,2.18,0,0,1,.5-0.07,1.63,1.63,0,0,1,.83.19,1.36,1.36,0,0,1,.5.51,2.2,2.2,0,0,1,.25.76,6.41,6.41,0,0,1,.07,1,6.35,6.35,0,0,1-.1,1.19,2.46,2.46,0,0,1-.33.88,1.51,1.51,0,0,1-.62.55,2.23,2.23,0,0,1-1,.19,2.82,2.82,0,0,1-.79-0.1,1.63,1.63,0,0,1-.63-0.34A1.59,1.59,0,0,1,187-224a3.06,3.06,0,0,1-.19-1l1.23-.08a1.13,1.13,0,0,0,.22.73,0.74,0.74,0,0,0,.58.22,0.65,0.65,0,0,0,.43-0.13,0.8,0.8,0,0,0,.23-0.36,2.07,2.07,0,0,0,.1-0.51q0-.28,0-0.58t0-.52a1.56,1.56,0,0,0-.1-0.44,0.73,0.73,0,0,0-.23-0.31,0.66,0.66,0,0,0-.42-0.12,0.82,0.82,0,0,0-.43.12,0.83,0.83,0,0,0-.33.41H187v-4.17h3.75v1.14h-2.61l0,1.76h0Z" transform="translate(25.85 257.39)"/><path class="cls-2" d="M195-227.3a1.16,1.16,0,0,1-.11.51,1.22,1.22,0,0,1-.29.39,1.24,1.24,0,0,1-.43.24,1.59,1.59,0,0,1-.52.08,1.56,1.56,0,0,1-.51-0.08,1.25,1.25,0,0,1-.43-0.24,1.22,1.22,0,0,1-.29-0.39,1.15,1.15,0,0,1-.11-0.51v-2.24a1.21,1.21,0,0,1,.1-0.51,1.16,1.16,0,0,1,.29-0.39,1.25,1.25,0,0,1,.43-0.24,1.6,1.6,0,0,1,.52-0.08,1.45,1.45,0,0,1,1,.33,1.11,1.11,0,0,1,.39.9v2.24Zm-1,4.47h-0.82l4.1-8.08h0.82Zm0-6.7a0.42,0.42,0,0,0-.11-0.3,0.41,0.41,0,0,0-.31-0.12,0.43,0.43,0,0,0-.32.12,0.41,0.41,0,0,0-.12.3v2.21a0.4,0.4,0,0,0,.12.3,0.43,0.43,0,0,0,.31.12A0.41,0.41,0,0,0,194-227a0.41,0.41,0,0,0,.12-0.3v-2.21Zm5.09,5.35a1.12,1.12,0,0,1-.11.51,1.11,1.11,0,0,1-.29.37,1.34,1.34,0,0,1-.43.23,1.62,1.62,0,0,1-.51.08,1.58,1.58,0,0,1-.51-0.08,1.36,1.36,0,0,1-.43-0.23,1.11,1.11,0,0,1-.29-0.37,1.12,1.12,0,0,1-.11-0.51v-2.29a1.13,1.13,0,0,1,.11-0.5,1.16,1.16,0,0,1,.29-0.38,1.31,1.31,0,0,1,.43-0.24,1.56,1.56,0,0,1,.51-0.08,1.59,1.59,0,0,1,.52.08,1.3,1.3,0,0,1,.43.24,1.16,1.16,0,0,1,.29.38,1.14,1.14,0,0,1,.11.5v2.29Zm-0.93-2.27a0.39,0.39,0,0,0-.11-0.29,0.43,0.43,0,0,0-.31-0.11,0.45,0.45,0,0,0-.32.11,0.38,0.38,0,0,0-.12.29v2.25a0.37,0.37,0,0,0,.12.29,0.46,0.46,0,0,0,.31.1,0.44,0.44,0,0,0,.3-0.1,0.38,0.38,0,0,0,.12-0.29v-2.25Z" transform="translate(25.85 257.39)"/><path class="cls-2" d="M128.56-208a2.94,2.94,0,0,1-.14.93,2.18,2.18,0,0,1-.43.75,1.93,1.93,0,0,1-.71.5,2.57,2.57,0,0,1-1,.18h-1.13v3h-1.26v-7.71h2.32a3.08,3.08,0,0,1,1,.14,2,2,0,0,1,.74.44,1.92,1.92,0,0,1,.48.74A3,3,0,0,1,128.56-208Zm-1.25,0a1.26,1.26,0,0,0-.28-0.88,1.08,1.08,0,0,0-.84-0.3h-1.05v2.38h1.06a1,1,0,0,0,.84-0.33A1.32,1.32,0,0,0,127.31-208Z" transform="translate(25.85 257.39)"/><path class="cls-2" d="M132.7-204.34h-2.14c0,0.07,0,.18-0.09.33l-0.14.5-0.13.5c0,0.15-.07.27-0.09,0.33h-1.32l2.23-7.71h1.22l2.24,7.71h-1.34ZM131.24-207l-0.4,1.55h1.57L132-207l-0.07-.33-0.11-.49-0.12-.48a2.86,2.86,0,0,1-.07-0.33H131.6Z" transform="translate(25.85 257.39)"/><path class="cls-2" d="M140.14-204.32a2.09,2.09,0,0,1-.8,1.26,2.42,2.42,0,0,1-1.47.45,2.65,2.65,0,0,1-1-.19,2.06,2.06,0,0,1-.74-0.52,2.11,2.11,0,0,1-.44-0.78,3.15,3.15,0,0,1-.14-1v-3a2.77,2.77,0,0,1,.14-0.89,2.19,2.19,0,0,1,.44-0.76,2.13,2.13,0,0,1,.74-0.53,2.55,2.55,0,0,1,1.05-.2,2.27,2.27,0,0,1,1.51.49,2.31,2.31,0,0,1,.77,1.22l-1.21.4a1.27,1.27,0,0,0-.11-0.32,1,1,0,0,0-.21-0.28,1,1,0,0,0-.32-0.21,1.15,1.15,0,0,0-.43-0.08,1.12,1.12,0,0,0-.49.1,1,1,0,0,0-.34.26,1.09,1.09,0,0,0-.2.36,1.25,1.25,0,0,0-.07.4V-205a1.6,1.6,0,0,0,.07.46,1.09,1.09,0,0,0,.2.39,1,1,0,0,0,.34.26,1.13,1.13,0,0,0,.48.09,1.08,1.08,0,0,0,.7-0.23,1,1,0,0,0,.37-0.64Z" transform="translate(25.85 257.39)"/><path class="cls-2" d="M146-204.32a2.09,2.09,0,0,1-.8,1.26,2.42,2.42,0,0,1-1.47.45,2.65,2.65,0,0,1-1-.19,2.06,2.06,0,0,1-.74-0.52,2.11,2.11,0,0,1-.44-0.78,3.15,3.15,0,0,1-.14-1v-3a2.77,2.77,0,0,1,.14-0.89,2.19,2.19,0,0,1,.44-0.76,2.13,2.13,0,0,1,.74-0.53,2.55,2.55,0,0,1,1.05-.2,2.27,2.27,0,0,1,1.51.49,2.31,2.31,0,0,1,.77,1.22l-1.21.4a1.27,1.27,0,0,0-.11-0.32,1,1,0,0,0-.21-0.28,1,1,0,0,0-.32-0.21,1.15,1.15,0,0,0-.43-0.08,1.12,1.12,0,0,0-.49.1,1,1,0,0,0-.34.26,1.09,1.09,0,0,0-.2.36,1.25,1.25,0,0,0-.07.4V-205a1.6,1.6,0,0,0,.07.46,1.09,1.09,0,0,0,.2.39,1,1,0,0,0,.34.26,1.13,1.13,0,0,0,.48.09,1.08,1.08,0,0,0,.7-0.23,1,1,0,0,0,.37-0.64Z" transform="translate(25.85 257.39)"/><path class="cls-2" d="M152.12-208a2.94,2.94,0,0,1-.14.93,2.18,2.18,0,0,1-.43.75,1.93,1.93,0,0,1-.71.5,2.57,2.57,0,0,1-1,.18H148.7v3h-1.26v-7.71h2.32a3.08,3.08,0,0,1,1,.14,2,2,0,0,1,.74.44,1.92,1.92,0,0,1,.48.74A3,3,0,0,1,152.12-208Zm-1.25,0a1.26,1.26,0,0,0-.28-0.88,1.08,1.08,0,0,0-.84-0.3H148.7v2.38h1.06a1,1,0,0,0,.84-0.33A1.32,1.32,0,0,0,150.87-208Z" transform="translate(25.85 257.39)"/><path class="cls-2" d="M157.94-205a2.74,2.74,0,0,1-.17,1,2.18,2.18,0,0,1-.49.76,2.13,2.13,0,0,1-.75.48,2.64,2.64,0,0,1-1,.17,2.62,2.62,0,0,1-1.08-.21,2,2,0,0,1-.74-0.55,2.27,2.27,0,0,1-.42-0.81,3.45,3.45,0,0,1-.13-1v-2.91a2.88,2.88,0,0,1,.13-0.83,2.19,2.19,0,0,1,.41-0.76,2.18,2.18,0,0,1,.73-0.56,2.47,2.47,0,0,1,1.1-.22,2.44,2.44,0,0,1,1.05.21,2.22,2.22,0,0,1,.74.55,2.17,2.17,0,0,1,.43.76,2.76,2.76,0,0,1,.14.86v3Zm-1.28-3.06a1.38,1.38,0,0,0,0-.34,1.17,1.17,0,0,0-.17-0.37,1.08,1.08,0,0,0-.33-0.3,1,1,0,0,0-.53-0.13,1.11,1.11,0,0,0-.54.12,1,1,0,0,0-.34.29,1.12,1.12,0,0,0-.18.37,1.42,1.42,0,0,0-.06.38v3a1.62,1.62,0,0,0,.25.93,1,1,0,0,0,.86.38,1.06,1.06,0,0,0,.75-0.29,1,1,0,0,0,.32-0.8v-3.17Z" transform="translate(25.85 257.39)"/><path class="cls-2" d="M160.65-210.38v2.19a2,2,0,0,0,.25,1.14,1,1,0,0,0,.81.33,2.2,2.2,0,0,0,.51-0.07,2,2,0,0,0,.55-0.23v-3.36H164v7.71h-1.26v-3.25a2.54,2.54,0,0,1-.65.22,3.57,3.57,0,0,1-.71.07,1.92,1.92,0,0,1-1.51-.57,2.74,2.74,0,0,1-.51-1.86v-2.33h1.25Z" transform="translate(25.85 257.39)"/><path class="cls-2" d="M165.84-202.68v-7.71h1.27v3.23h0.61a1.42,1.42,0,0,0,.34,0,1,1,0,0,0,.34-0.16,1.21,1.21,0,0,0,.3-0.33,1.93,1.93,0,0,0,.23-0.56l0.56-2.12h1.22l-0.6,2.27a2.78,2.78,0,0,1-.41.94,1.28,1.28,0,0,1-.62.49,1.37,1.37,0,0,1,.72.53,2.76,2.76,0,0,1,.39.95l0.64,2.51h-1.3L169-204.87a1.62,1.62,0,0,0-.49-0.92,1.2,1.2,0,0,0-.73-0.23h-0.66v3.34h-1.27Z" transform="translate(25.85 257.39)"/><path class="cls-2" d="M175.38-204.34h-2.14c0,0.07,0,.18-0.09.33l-0.14.5-0.13.5c0,0.15-.07.27-0.09,0.33h-1.32l2.23-7.71h1.22l2.24,7.71h-1.34ZM173.92-207l-0.4,1.55h1.57L174.71-207l-0.07-.33-0.11-.49-0.12-.48a2.86,2.86,0,0,1-.07-0.33h-0.06Z" transform="translate(25.85 257.39)"/><rect class="cls-3" x="130.51" y="19.23" width="1" height="53.54"/><rect class="cls-3" x="167.46" y="-261.27" width="1" height="88.57" transform="translate(410.79 208.37) rotate(-90)"/></svg>