<?xml version="1.0" encoding="utf-8"?>
<!-- Generator: Adobe Illustrator 23.0.3, SVG Export Plug-In . SVG Version: 6.00 Build 0)  -->
<svg version="1.1" id="Слой_1" xmlns="http://www.w3.org/2000/svg" xmlns:xlink="http://www.w3.org/1999/xlink" x="0px" y="0px"
	 viewBox="0 0 92.5 14" style="enable-background:new 0 0 92.5 14;" xml:space="preserve">
<style type="text/css">
	.st0{fill:#48403C;}
</style>
<polygon class="st0" points="77.5,4.3 72.9,13.6 82.2,13.6 "/>
<path class="st0" d="M65.8,12.9h1.7l-0.9-1.2L65.8,12.9z M71.6,13.6h-0.7V5.7l-3.8,5.3l1.4,2l-0.3,0.6H65L64.7,13l1.4-2l-3.8-5.3
	v7.9h-0.7V4.6l0.7-0.2l4.4,6.1L71,4.3l0.7,0.2V13.6z"/>
<path class="st0" d="M84.1,6.2c0.5,0,0.9-0.4,0.9-0.9c0-0.5-0.4-0.9-0.9-0.9c-0.5,0-0.9,0.4-0.9,0.9C83.2,5.8,83.6,6.2,84.1,6.2"/>
<path class="st0" d="M91.5,11.8c-0.5,0-0.9,0.4-0.9,0.9c0,0.5,0.4,0.9,0.9,0.9c0.5,0,0.9-0.4,0.9-0.9C92.5,12.2,92.1,11.8,91.5,11.8
	"/>
<path class="st0" d="M89.6,9.9c-0.5,0-0.9,0.4-0.9,0.9c0,0.5,0.4,0.9,0.9,0.9c0.5,0,0.9-0.4,0.9-0.9C90.6,10.3,90.2,9.9,89.6,9.9"/>
<path class="st0" d="M86,8.1c0.5,0,0.9-0.4,0.9-0.9c0-0.5-0.4-0.9-0.9-0.9c-0.5,0-0.9,0.4-0.9,0.9C85,7.6,85.4,8.1,86,8.1"/>
<path class="st0" d="M91.5,6.2c0.5,0,0.9-0.4,0.9-0.9c0-0.5-0.4-0.9-0.9-0.9c-0.5,0-0.9,0.4-0.9,0.9C90.6,5.8,91,6.2,91.5,6.2"/>
<path class="st0" d="M84.1,11.8c-0.5,0-0.9,0.4-0.9,0.9c0,0.5,0.4,0.9,0.9,0.9c0.5,0,0.9-0.4,0.9-0.9C85,12.2,84.6,11.8,84.1,11.8"
	/>
<path class="st0" d="M87.8,8c-0.5,0-0.9,0.4-0.9,0.9c0,0.5,0.4,0.9,0.9,0.9c0.5,0,0.9-0.4,0.9-0.9C88.8,8.5,88.3,8,87.8,8"/>
<path class="st0" d="M85.9,9.9c-0.5,0-0.9,0.4-0.9,0.9c0,0.5,0.4,0.9,0.9,0.9c0.5,0,0.9-0.4,0.9-0.9C86.9,10.3,86.4,9.9,85.9,9.9"/>
<path class="st0" d="M89.7,8.1c0.5,0,0.9-0.4,0.9-0.9c0-0.5-0.4-0.9-0.9-0.9c-0.5,0-0.9,0.4-0.9,0.9C88.7,7.6,89.2,8.1,89.7,8.1"/>
<path class="st0" d="M53.1,8.9c-0.2,1.4-0.8,2.5-1.7,2.5c-0.9,0-1.2-1.1-1.1-2.5c0.2-1.4,0.8-2.5,1.6-2.5
	C52.9,6.4,53.3,7.5,53.1,8.9 M57.3,12.6c0.2-0.5-1.1,0.1-0.7-2.8c0.2-1.3,0.8-5.4,0.8-5.4c0-0.1-0.1-0.1-0.1-0.1h-3.6
	c0,0-0.1,0-0.1,0.1c0,0-0.1,0.5-0.2,1.3c-0.4-1-1.2-1.7-2.5-1.7c-2.4,0-3.9,2.2-4.2,4.7c-0.3,2.4,0.7,5.2,2.9,5.2
	c1.3,0,2.4-0.9,3.1-2.1c0.1,1.3,1,2.1,2.2,2.1C56,13.9,57,13.2,57.3,12.6 M41,4.8c0.2-0.6,0.7-2.4,1.5-2.4c0.5,0,0.5,0.3,0.5,0.5
	C42.8,4,41,4.8,41,4.8 M41.3,8.1c0.9,0.2,1.2,0.8,1.1,1.8c0,0.5-0.5,2-1.4,2c-1.3,0-0.9-2.9-0.8-3.7C40.2,8.2,40.8,8,41.3,8.1
	 M45.7,9c-0.2-2.6-3.1-3.1-5.2-2.4l0.1-0.4C48,5.4,46.8-0.1,43.1,0c-4.2,0.1-6.6,5.4-6.6,9.4c0,2.5,1.5,4.6,4.2,4.6
	C43.6,14,45.9,12,45.7,9 M34.6,13.5c0,0,1.1-8.6,1.1-9c0-0.1,0-0.1-0.1-0.1h0c-2.8-0.6-5.4-0.5-7.9,0c0,0-0.1,0-0.1,0.1
	c0,0-0.3,2.9-0.9,4.4c-1,2.6-2.2,2.8-2.2,3.1c-0.1,0.4,0.4,2,2.1,2c1.5,0,2.5-0.9,3-3.1c0.4-1.4,0.6-3,0.7-4.7h1.5
	c-0.3,2.7-0.9,7.4-0.9,7.4c0,0.1,0.1,0.1,0.1,0.1L34.6,13.5C34.5,13.6,34.6,13.6,34.6,13.5 M19.8,8.9c-0.2,1.4-0.8,2.5-1.7,2.5
	c-0.9,0-1.2-1.1-1.1-2.5c0.2-1.4,0.8-2.5,1.7-2.5C19.6,6.4,20,7.5,19.8,8.9 M24,12.6c0.2-0.5-1.1,0.1-0.7-2.8
	C23.4,8.6,24,4.4,24,4.4C24,4.3,24,4.3,24,4.3h-3.6c0,0-0.1,0-0.1,0.1c0,0-0.1,0.5-0.2,1.3c-0.4-1-1.2-1.7-2.5-1.7
	c-2.4,0-3.9,2.2-4.2,4.7c-0.3,2.4,0.7,5.2,2.9,5.2c1.3,0,2.4-0.9,3.1-2.1c0.1,1.3,1,2.1,2.2,2.1C22.6,13.9,23.7,13.2,24,12.6
	 M12.5,13.6H7.6c-0.1,0-0.1-0.1-0.1-0.1l-2-4.8c-1.7,1.2-0.8,3.2-0.4,3.6C5.2,12.5,4.3,14,2.6,14c-1.6,0-2.7-1.3-2.6-2.9
	c0.1-1.9,2.1-3.8,4.7-4.5L1.8,0.7c0,0,0-0.1,0.1-0.1h4.6c0.1,0,0.1,0.1,0.1,0.1l1.9,4.8c1.9-1.1,0.8-3.6,0.4-4
	C8.8,1.4,9.3,0.3,11,0.1c1.8-0.2,3,1.1,2.9,2.7c0,1.9-1.9,3.9-4.5,4.6L12.5,13.6C12.6,13.5,12.6,13.6,12.5,13.6"/>
</svg>
