<?xml version="1.0" encoding="utf-8"?>
<!-- Generator: Adobe Illustrator 23.0.3, SVG Export Plug-In . SVG Version: 6.00 Build 0)  -->
<svg version="1.1" id="Слой_1" xmlns="http://www.w3.org/2000/svg" xmlns:xlink="http://www.w3.org/1999/xlink" x="0px" y="0px"
	 viewBox="0 0 34.7 10.5" style="enable-background:new 0 0 34.7 10.5;" xml:space="preserve">
<style type="text/css">
	.st0{fill:#48403C;}
</style>
<polygon class="st0" points="17.9,0 12.7,10.5 23.1,10.5 "/>
<path class="st0" d="M4.7,9.7h1.9l-1-1.3L4.7,9.7z M11.3,10.5h-0.8V1.6l-4.3,6l1.6,2.2l-0.3,0.7H3.9L3.5,9.8l1.6-2.2l-4.3-6v8.9H0
	V0.3L0.8,0l4.9,6.8L10.5,0l0.8,0.2V10.5z"/>
<path class="st0" d="M25.3,2.1c0.6,0,1.1-0.5,1.1-1.1c0-0.6-0.5-1.1-1.1-1.1c-0.6,0-1.1,0.5-1.1,1.1C24.2,1.6,24.7,2.1,25.3,2.1"/>
<path class="st0" d="M33.7,8.4c-0.6,0-1.1,0.5-1.1,1.1c0,0.6,0.5,1.1,1.1,1.1c0.6,0,1.1-0.5,1.1-1.1C34.7,8.8,34.2,8.4,33.7,8.4"/>
<path class="st0" d="M31.5,6.3c-0.6,0-1.1,0.5-1.1,1.1c0,0.6,0.5,1.1,1.1,1.1c0.6,0,1.1-0.5,1.1-1.1C32.6,6.8,32.1,6.3,31.5,6.3"/>
<path class="st0" d="M27.4,4.2c0.6,0,1.1-0.5,1.1-1.1c0-0.6-0.5-1.1-1.1-1.1c-0.6,0-1.1,0.5-1.1,1.1C26.3,3.7,26.8,4.2,27.4,4.2"/>
<path class="st0" d="M33.7,2.1c0.6,0,1.1-0.5,1.1-1.1c0-0.6-0.5-1.1-1.1-1.1c-0.6,0-1.1,0.5-1.1,1.1C32.6,1.6,33.1,2.1,33.7,2.1"/>
<path class="st0" d="M25.3,8.4c-0.6,0-1.1,0.5-1.1,1.1c0,0.6,0.5,1.1,1.1,1.1c0.6,0,1.1-0.5,1.1-1.1C26.3,8.8,25.9,8.4,25.3,8.4"/>
<path class="st0" d="M29.5,4.2c-0.6,0-1.1,0.5-1.1,1.1c0,0.6,0.5,1.1,1.1,1.1c0.6,0,1.1-0.5,1.1-1.1C30.5,4.7,30.1,4.2,29.5,4.2"/>
<path class="st0" d="M27.3,6.2c-0.6,0-1.1,0.5-1.1,1.1c0,0.6,0.5,1.1,1.1,1.1c0.6,0,1.1-0.5,1.1-1.1C28.4,6.7,27.9,6.2,27.3,6.2"/>
<path class="st0" d="M31.6,4.2c0.6,0,1.1-0.5,1.1-1.1c0-0.6-0.5-1.1-1.1-1.1c-0.6,0-1.1,0.5-1.1,1.1C30.5,3.7,31,4.2,31.6,4.2"/>
</svg>
