<?xml version="1.0" encoding="utf-8"?>
<!-- Generator: Adobe Illustrator 23.0.3, SVG Export Plug-In . SVG Version: 6.00 Build 0)  -->
<svg version="1.1" id="Слой_1" xmlns="http://www.w3.org/2000/svg" xmlns:xlink="http://www.w3.org/1999/xlink" x="0px" y="0px"
	 viewBox="0 0 35 14.1" style="enable-background:new 0 0 35 14.1;" xml:space="preserve">
<style type="text/css">
	.st0{fill:#48403C;}
</style>
<polygon class="st0" points="11.3,4.1 10.7,4.9 12.5,4.9 12.5,4.1 "/>
<polygon class="st0" points="0,3.4 0.6,3.4 0,2.5 "/>
<polygon class="st0" points="11.9,3.4 12.5,3.4 12.5,2.5 "/>
<polygon class="st0" points="9.1,7.1 8.4,8 12.5,8 12.5,7.1 "/>
<polygon class="st0" points="10.2,5.6 9.6,6.4 12.5,6.4 12.5,5.6 "/>
<polygon class="st0" points="7.9,8.7 7.3,9.5 12.5,9.5 12.5,8.7 "/>
<polygon class="st0" points="0,8.7 0,9.5 5.2,9.5 4.5,8.7 "/>
<polygon class="st0" points="6.8,10.2 6.2,10.9 5.7,10.2 0,10.2 0,11 12.5,11 12.5,10.2 "/>
<rect y="11.7" class="st0" width="12.5" height="0.8"/>
<rect y="13.3" class="st0" width="12.5" height="0.8"/>
<polygon class="st0" points="0,5.6 0,6.4 2.9,6.4 2.3,5.6 "/>
<polygon class="st0" points="0,7.1 0,8 4,8 3.4,7.1 "/>
<polygon class="st0" points="0,4.1 0,4.9 1.7,4.9 1.1,4.1 "/>
<path class="st0" d="M24.1,4.2l9.3,9.3l1-1l-9.3-9.3L24.1,4.2z M33.6,14.1h-0.4l-9.7-9.7V4l1.4-1.4h0.4l9.7,9.7v0.4L33.6,14.1z"/>
<path class="st0" d="M24.1,12.4l1,1l9.3-9.3l-1-1L24.1,12.4z M25.3,14.1h-0.4l-1.4-1.4v-0.4l9.7-9.7h0.4L35,4v0.4L25.3,14.1z"/>
<rect x="16" y="6.4" class="st0" width="4.5" height="7.7"/>
<path class="st0" d="M20.7,2.5c0,1.4-1.1,2.5-2.5,2.5s-2.5-1.1-2.5-2.5c0-1.4,1.1-2.5,2.5-2.5S20.7,1.1,20.7,2.5"/>
</svg>
