<?xml version="1.0" encoding="utf-8"?>
<!-- Generator: Adobe Illustrator 23.0.3, SVG Export Plug-In . SVG Version: 6.00 Build 0)  -->
<svg version="1.1" id="Слой_1" xmlns="http://www.w3.org/2000/svg" xmlns:xlink="http://www.w3.org/1999/xlink" x="0px" y="0px"
	 viewBox="0 0 16.7 30" style="enable-background:new 0 0 16.7 30;" xml:space="preserve">
<style type="text/css">
	.st0{fill:#FFFFFF;}
</style>
<g>
	<path class="st0" d="M12.4,14.7c-0.2,0.3-0.5,1-0.9,1.8c-0.4,0.9-0.7,1.6-1,2.1c-0.3,0.5-0.6,0.9-1.1,1.4C9,20.5,8.5,20.7,8,20.7
		c-0.9,0-1.6-0.7-2.2-2C5.3,17.4,5,16,5.2,14.6c0.1-1.4,0.9-3,2.2-4.8c1.3-1.8,2-3.2,2-4c0-0.5-0.1-0.9-0.3-1.3
		C8.9,4,8.5,3.8,7.9,3.8C7,3.8,6.5,4.7,6.5,6.4c0,0.2,0,0.4,0,0.7c0,0.3,0,0.6,0,0.8c0,0.2,0,0.3-0.1,0.4C6.4,8.4,6,8.6,5.4,8.7
		C4.7,8.9,4.1,9,3.5,9C2.3,9,1.5,8.7,0.9,8.1C0.3,7.5,0,6.7,0,5.7c0-1.5,0.8-2.8,2.4-4S5.9,0,8.3,0c2.6,0,4.6,0.6,6.2,1.9
		c1.5,1.3,2.3,2.7,2.3,4.4c0,0.9-0.2,1.8-0.6,2.6c-0.4,0.8-1,1.8-1.9,2.9C13.4,12.9,12.8,13.9,12.4,14.7z M12,26.1
		c0,1.1-0.4,2-1.1,2.7C10.2,29.6,9.2,30,8.2,30c-1.1,0-2-0.4-2.7-1.1s-1.1-1.7-1.1-2.7c0-1,0.4-1.9,1.1-2.7c0.7-0.8,1.6-1.1,2.7-1.1
		c1.1,0,2,0.4,2.7,1.1C11.6,24.2,12,25.1,12,26.1z"/>
</g>
</svg>
