<?xml version="1.0" encoding="utf-8"?>
<!-- Generator: Adobe Illustrator 23.0.3, SVG Export Plug-In . SVG Version: 6.00 Build 0)  -->
<svg version="1.1" id="Слой_1" xmlns="http://www.w3.org/2000/svg" xmlns:xlink="http://www.w3.org/1999/xlink" x="0px" y="0px"
	 viewBox="0 0 10.2 30" style="enable-background:new 0 0 10.2 30;" xml:space="preserve">
<style type="text/css">
	.st0{fill:#FFFFFF;}
</style>
<g>
	<path class="st0" d="M10.2,6c0,1.9-0.1,3.9-0.4,6c-0.3,2.2-0.8,4.1-1.5,6c-0.7,1.8-1.6,2.7-2.5,2.7c-0.6,0-1.2-0.5-1.7-1.4
		c-0.5-0.9-0.8-2.1-1-3.5c-0.2-1.4-0.4-2.7-0.5-3.8c-0.1-1.1-0.2-2.2-0.2-3.3c0-1.4-0.2-2.5-0.5-3.4C1.6,4.5,1.3,4,1,3.8
		C0.7,3.6,0.4,3.4,0.2,3.3C0,3.2,0,3,0,2.8c0.2-0.6,0.8-1.3,1.8-1.9C2.7,0.3,3.7,0,4.7,0c1.6,0,2.9,0.5,3.9,1.6
		C9.7,2.7,10.2,4.1,10.2,6z M9.7,26.1c0,1.1-0.4,2-1.1,2.7C7.8,29.6,6.9,30,5.9,30c-1.1,0-2-0.4-2.7-1.1c-0.7-0.8-1.1-1.7-1.1-2.7
		c0-1,0.4-1.9,1.1-2.7c0.8-0.8,1.6-1.1,2.7-1.1c1,0,1.9,0.4,2.7,1.1C9.3,24.2,9.7,25.1,9.7,26.1z"/>
</g>
</svg>
