<?xml version="1.0" encoding="utf-8"?>
<!-- Generator: Adobe Illustrator 21.1.0, SVG Export Plug-In . SVG Version: 6.00 Build 0)  -->
<svg version="1.1" id="Слой_1" xmlns="http://www.w3.org/2000/svg" xmlns:xlink="http://www.w3.org/1999/xlink" x="0px" y="0px"
	 viewBox="0 0 176.3 112.7" style="enable-background:new 0 0 176.3 112.7;" xml:space="preserve">
<style type="text/css">
	.st0{fill:#FFFFFF;}
	.st1{fill:#424754;}
	.st2{fill:#D65B43;}
	.st3{fill:#FFD2AB;}
	.st4{fill:#FCFBF5;fill-opacity:0.2;}
	.st5{fill:#AFE877;}
</style>
<path class="st0" d="M157.4,22.1l-38.5,20.7l9.2,17.2l38.5-20.7"/>
<path class="st1" d="M168,38.9c-0.3-0.5-1-0.7-1.5-0.4l-37.9,20.4l-8.1-15.1l37.9-20.4c0.5-0.3,0.8-1,0.5-1.5
	c-0.3-0.5-1-0.7-1.5-0.4l-38.9,20.9c-0.5,0.3-0.8,1-0.5,1.5l9.2,17c0.3,0.5,1,0.7,1.5,0.4l38.9-20.9C168,40.1,168.2,39.4,168,38.9z"
	/>
<path class="st0" d="M129.7,63l-10.8-20.1l10.1-5.4l10.8,20.1L129.7,63z"/>
<path class="st1" d="M118.4,42.3c-0.5,0.3-0.7,1-0.5,1.5l10.7,20c0.3,0.5,1,0.7,1.5,0.5l9.9-5.3c0.5-0.3,0.7-1,0.4-1.5l-10.7-20
	c-0.3-0.5-1-0.7-1.5-0.5L118.4,42.3z M120.4,43.8l7.9-4.3l9.7,18l-7.9,4.3L120.4,43.8z"/>
<path class="st2" d="M130.5,57.2c-0.5-1-0.2-2.2,0.8-2.7c1-0.5,2.2-0.2,2.7,0.8c0.5,1,0.2,2.2-0.8,2.7
	C132.2,58.6,131,58.2,130.5,57.2z"/>
<path class="st3" d="M93.6,46.5l3.1-1.7c1.2-0.6,2.6-0.7,3.9-0.3l11.7,3.9l7.4-4l7.5,14l-6.7,3.6c0.3,2.9-1.2,5.7-3.9,7.2l-11.6,6.2
	L93.6,46.5z"/>
<path class="st1" d="M127.6,59.9c0.5-0.3,0.7-1,0.4-1.5l-7.5-13.9c-0.3-0.5-1-0.7-1.5-0.5l-6.8,3.6l-11-3.8
	c-1.5-0.5-3.2-0.4-4.7,0.3l-3,1.6c-0.5,0.3-0.7,0.9-0.5,1.4l11.5,28.7c0.1,0.3,0.4,0.5,0.7,0.6c0.3,0.1,0.6,0.1,0.9-0.1l11.2-6
	c2.8-1.5,4.4-4.3,4.3-7.4L127.6,59.9z M125.5,58.4l-5.5,3c-0.4,0.2-0.6,0.6-0.6,1.1c0.2,2.4-1,4.8-3.2,6l-10.1,5.5L95.5,47.2
	l2.2-1.2c0.9-0.5,1.9-0.5,2.9-0.2c0,0,0,0,0,0l11.4,4c0.3,0.1,0.6,0.1,0.9-0.1l6.2-3.3L125.5,58.4z"/>
<path class="st1" d="M37.4,80.2c-0.3-0.5-0.9-0.7-1.5-0.4L10,93.8c-0.5,0.3-0.8,0.9-0.5,1.4c0.3,0.5,0.9,0.7,1.5,0.4l25.9-13.9
	C37.4,81.3,37.6,80.7,37.4,80.2z"/>
<path class="st1" d="M37.4,80.8c0.1-0.6-0.3-1.2-1-1.3L7.4,74.8c-0.6-0.1-1.2,0.3-1.2,0.9c-0.1,0.6,0.3,1.2,1,1.3l29.1,4.7
	C36.8,81.8,37.4,81.4,37.4,80.8z"/>
<path class="st1" d="M37.1,81.4c0.4-0.4,0.4-1.1,0-1.6L16,58.6c-0.4-0.4-1.1-0.4-1.6,0c-0.4,0.4-0.4,1.1,0,1.6l21.2,21.2
	C36,81.8,36.7,81.8,37.1,81.4z"/>
<path class="st4" d="M25.5,86.6c-3.4-6.4-1.2-14.3,5-17.6c6.2-3.3,14-0.9,17.5,5.5c3.4,6.4,1.2,14.3-5,17.6
	C36.8,95.4,29,93,25.5,86.6z"/>
<path class="st5" d="M37.4,77.5l-4.1-7.7l-2.7,20.6l6.4-7.2L37.4,77.5z"/>
<path class="st1" d="M38.8,77.5c0-0.2,0-0.4-0.1-0.6L34.4,69c-0.2-0.4-0.7-0.7-1.2-0.6c-0.5,0.1-0.8,0.5-0.9,1L30,90.2
	c-0.1,0.5,0.2,1,0.7,1.2c0.4,0.2,1,0.1,1.3-0.3l6.2-7.2c0.2-0.2,0.3-0.4,0.3-0.7L38.8,77.5z M36.5,77.6l-0.3,5.1l-3.7,4.2l1.5-13.8
	L36.5,77.6z"/>
<path class="st5" d="M62.6,78.8l-2.8-8L85,57.2l2.3-1.2c5.5-3,13.7-1.8,18.3,2.5c5,4.9,8.1,10.7,8.9,15.1c0.3,2.2-1.5,4-3.7,3.8
	c-1.6-0.2-2.8-1.6-2.9-3.3c-0.1-3.3-1.8-8.2-7-12.3c-3.2-2.5-8.7-3-12.3-1.1l-0.8,0.4L96.5,74l2.7,4l4.4,6.4c1.7,2.5,0.8,6-1.8,7.4
	L78,104.6c-2.8,1.5-6.3,0.2-7.2-2.8l-3.4-9.4l-30-9.4l0.4-5.7L62.6,78.8z"/>
<path class="st1" d="M115.9,73.6c-0.8-4.7-4.1-10.7-9.2-15.6l0,0c-2.5-2.3-5.9-3.8-9.4-4.2c-3.5-0.5-7.2,0-10.2,1.6L59.4,70.2
	c-0.5,0.3-0.7,0.8-0.5,1.4l2.2,6.4l-23.2-1.3c-0.6,0-1.1,0.4-1.2,1l-0.4,5.7c0,0.5,0.3,1,0.8,1.1l29.5,9.1l3.1,8.8
	c1.2,3.6,5.5,5.2,8.8,3.4l23.9-12.9c3.3-1.8,4.4-5.9,2.3-9l0,0l-4.4-6.4l-2.7-3.9l-8-11.7c1.5-0.7,3.5-1,5.4-0.9
	c2.1,0.2,4,0.9,5.4,1.9c4.9,3.8,6.4,8.4,6.5,11.4c0.1,2.2,1.6,4,3.8,4.3l0,0C113.8,79,116.3,76.5,115.9,73.6
	C115.9,73.6,115.9,73.6,115.9,73.6z M113.7,73.9c0.2,1.4-1,2.7-2.5,2.5c-1.1-0.1-1.9-1-1.9-2.2c-0.1-3.7-1.9-8.9-7.4-13.1l0,0
	c-1.8-1.4-4.2-2.2-6.6-2.4c-2.4-0.2-4.9,0.2-7,1.3l-0.8,0.4c-0.3,0.2-0.5,0.4-0.6,0.7c-0.1,0.3,0,0.6,0.2,0.9l8.7,12.8l2.7,3.9l0,0
	l4.4,6.4c1.3,2,0.6,4.7-1.5,5.8l-23.9,12.9c-2.2,1.2-4.9,0.1-5.7-2.1l0,0l-3.3-9.3c-0.1-0.3-0.4-0.6-0.7-0.7l-29.2-9l0.3-3.7
	l23.8,1.3c0.4,0,0.7-0.1,1-0.4c0.2-0.3,0.3-0.7,0.2-1l-2.5-7.1l26.9-14.5c2.5-1.4,5.7-1.8,8.9-1.4c3.1,0.4,6.1,1.7,8.2,3.6
	C110,64.2,113,69.8,113.7,73.9z"/>
<path class="st1" d="M104.5,84.2c-0.4-0.7-1.1-0.9-1.6-0.6l-15.2,8.2c-0.6,0.3-0.7,1.1-0.4,1.7c0.4,0.7,1.1,0.9,1.6,0.7l15.2-8.2
	C104.7,85.6,104.8,84.9,104.5,84.2z"/>
<path class="st1" d="M100.9,80.4c-0.3-0.5-0.9-0.6-1.5-0.3l-9.2,5c-0.6,0.3-0.8,0.9-0.5,1.4c0.3,0.5,0.9,0.6,1.5,0.3l9.2-5
	C100.9,81.5,101.2,80.9,100.9,80.4z"/>
<path class="st1" d="M98.1,76.6c-0.3-0.5-0.9-0.7-1.4-0.4L91.5,79c-0.5,0.3-0.8,0.9-0.5,1.4c0.3,0.5,0.9,0.7,1.4,0.4l5.2-2.8
	C98.1,77.7,98.3,77.1,98.1,76.6z"/>
<path class="st5" d="M67.4,61.4l6.5-3.5c2.5-1.3,5.5-0.5,6.7,1.7l-15.4,8.3C63.9,65.7,64.9,62.7,67.4,61.4z"/>
<path class="st1" d="M80.8,61c0.5-0.3,0.7-1,0.4-1.5c-1.6-3-5.4-4.2-8.4-2.6l-6.4,3.4c-3,1.6-4,5.4-2.4,8.4c0.3,0.6,1,0.8,1.5,0.5
	L80.8,61z M78.6,59.6l-13,7c-0.4-1.7,0.4-3.5,1.9-4.3l6.4-3.4C75.5,58,77.4,58.4,78.6,59.6z"/>
<path class="st3" d="M91.6,68.8c-0.7-1.2-0.1-2.8,1.3-3.5l8.6-4.6c1.5-0.8,3.2-0.3,3.9,1c0.7,1.3,0.1,3-1.4,3.8l-8.2,4.4
	C94.2,70.7,92.3,70.2,91.6,68.8z"/>
<path class="st1" d="M104.2,66.8c1.9-1,2.8-3.5,1.7-5.5c-1-1.9-3.5-2.7-5.5-1.6L92,64.2c-1.9,1-2.6,3.3-1.6,5.2
	c1.1,2,3.6,2.9,5.8,1.7L104.2,66.8z M103.9,62.4c0.5,0.9,0.1,2-0.7,2.4l-8,4.3c-1,0.6-2.2,0.2-2.8-0.8c-0.4-0.8-0.1-1.7,0.7-2.1
	l8.4-4.5C102.4,61.2,103.4,61.5,103.9,62.4z"/>
<path class="st3" d="M87.8,64.5c-0.8-1.5-0.3-3.3,1.1-4l8-4.3c1.4-0.8,3.2-0.1,4,1.3c0.8,1.5,0.3,3.3-1.1,4l-8,4.3
	C90.3,66.6,88.6,66,87.8,64.5z"/>
<path class="st1" d="M100.2,62.1c1.9-1,2.8-3.5,1.7-5.5c-1-1.9-3.5-2.7-5.5-1.6l-8.2,4.4c-1.9,1-2.8,3.5-1.7,5.5
	c1.1,2,3.5,2.7,5.5,1.6L100.2,62.1z M99.9,57.7c0.5,0.9,0.1,2-0.7,2.4l-8.2,4.4c-0.9,0.5-2,0.2-2.4-0.7c-0.5-0.9-0.1-2,0.7-2.4
	l8.2-4.4C98.3,56.5,99.4,56.8,99.9,57.7z"/>
<path class="st3" d="M96.1,72.9l-0.7-1.2c-0.4-0.8-0.1-1.7,0.6-2.1l7.8-4.2c1.5-0.8,3.3-0.2,4.1,1.2c0.8,1.5,0.2,3.3-1.2,4.1
	l-6.4,3.5C98.8,75.1,96.9,74.5,96.1,72.9z"/>
<path class="st1" d="M107.2,72c1.9-1,2.6-3.4,1.6-5.4c-1-1.9-3.4-2.7-5.4-1.7l-7.3,3.9c-1.2,0.7-1.7,2.2-1,3.5l0.6,1.2
	c1.1,2,3.5,2.8,5.5,1.7L107.2,72z M106.8,67.7c0.5,0.9,0.1,2-0.7,2.4l-6,3.2c-0.9,0.5-2,0.1-2.5-0.8L97,71.3c-0.1-0.2,0-0.4,0.1-0.5
	l7.3-3.9C105.3,66.4,106.4,66.8,106.8,67.7z"/>
<path class="st3" d="M101,76.3l-0.3-0.5c-0.4-0.8-0.1-1.7,0.7-2.1l5.4-2.9c1.5-0.8,3.4-0.2,4.2,1.2c0.8,1.5,0.2,3.3-1.3,4.1
	l-3.2,1.7C104.5,78.9,102,78.2,101,76.3z"/>
<path class="st1" d="M109.8,76.8c1.9-1,2.6-3.4,1.6-5.4c-1-1.9-3.4-2.7-5.4-1.7l-4.9,2.7c-1.2,0.7-1.7,2.2-1,3.5l0.2,0.5
	c1.3,2.4,4.3,3.4,6.6,2.1L109.8,76.8z M109.4,72.4c0.5,0.9,0.1,2-0.7,2.4l-3,1.6c0,0,0,0,0,0c-1.2,0.7-2.8,0.2-3.6-1.1l-0.2-0.5
	c-0.1-0.2,0-0.4,0.1-0.5l4.9-2.7C107.9,71.2,108.9,71.5,109.4,72.4z"/>
<path class="st3" d="M94.6,45.9L92,47.4c-1.5,0.8-2.1,2.7-1.3,4.1l4.4,8.1c1,1.9,3.5,2.6,5.4,1.5c2-1.1,2.7-3.5,1.7-5.4l-1.2-2.3"/>
<path class="st1" d="M100.8,56.3c0.7,1.3,0.2,2.9-1,3.5c-1.2,0.7-2.8,0.2-3.5-1.1L92.1,51c-0.4-0.8-0.2-1.9,0.7-2.4l2.4-1.3
	c0.5-0.3,0.7-0.9,0.4-1.5c-0.3-0.5-0.9-0.7-1.5-0.5l-2.4,1.3c-1.9,1-2.5,3.4-1.5,5.3l4.1,7.7c1.3,2.3,4.1,3.2,6.4,2
	c2.3-1.2,3.1-4.1,1.9-6.5l-1.2-2.2c-0.3-0.5-0.9-0.7-1.5-0.5c-0.5,0.3-0.7,0.9-0.4,1.5L100.8,56.3z"/>
<path class="st1" d="M110.8,15.1c-0.4-0.7-1.1-0.9-1.6-0.7L80.4,29.9c-0.5,0.3-0.7,1.1-0.4,1.7c0.4,0.7,1.1,0.9,1.6,0.7l28.8-15.5
	C111,16.5,111.2,15.7,110.8,15.1z"/>
<path class="st1" d="M124.8,15.6c-0.3-0.5-0.9-0.7-1.4-0.4L98.7,28.5c-0.5,0.3-0.8,0.9-0.5,1.4c0.3,0.5,0.9,0.7,1.4,0.4L124.4,17
	C124.9,16.7,125.1,16,124.8,15.6z"/>
<path class="st1" d="M118.7,25.4c-0.4-0.7-1.1-0.9-1.6-0.7l-8.7,4.7c-0.5,0.3-0.7,1.1-0.3,1.7c0.4,0.7,1.1,0.9,1.6,0.7l8.7-4.7
	C118.9,26.8,119,26,118.7,25.4z"/>
</svg>
