<svg width="117" height="70" viewBox="0 0 117 70" fill="none" xmlns="http://www.w3.org/2000/svg">
<path d="M65.119 44.9665L23.0701 44.9665C23.0701 44.9665 31.0794 1.3028 31.144 1.3028L1.3028 1.3028L1.3028 54.0093C1.3028 59.112 5.43664 63.3105 10.6039 63.3105L65.119 63.3105L65.119 44.9665Z" fill="white"/>
<path fill-rule="evenodd" clip-rule="evenodd" d="M65.119 43.6637C65.8385 43.6637 66.4218 44.247 66.4218 44.9665L66.4218 63.3105C66.4218 64.03 65.8385 64.6133 65.119 64.6133L10.6039 64.6133C4.71124 64.6133 -3.10128e-06 59.8256 -3.17064e-06 54.0093L-3.79916e-06 1.30281C-3.80774e-06 0.583287 0.583286 7.85117e-07 1.3028 7.76537e-07L31.144 4.20684e-07C31.8635 4.12104e-07 32.4468 0.583287 32.4468 1.30281C32.4468 1.42469 32.4301 1.54267 32.3988 1.65456C32.3967 1.66417 32.3942 1.67633 32.3911 1.69136C32.3756 1.76646 32.3524 1.88313 32.3215 2.04194C32.26 2.35796 32.1712 2.82403 32.0588 3.42045C31.8339 4.61248 31.516 6.3166 31.1361 8.36307C30.3763 12.4556 29.3692 17.9128 28.3641 23.3706C27.3589 28.8283 26.3558 34.2861 25.6039 38.3794C25.228 40.4261 24.9149 42.1317 24.6958 43.3255L24.6337 43.6637L65.119 43.6637ZM23.0701 44.9665C21.7886 44.7315 21.7887 44.7313 21.7887 44.731L22.1329 42.8552C22.3521 41.6612 22.6652 39.9555 23.0412 37.9087C23.7931 33.8151 24.7963 28.3569 25.8015 22.8987C26.8068 17.4406 27.8141 11.9819 28.5743 7.88746C28.9543 5.84045 29.2727 4.13335 29.4983 2.93752C29.52 2.82215 29.5409 2.71146 29.561 2.60561L2.60561 2.60561L2.60561 54.0093C2.60561 58.3984 6.16205 62.0077 10.6039 62.0077L63.8162 62.0077L63.8162 46.2693L23.0701 46.2693C22.6834 46.2693 22.3167 46.0976 22.0692 45.8005C21.8217 45.5035 21.719 45.1113 21.7887 44.731L23.0701 44.9665Z" fill="#424754"/>
<path fill-rule="evenodd" clip-rule="evenodd" d="M24.0945 44.1616C24.539 44.7274 24.4407 45.5464 23.875 45.9909L19.3536 49.5435C18.7878 49.988 17.9688 49.8897 17.5243 49.324C17.0797 48.7582 17.178 47.9392 17.7438 47.4946L22.2652 43.9421C22.8309 43.4976 23.65 43.5959 24.0945 44.1616Z" fill="#424754"/>
<path d="M65.119 66.4754L65.119 44.9665L54.3969 44.9665L54.3969 66.4754L65.119 66.4754Z" fill="white"/>
<path fill-rule="evenodd" clip-rule="evenodd" d="M66.4218 43.6637L66.4218 67.7782L53.0941 67.7782L53.0941 43.6637L66.4218 43.6637ZM63.8162 46.2693L55.6997 46.2693L55.6997 65.1726L63.8162 65.1726L63.8162 46.2693Z" fill="#424754"/>
<path d="M57.8848 61.6311C57.8848 62.6656 58.7234 63.5042 59.7579 63.5042C60.7925 63.5042 61.6311 62.6656 61.6311 61.6311C61.6311 60.5966 60.7925 59.7579 59.7579 59.7579C58.7234 59.7579 57.8848 60.5966 57.8848 61.6311Z" fill="#D65B43"/>
<path d="M114.984 48.7128C114.984 47.1626 113.756 45.9354 112.206 45.9354L79.1353 45.9354L79.1353 51.4257L112.206 51.4257C113.756 51.4902 114.984 50.263 114.984 48.7128Z" fill="#FFD2AB"/>
<path fill-rule="evenodd" clip-rule="evenodd" d="M112.206 44.6326C114.476 44.6326 116.286 46.4431 116.286 48.7128C116.286 50.9622 114.489 52.8083 112.181 52.7285L77.8325 52.7285L77.8325 44.6326L112.206 44.6326ZM113.681 48.7128C113.681 47.8822 113.037 47.2382 112.206 47.2382L80.4381 47.2382L80.4381 50.1229L112.233 50.1229L112.26 50.124C113.039 50.1564 113.681 49.5543 113.681 48.7128Z" fill="#424754"/>
<path d="M87.3384 36.6989L84.0443 36.6989C82.817 36.6989 81.5898 37.2156 80.7501 38.1845L72.9346 46.6459L65.119 46.6459L65.119 61.7603L72.1595 61.7603C73.1929 64.3439 75.712 66.0233 78.4894 66.0233L90.568 66.0233L87.3384 36.6989Z" fill="#FFD2AB"/>
<path fill-rule="evenodd" clip-rule="evenodd" d="M92.0222 67.3261L78.4894 67.3261C75.4894 67.3261 72.7362 65.6784 71.332 63.0631L63.8162 63.0631L63.8162 45.3431L72.3644 45.3431L79.78 37.3146C80.8808 36.0547 82.4683 35.3961 84.0443 35.3961L88.5056 35.3961L92.0222 67.3261ZM86.1712 38.0017L84.0443 38.0017C83.1727 38.0017 82.3127 38.3707 81.7346 39.0377L81.7211 39.0533L73.5047 47.9487L66.4218 47.9487L66.4218 60.4575L73.0415 60.4575L73.3691 61.2764C74.2018 63.3581 76.2368 64.7205 78.4894 64.7205L89.1138 64.7205L86.1712 38.0017Z" fill="#424754"/>
<path d="M100.58 54.0093L100.58 52.8467C100.58 52.0716 99.9337 51.4257 99.1586 51.4257L87.6614 51.4257C86.1112 51.4257 84.884 52.6529 84.884 54.2031C84.884 55.7533 86.1112 56.9805 87.6614 56.9805L97.6084 56.9805C99.2232 56.9805 100.58 55.6887 100.58 54.0093Z" fill="#FFD2AB"/>
<path fill-rule="evenodd" clip-rule="evenodd" d="M99.1586 50.1229C100.653 50.1229 101.882 51.3521 101.882 52.8467L101.882 54.0093C101.882 56.4266 99.9242 58.2833 97.6084 58.2833L87.6614 58.2833C85.3917 58.2833 83.5812 56.4728 83.5812 54.2031C83.5812 51.9334 85.3917 50.1229 87.6614 50.1229L99.1586 50.1229ZM99.2386 52.7667C99.2081 52.7362 99.1781 52.7285 99.1586 52.7285L87.6614 52.7285C86.8307 52.7285 86.1868 53.3724 86.1868 54.2031C86.1868 55.0338 86.8307 55.6777 87.6614 55.6777L97.6084 55.6777C98.5223 55.6777 99.2768 54.9508 99.2768 54.0093L99.2768 52.8467C99.2768 52.8272 99.2691 52.7972 99.2386 52.7667Z" fill="#424754"/>
<path d="M97.0917 59.6288L97.0917 58.4015C97.0917 57.6264 96.4458 56.9805 95.6707 56.9805L87.5968 56.9805C86.0466 56.9805 84.8194 58.2078 84.8194 59.7579C84.8194 61.3081 86.0466 62.5354 87.5968 62.5354L94.2497 62.5354C95.4769 62.5354 97.0917 61.2435 97.0917 59.6288Z" fill="#FFD2AB"/>
<path fill-rule="evenodd" clip-rule="evenodd" d="M95.6707 55.6777C97.1653 55.6777 98.3945 56.9069 98.3945 58.4015L98.3945 59.6288C98.3945 60.8807 97.7731 61.9305 97.0243 62.6359C96.2924 63.3254 95.2772 63.8382 94.2497 63.8382L87.5968 63.8382C85.3271 63.8382 83.5166 62.0276 83.5166 59.7579C83.5166 57.4882 85.3271 55.6777 87.5968 55.6777L95.6707 55.6777ZM95.7507 58.3216C95.7202 58.2911 95.6901 58.2833 95.6707 58.2833L87.5968 58.2833C86.7661 58.2833 86.1222 58.9273 86.1222 59.7579C86.1222 60.5886 86.7661 61.2326 87.5968 61.2326L94.2497 61.2326C94.4495 61.2326 94.8553 61.0995 95.2376 60.7393C95.6029 60.3951 95.7889 59.9916 95.7889 59.6288L95.7889 58.4015C95.7889 58.3821 95.7811 58.3521 95.7507 58.3216Z" fill="#424754"/>
<path d="M94.5081 64.4085L94.5081 63.8918C94.5081 63.1167 93.8622 62.4708 93.0871 62.4708L87.6614 62.4708C86.1112 62.4708 84.884 63.698 84.884 65.2482C84.884 66.7984 86.1112 68.0256 87.6614 68.0256L90.891 68.0256C92.8287 68.0256 94.5081 66.4108 94.5081 64.4085Z" fill="#FFD2AB"/>
<path fill-rule="evenodd" clip-rule="evenodd" d="M93.0871 61.168C94.5817 61.168 95.8109 62.3972 95.8109 63.8918L95.8109 64.4085C95.8109 67.1454 93.5331 69.3284 90.891 69.3284L87.6614 69.3284C85.3917 69.3284 83.5812 67.5179 83.5812 65.2482C83.5812 62.9785 85.3917 61.168 87.6614 61.168L93.0871 61.168ZM93.167 63.8118C93.1365 63.7814 93.1065 63.7736 93.0871 63.7736L87.6614 63.7736C86.8307 63.7736 86.1868 64.4175 86.1868 65.2482C86.1868 66.0789 86.8307 66.7228 87.6614 66.7228L90.891 66.7228C92.1243 66.7228 93.2053 65.6763 93.2053 64.4085L93.2053 63.8918C93.2053 63.8724 93.1975 63.8423 93.167 63.8118Z" fill="#424754"/>
<path d="M86.5633 36.6989L89.2116 36.6989C90.7618 36.6989 91.989 37.9261 91.989 39.4763L91.989 47.8731C91.989 49.8755 90.3742 51.4903 88.3719 51.4903C86.3696 51.4903 84.7548 49.8755 84.7548 47.8731L84.7548 45.4833" fill="#FFD2AB"/>
<path fill-rule="evenodd" clip-rule="evenodd" d="M90.6862 39.4763C90.6862 38.6456 90.0423 38.0017 89.2116 38.0017L86.5633 38.0017C85.8438 38.0017 85.2605 37.4184 85.2605 36.6989C85.2605 35.9793 85.8438 35.3961 86.5633 35.3961L89.2116 35.3961C91.4813 35.3961 93.2918 37.2066 93.2918 39.4763L93.2918 47.8732C93.2918 50.595 91.0937 52.7931 88.3719 52.7931C85.65 52.7931 83.452 50.595 83.452 47.8732L83.452 45.4833C83.452 44.7638 84.0353 44.1805 84.7548 44.1805C85.4743 44.1805 86.0576 44.7638 86.0576 45.4833L86.0576 47.8732C86.0576 49.156 87.0891 50.1875 88.3719 50.1875C89.6547 50.1875 90.6862 49.156 90.6862 47.8732L90.6862 39.4763Z" fill="#424754"/>
</svg>
