<?xml version="1.0" encoding="utf-8"?>
<!-- Generator: Adobe Illustrator 21.1.0, SVG Export Plug-In . SVG Version: 6.00 Build 0)  -->
<svg version="1.1" id="Слой_2_1_" xmlns="http://www.w3.org/2000/svg" xmlns:xlink="http://www.w3.org/1999/xlink" x="0px"
	 y="0px" viewBox="0 0 387.7 61.3" style="enable-background:new 0 0 387.7 61.3;" xml:space="preserve">
<style type="text/css">
	.st0{fill-rule:evenodd;clip-rule:evenodd;fill:#FFFFFF;}
</style>
<g>
	<path class="st0" d="M72.4,2.8h11.4v57H72.4V2.8L72.4,2.8z M118.8,54.3l-0.2,0c-1.6,2.3-3.4,4-5.6,5c-2.2,1-4.5,1.5-7,1.5
		c-2.7,0-5.2-0.6-7.4-1.7c-2.2-1.1-4.1-2.6-5.7-4.5c-1.6-1.9-2.8-4.1-3.7-6.5c-0.9-2.5-1.3-5.1-1.3-7.8c0-2.7,0.4-5.3,1.2-7.8
		c0.8-2.4,2-4.6,3.6-6.5c1.5-1.9,3.4-3.4,5.6-4.5c2.2-1.1,4.7-1.7,7.6-1.7c2.5,0,4.8,0.5,6.7,1.4c1.9,0.9,3.8,2.6,5.6,5h0.2V2.8
		h10.9v57h-10.4V54.3L118.8,54.3z M118.7,40.4c0-1.5-0.2-2.9-0.6-4.2c-0.4-1.4-1-2.6-1.9-3.6c-0.8-1.1-1.9-1.9-3.1-2.5
		c-1.2-0.6-2.7-0.9-4.4-0.9c-1.6,0-2.9,0.3-4.1,1c-1.2,0.7-2.2,1.5-3,2.6c-0.8,1.1-1.4,2.3-1.8,3.7c-0.4,1.4-0.6,2.8-0.6,4.3
		c0,1.5,0.2,3,0.6,4.4c0.4,1.4,1.1,2.6,1.9,3.7c0.8,1.1,1.9,1.9,3.1,2.5c1.2,0.6,2.6,0.9,4.2,0.9c1.6,0,2.9-0.3,4.1-0.9
		c1.2-0.6,2.2-1.4,3-2.5c0.8-1.1,1.5-2.3,1.9-3.7C118.5,43.5,118.7,42,118.7,40.4L118.7,40.4z M143.9,43.4c0.1,1.2,0.4,2.3,0.8,3.4
		c0.4,1.1,1,2.1,1.7,2.9c0.7,0.8,1.6,1.5,2.7,2c1.1,0.5,2.4,0.8,3.8,0.8c1.7,0,3.2-0.4,4.6-1.2c1.4-0.8,2.5-1.9,3.2-3.4l10.6,0.8
		c-1.3,4-3.6,7-7,9c-3.4,2-7.3,3.1-11.9,3.1c-2.9,0-5.6-0.5-8.1-1.4c-2.4-1-4.5-2.3-6.3-4.1c-1.7-1.8-3.1-3.9-4.1-6.4
		c-1-2.5-1.5-5.3-1.5-8.4c0-3.1,0.5-6,1.5-8.5c1-2.5,2.4-4.7,4.1-6.5c1.7-1.8,3.8-3.2,6.3-4.1c2.4-1,5.1-1.4,8.1-1.4
		c2.9,0,5.6,0.5,8.1,1.4c2.4,1,4.5,2.3,6.3,4.1c1.7,1.8,3.1,4,4.1,6.5c1,2.5,1.5,5.4,1.5,8.5v3H143.9L143.9,43.4z M161.5,36.4
		c-0.1-1-0.4-1.9-0.8-2.9c-0.4-1-1-1.9-1.7-2.7c-0.7-0.8-1.6-1.5-2.6-2c-1-0.5-2.2-0.8-3.5-0.8c-1.4,0-2.6,0.2-3.7,0.7
		c-1.1,0.5-2,1.1-2.7,1.8c-0.8,0.8-1.3,1.6-1.8,2.6c-0.4,1-0.7,2.1-0.9,3.2H161.5L161.5,36.4z M202,54.7l-0.2,0.1
		c-1.8,2.4-3.9,4-6.3,4.8c-2.4,0.9-4.7,1.3-7,1.3c-1.5,0-3.1-0.2-4.7-0.6c-1.6-0.4-3.1-1.1-4.4-2c-1.3-0.9-2.4-2.2-3.3-3.7
		c-0.8-1.5-1.3-3.4-1.3-5.6c0-1.1,0.2-2.2,0.5-3.5c0.3-1.3,1-2.5,2.1-3.7c1.1-1.2,2.8-2.2,5-3.1c2.2-0.9,5.2-1.5,9-1.7l10.1-0.6
		v-1.8c0-2.3-0.7-4.1-2-5.2c-1.3-1.1-3.2-1.7-5.6-1.7c-2.3,0-4,0.5-5.3,1.6c-1.3,1-1.9,2.5-2,4.2h-10.5c0.1-1.5,0.5-3.1,1.1-4.7
		c0.6-1.6,1.7-3.1,3.1-4.4c1.4-1.3,3.3-2.4,5.5-3.3c2.3-0.9,5.1-1.3,8.6-1.3c2.4,0,4.7,0.2,6.8,0.7c2.1,0.5,4,1.2,5.6,2.2
		c1.6,1,2.9,2.3,3.8,3.9c0.9,1.6,1.4,3.5,1.4,5.7v22.6c0,1,0.1,1.9,0.1,2.7c0.1,0.8,0.2,1.5,0.4,2.2H202V54.7L202,54.7z M201.5,42.8
		l-9.1,0.8c-2.5,0.3-4.3,0.8-5.2,1.5c-1,0.8-1.4,1.8-1.4,3.3c0,0.9,0.2,1.6,0.6,2.2c0.4,0.6,0.9,1,1.5,1.4c0.6,0.4,1.3,0.6,2.2,0.8
		c0.8,0.2,1.7,0.2,2.6,0.2c0.9,0,1.8-0.1,2.8-0.4c1-0.3,2-0.6,2.9-1.2c0.9-0.5,1.7-1.2,2.3-2c0.6-0.8,0.9-1.8,0.9-3V42.8z"/>
	<path class="st0" d="M223.3,2.8h20.2c3,0,5.7,0.4,8,1.1c2.3,0.7,4.2,1.8,5.8,3.1c1.5,1.4,2.7,3,3.5,4.9c0.8,1.9,1.2,4,1.2,6.3
		c0,1.6-0.2,3-0.6,4.2c-0.4,1.2-1,2.3-1.7,3.3c-0.7,1-1.5,1.8-2.5,2.5c-0.9,0.7-1.9,1.3-2.9,1.7v0.2c1.3,0.3,2.5,0.8,3.6,1.6
		c1.1,0.7,2.1,1.6,3,2.7c0.9,1.1,1.6,2.4,2.1,3.8c0.5,1.5,0.8,3.1,0.8,4.8c0,2.6-0.5,5-1.4,7c-1,2-2.3,3.8-4.1,5.2
		c-1.7,1.4-3.8,2.5-6.3,3.3c-2.4,0.8-5.1,1.1-8,1.1h-20.7V2.8L223.3,2.8z M241.6,26.2c2.7,0,4.9-0.6,6.6-1.8
		c1.6-1.2,2.5-2.9,2.5-5.2c0-2.4-0.8-4.1-2.3-5.1c-1.5-1.1-3.5-1.6-5.7-1.6h-7.9v13.7H241.6L241.6,26.2z M242.2,50.1
		c3.6,0,6.1-0.7,7.6-2.1c1.5-1.4,2.2-3.1,2.2-5.1c0-0.9-0.2-1.8-0.5-2.7c-0.3-0.9-0.8-1.7-1.5-2.4c-0.7-0.7-1.6-1.3-2.7-1.7
		c-1.1-0.4-2.5-0.6-4.2-0.6h-8.4v14.6H242.2z"/>
	<path class="st0" d="M292.4,54.7l-0.2,0.1c-1.8,2.4-3.9,4-6.3,4.8c-2.4,0.9-4.7,1.3-7,1.3c-1.5,0-3.1-0.2-4.7-0.6
		c-1.6-0.4-3.1-1.1-4.4-2c-1.3-0.9-2.4-2.2-3.3-3.7c-0.8-1.5-1.2-3.4-1.2-5.6c0-1.1,0.1-2.2,0.5-3.5c0.3-1.3,1-2.5,2.1-3.7
		c1.1-1.2,2.8-2.2,5-3.1c2.2-0.9,5.2-1.5,9-1.7l10.1-0.6v-1.8c0-2.3-0.7-4.1-2-5.2c-1.3-1.1-3.2-1.7-5.6-1.7c-2.3,0-4,0.5-5.3,1.6
		c-1.3,1-1.9,2.5-2,4.2h-10.5c0.1-1.5,0.5-3.1,1.1-4.7c0.6-1.6,1.7-3.1,3.1-4.4c1.4-1.3,3.3-2.4,5.5-3.3c2.3-0.9,5.1-1.3,8.6-1.3
		c2.4,0,4.7,0.2,6.8,0.7c2.1,0.5,4,1.2,5.6,2.2c1.6,1,2.9,2.3,3.8,3.9c0.9,1.6,1.4,3.5,1.4,5.7v22.6c0,1,0,1.9,0.1,2.7
		c0.1,0.8,0.2,1.5,0.4,2.2h-10.5V54.7L292.4,54.7z M292,42.8l-9.1,0.8c-2.5,0.3-4.3,0.8-5.2,1.5c-1,0.8-1.4,1.8-1.4,3.3
		c0,0.9,0.2,1.6,0.6,2.2c0.4,0.6,0.9,1,1.5,1.4c0.6,0.4,1.3,0.6,2.2,0.8c0.8,0.2,1.7,0.2,2.6,0.2c0.9,0,1.8-0.1,2.8-0.4
		c1-0.3,2-0.6,2.9-1.2c0.9-0.5,1.7-1.2,2.3-2c0.6-0.8,0.9-1.8,0.9-3V42.8z"/>
	<path class="st0" d="M331.8,36.1c0-1.4-0.2-2.6-0.6-3.6c-0.4-1-0.9-1.7-1.6-2.3c-0.7-0.6-1.4-1-2.2-1.2c-0.8-0.3-1.6-0.4-2.5-0.4
		c-2.2,0-4,0.8-5.2,2.5c-1.3,1.7-1.9,3.9-1.9,6.5v22.1H307v-39h10.4v5.1h0.2c1.6-2.4,3.4-4,5.3-4.9c1.9-0.9,4-1.3,6.2-1.3
		c2.3,0,4.3,0.4,6.1,1.1c1.7,0.7,3.1,1.7,4.3,2.9c1.1,1.2,2,2.7,2.5,4.3c0.5,1.6,0.8,3.4,0.8,5.3v26.4h-10.9V36.1z"/>
	<polygon class="st0" points="358,40.7 357.8,40.7 357.8,59.8 347,59.8 347,2.8 357.8,2.8 357.8,37.9 358,37.9 369.7,20.8 
		382.4,20.8 369.4,38.4 382.9,59.8 369.5,59.8 	"/>
	<path class="st0" d="M375.9,40.1c0-0.7,0.1-1.4,0.4-2.1c0.3-0.7,0.7-1.2,1.2-1.7c0.5-0.5,1.1-0.9,1.7-1.2c0.7-0.3,1.4-0.4,2.1-0.4
		c0.7,0,1.5,0.1,2.1,0.4c0.7,0.3,1.2,0.7,1.7,1.2c0.5,0.5,0.9,1.1,1.2,1.7c0.3,0.7,0.4,1.4,0.4,2.1c0,0.7-0.1,1.5-0.4,2.1
		c-0.3,0.7-0.7,1.2-1.2,1.7c-0.5,0.5-1.1,0.9-1.7,1.2c-0.7,0.3-1.4,0.4-2.1,0.4c-0.7,0-1.4-0.1-2.1-0.4c-0.7-0.3-1.2-0.7-1.7-1.2
		c-0.5-0.5-0.9-1.1-1.2-1.7C376,41.5,375.9,40.8,375.9,40.1L375.9,40.1z M385.9,40.1c0-0.7-0.1-1.3-0.4-1.9c-0.2-0.6-0.6-1.1-1-1.5
		c-0.4-0.4-0.9-0.7-1.5-1c-0.6-0.2-1.2-0.4-1.8-0.4c-0.7,0-1.3,0.1-1.8,0.4c-0.6,0.2-1,0.6-1.5,1c-0.4,0.4-0.7,0.9-1,1.5
		c-0.2,0.6-0.4,1.2-0.4,1.9c0,0.7,0.1,1.3,0.4,1.9c0.2,0.6,0.6,1.1,1,1.5c0.4,0.4,0.9,0.7,1.5,1c0.6,0.2,1.2,0.4,1.8,0.4
		c0.6,0,1.3-0.1,1.8-0.4c0.6-0.2,1-0.6,1.5-1c0.4-0.4,0.7-0.9,1-1.5C385.8,41.4,385.9,40.8,385.9,40.1L385.9,40.1z M381.3,40.5
		l1.7,2.7h1l-1.8-2.7c0.2,0,0.4-0.1,0.6-0.2c0.2-0.1,0.4-0.2,0.5-0.4c0.2-0.2,0.3-0.3,0.4-0.6c0.1-0.2,0.1-0.5,0.1-0.8
		c0-0.6-0.2-1.1-0.5-1.4c-0.4-0.3-0.9-0.4-1.7-0.4h-2.5v6.4h0.8v-2.7H381.3L381.3,40.5z M381.4,39.8c0.3,0,0.5,0,0.7,0
		c0.2,0,0.4-0.1,0.5-0.2c0.1-0.1,0.3-0.2,0.3-0.3c0.1-0.1,0.1-0.3,0.1-0.6c0-0.2,0-0.4-0.1-0.6c-0.1-0.1-0.2-0.3-0.3-0.3
		c-0.1-0.1-0.3-0.1-0.5-0.2c-0.2,0-0.4,0-0.6,0H380v2.2H381.4z"/>
	<path class="st0" d="M28.2,15.1c0,7.4-6,13.3-13.3,13.3c-7.4,0-13.3-6-13.3-13.3c0-7.4,6-13.3,13.3-13.3
		C22.2,1.7,28.2,7.7,28.2,15.1L28.2,15.1z M60.7,15.1c0-7.4-6-13.3-13.3-13.3C40,1.7,34,7.7,34,15.1c0,7.4,6,13.3,13.3,13.3
		C54.7,28.4,60.7,22.4,60.7,15.1L60.7,15.1z M28.2,47.5c0-7.4-6-13.3-13.3-13.3c-7.4,0-13.3,6-13.3,13.3s6,13.3,13.3,13.3
		C22.2,60.9,28.2,54.9,28.2,47.5L28.2,47.5z M60.7,47.5c0-7.4-6-13.3-13.3-13.3c-7.4,0-13.3,6-13.3,13.3s6,13.3,13.3,13.3
		C54.7,60.9,60.7,54.9,60.7,47.5z"/>
</g>
</svg>
