<?xml version="1.0" encoding="utf-8"?>
<!-- Generator: Adobe Illustrator 21.1.0, SVG Export Plug-In . SVG Version: 6.00 Build 0)  -->
<svg version="1.1" id="Layer_1" xmlns="http://www.w3.org/2000/svg" xmlns:xlink="http://www.w3.org/1999/xlink" x="0px" y="0px"
	 viewBox="0 0 137 175.9" style="enable-background:new 0 0 137 175.9;" xml:space="preserve">
<style type="text/css">
	.st0{fill:#F78F1E;}
	.st1{fill:#424754;}
	.st2{fill:#BD6E00;}
	.st3{fill:#F7EE7C;}
</style>
<path class="st0" d="M101.1,146.7H34.4L21,87.4c-0.3-2.3,1.1-4.3,3.4-4.3h85.9c2.3,0,4,2,3.4,4.3L101.1,146.7z"/>
<path class="st1" d="M101.1,148.7H34.4c-0.9,0-1.7-0.6-2-1.7L19,87.7c-0.3-1.7,0-3.4,1.1-4.9c1.1-1.1,2.6-2,4.3-2h85.9
	c1.7,0,3.4,0.9,4.6,2.3c1.1,1.4,1.4,3.1,0.9,4.9l-12.6,59C102.8,148.1,102,148.7,101.1,148.7z M36.1,144.4h63.3L112,86.5
	c0-0.6,0-0.9-0.3-1.1c-0.3-0.3-0.6-0.6-1.1-0.6H24.7c-0.6,0-0.9,0.3-1.1,0.6c-0.3,0.3-0.3,0.9-0.3,1.1L36.1,144.4z"/>
<path class="st2" d="M103.1,153.5H32.4L25,142.9c-1.1-1.4,0-3.7,2-3.7h81.6c2,0,2.9,2,2,3.7L103.1,153.5z"/>
<path class="st1" d="M103.1,155.8H32.4c-0.6,0-1.1-0.3-1.7-0.9l-7.4-10.6c-0.9-1.1-1.1-3.1-0.3-4.6c0.6-1.4,2.3-2.3,4-2.3h81.6
	c1.7,0,3.1,0.9,4,2.3c0.9,1.4,0.6,3.1,0,4.6l-7.4,10.6C104.6,155.5,104,155.8,103.1,155.8z M33.6,151.5h68.7l6.9-9.7c0,0,0,0,0-0.3
	c0,0,0,0-0.3,0H27h-0.3v0.3L33.6,151.5z"/>
<path class="st1" d="M113.1,95.4H45c-1.1,0-2-0.9-2-2s0.9-2,2-2h68.1c1.1,0,2,0.9,2,2S114.3,95.4,113.1,95.4z"/>
<path class="st1" d="M109.4,106H79.1c-1.1,0-2-0.9-2-2s0.9-2,2-2h30.3c1.1,0,2,0.9,2,2S110.6,106,109.4,106z"/>
<path class="st1" d="M108.3,114H92.5c-1.1,0-2-0.9-2-2s0.9-2,2-2h15.7c1.1,0,2,0.9,2,2C110.3,112.9,109.1,114,108.3,114z"/>
<path class="st1" d="M106.3,122.6H93.7c-1.1,0-2-0.9-2-2s0.9-2,2-2h12.6c1.1,0,2,0.9,2,2S107.4,122.6,106.3,122.6z"/>
<path class="st3" d="M57.9,48.2c0.9-5.4-0.6-10.6-3.4-10.9c-2.9-0.6-6,3.7-6.9,9.2c-0.9,5.4,0.6,10.6,3.4,10.9
	C53.9,57.9,57,53.9,57.9,48.2z"/>
<path class="st1" d="M51.3,59.6c-0.3,0-0.6,0-0.9,0c-2.3-0.3-4-2-4.9-4.9c-0.6-2.3-0.9-5.4-0.3-8.3c0.3-2.9,1.4-5.7,3.1-7.7
	c1.7-2.3,4-3.4,6.3-3.1c4,0.6,6.3,6.3,5.2,13.5C59,55.1,55.3,59.6,51.3,59.6z M49.6,47c-0.3,2.3-0.3,4.6,0.3,6.3
	c0.3,1.4,1.1,2,1.4,2c1.1,0,3.4-2.6,4.3-7.4s-0.6-8.3-1.7-8.6c-0.3,0-1.1,0.3-2,1.4C50.7,42.5,50.2,44.8,49.6,47z"/>
<path class="st3" d="M76.8,73.7c2.3-1.1,2-5.7-0.3-10.3c-2.6-4.3-6.3-6.9-8.6-5.7s-2,5.7,0.3,10.3C70.8,72.5,74.5,75.1,76.8,73.7z"
	/>
<path class="st1" d="M75.6,76.2c-1.1,0-2.6-0.3-4-1.4c-1.7-1.1-3.7-3.1-4.9-5.7c-3.1-5.4-2.9-11.2,0.3-13.2c1.7-0.9,4-0.6,6.3,0.6
	c1.7,1.1,3.7,3.1,4.9,5.7c1.4,2.3,2,4.9,2.3,7.2c0,2.6-0.9,4.9-2.6,5.7C77.4,76.2,76.5,76.2,75.6,76.2z M69.3,59.9
	C69.1,59.9,69.1,59.9,69.3,59.9c-0.9,0.3-1.1,3.4,0.9,7.4c0.9,1.7,2.3,3.1,3.7,4c0.9,0.6,1.7,0.6,2,0.6c0.3,0,0.6-0.6,0.3-2
	c0-1.4-0.6-3.4-1.7-5.2c-0.9-1.7-2.3-3.1-3.7-4C70.2,59.9,69.6,59.9,69.3,59.9z"/>
<path class="st3" d="M82.2,34.7c1.7-5.2,0.6-10-2-10.9c-2.6-0.9-6.3,2.6-7.7,7.7c-1.7,5.2-0.6,10,2,10.9
	C77.4,43.3,80.8,39.9,82.2,34.7z"/>
<path class="st1" d="M75.4,45c-0.3,0-0.9,0-1.4-0.3c-4-1.1-5.4-7.2-3.4-13.5c0.9-2.9,2.3-5.4,4-7.2c2-2,4.3-2.9,6.3-2.3
	s3.4,2.6,4,5.4c0.3,2.3,0,5.2-0.6,8c-0.9,2.9-2.3,5.4-4,7.2C78.8,44.2,77.1,45,75.4,45z M74.8,32.4c-1.4,4.6-0.3,8,0.6,8.3
	c0.3,0,1.1-0.3,2-1.1c1.1-1.1,2.3-3.1,2.9-5.2c0.6-2,0.9-4.3,0.6-6c-0.3-1.1-0.6-2-1.1-2c-0.3,0-1.1,0.3-2,1.1
	C76.5,28.4,75.4,30.4,74.8,32.4z"/>
</svg>
