<?xml version="1.0" encoding="utf-8"?>
<!-- Generator: Adobe Illustrator 21.1.0, SVG Export Plug-In . SVG Version: 6.00 Build 0)  -->
<svg version="1.1" id="Layer_1" xmlns="http://www.w3.org/2000/svg" xmlns:xlink="http://www.w3.org/1999/xlink" x="0px" y="0px"
	 viewBox="0 0 137 237" style="enable-background:new 0 0 137 237;" xml:space="preserve">
<style type="text/css">
	.st0{fill:#AFE877;}
	.st1{fill:#424754;}
	.st2{fill:#F78F1E;}
	.st3{fill:#BD6E00;}
	.st4{fill:#F7EE7C;}
	.st5{fill:#51586B;}
</style>
<path class="st0" d="M60,155.8l3.1-7c7-15.5,22-26.1,39-27.1l3.9-0.3C100.1,141.8,81.7,156.1,60,155.8L60,155.8z"/>
<path class="st1" d="M60.5,157.9C60.5,157.9,60.3,157.9,60.5,157.9h-3.4l4.4-9.8c7.2-16.3,22.8-26.9,40.6-28.2l6.5-0.3l-0.8,2.6
	C101.9,143.1,82.5,157.9,60.5,157.9z M103.2,123.5h-0.8c-16.3,1-30.8,11.1-37.2,26.1l-1.8,4.1C81.2,153,97.2,140.8,103.2,123.5z"/>
<path class="st0" d="M59.2,89.1L58.7,85c-1-9,3.1-18.1,10.9-23.3l1.6-1C74.2,71.8,69.3,83.4,59.2,89.1z"/>
<path class="st1" d="M57.7,92.2l-0.8-7c-1-10.1,3.4-19.4,11.6-25.1l3.9-2.6l0.8,2.6c3.1,11.9-2.1,24.6-12.9,30.5L57.7,92.2z
	 M69.8,64c-6.7,4.7-10.1,12.7-9.3,20.9v1C67.8,80.8,71.1,72.3,69.8,64z"/>
<path class="st0" d="M56.6,143.4l-5.7-16c-3.1-9-10.1-16-19.1-19.1l-11.4-4.1c-1.6,17.3,10.1,33.4,26.9,37.2L56.6,143.4z"/>
<path class="st1" d="M59.7,146l-12.4-2.8c-17.8-4.1-30-20.9-28.4-39.3l0.3-2.3l13.4,4.9c9.6,3.4,16.8,10.9,20.2,20.4L59.7,146z
	 M22.5,106.7c0,15.3,10.6,29.2,25.6,32.6l5.4,1.3l-4.4-12.9c-3.1-8.5-9.6-15-17.8-18.1L22.5,106.7z"/>
<path class="st0" d="M91.3,89.1l-12.4,7c-6.7,3.9-11.6,10.6-12.9,18.1l-1.6,9.8c14.2-1,25.9-12.9,26.4-27.1L91.3,89.1z"/>
<path class="st1" d="M62.1,126.1l2.1-12.2c1.6-8.3,6.5-15.3,13.7-19.7l15.3-8.5l-0.5,11.1c-0.8,15.3-12.9,27.7-28.2,29L62.1,126.1z
	 M89.2,92.5l-9.3,5.2c-6.2,3.6-10.6,9.8-12.2,16.8l-1.3,7.2c12.2-2.1,21.7-12.7,22.2-25.1L89.2,92.5z"/>
<path class="st0" d="M38.5,82.1l2.6,8.8c1.3,4.7,4.9,8.8,9.8,10.6l5.9,2.3c1-9.3-4.4-17.8-13.4-20.2L38.5,82.1z"/>
<path class="st1" d="M58.5,106.4l-8.3-3.4c-5.2-1.8-9.3-6.5-10.9-11.9L35.7,79l8.3,2.3c9.8,2.6,16,12.2,14.7,22.2L58.5,106.4z
	 M41.7,85l1.6,5.2c1.3,4.1,4.4,7.8,8.5,9.3l3.4,1.3c0-7.2-4.9-13.4-12.2-15.5L41.7,85z"/>
<path class="st1" d="M58.2,168.7c-1,0-1.8-0.8-1.8-1.8v-11.1l4.1-31.5l-5.7-20.2l2.6-15c0-1,1-1.8,2.1-1.6c1,0,1.8,1,1.6,2.1
	l-2.3,14.2l5.7,20.2l-4.1,32.1v10.9C60.3,167.7,59.2,168.7,58.2,168.7z"/>
<path class="st2" d="M89.5,219.4H29.2l-12.2-53.5c-0.3-2.1,1-3.9,3.1-3.9h77.6c2.1,0,3.6,1.8,3.1,3.9L89.5,219.4z"/>
<path class="st1" d="M91,221.2H27.7l-12.4-55.1c-0.3-1.6,0-3.1,1-4.4c1-1,2.3-1.8,3.9-1.8h77.6c1.6,0,3.1,0.8,4.1,2.1
	c1,1.3,1.3,2.8,0.8,4.4L91,221.2z M30.8,217.6h57.1l11.4-52.2c0-0.5,0-0.8-0.3-1c-0.3-0.3-0.5-0.5-1-0.5H20.4c-0.5,0-0.8,0.3-1,0.5
	c-0.3,0.3-0.3,0.8-0.3,1L30.8,217.6z"/>
<path class="st3" d="M91.3,225.9H27.4l-6.7-9.6c-1-1.3,0-3.4,1.8-3.4h73.7c1.8,0,2.6,1.8,1.8,3.4L91.3,225.9z"/>
<path class="st1" d="M92.3,227.7H26.4l-7.2-10.3c-0.8-1-1-2.8-0.3-4.1c0.5-1.3,2.1-2.1,3.6-2.1h73.7c1.6,0,2.8,0.8,3.6,2.1
	c0.8,1.3,0.5,2.8,0,4.1L92.3,227.7z M28.5,223.8h62.1l6.2-8.8c0-0.3,0-0.3,0-0.3s0-0.3-0.3-0.3H22.5c0,0-0.3,0-0.3,0.3l0,0
	L28.5,223.8z"/>
<path class="st1" d="M100.1,173.4H38.8c-1,0-1.8-0.8-1.8-1.8c0-1,0.8-1.8,1.8-1.8h61.3c1,0,1.8,0.8,1.8,1.8
	C101.9,172.6,101.1,173.4,100.1,173.4z"/>
<path class="st1" d="M97,182.7H69.6c-1,0-1.8-0.8-1.8-1.8s0.8-1.8,1.8-1.8H97c1,0,1.8,0.8,1.8,1.8S98,182.7,97,182.7z"/>
<path class="st1" d="M95.7,189.9H81.5c-1,0-1.8-0.8-1.8-1.8s0.8-1.8,1.8-1.8h14.2c1,0,1.8,0.8,1.8,1.8S96.7,189.9,95.7,189.9z"/>
<path class="st1" d="M93.9,197.7H82.5c-1,0-1.8-0.8-1.8-1.8s0.8-1.8,1.8-1.8h11.4c1,0,1.8,0.8,1.8,1.8S94.9,197.7,93.9,197.7z"/>
<path class="st4" d="M100.1,72.5c4.9-3.6,5.9-10.3,2.3-15c-3.6-4.9-10.3-5.9-15-2.3c-4.9,3.6-5.9,10.3-2.3,15
	C88.5,74.9,95.2,75.9,100.1,72.5z"/>
<path class="st1" d="M93.9,76.4c-0.5,0-1.3,0-2.1,0c-3.4-0.5-6.2-2.3-8.3-5.2c-2.1-2.6-2.8-6.2-2.3-9.6c0.5-3.4,2.3-6.2,5.2-8.3
	c2.6-2.1,6.2-2.8,9.6-2.3c3.4,0.5,6.2,2.3,8.3,5.2c2.1,2.6,2.8,6.2,2.3,9.6c-0.5,3.4-2.3,6.2-5.2,8.3C99.1,75.4,96.2,76.4,93.9,76.4
	z M93.6,55c-1.8,0-3.6,0.5-5.2,1.6c-1.8,1.3-3.1,3.4-3.6,5.7c-0.3,2.3,0.3,4.7,1.6,6.5c1.3,1.8,3.4,3.1,5.7,3.6
	c2.3,0.3,4.7-0.3,6.5-1.6s3.1-3.4,3.6-5.7c0.3-2.3-0.3-4.7-1.6-6.5c-1.3-1.8-3.4-3.1-5.7-3.6C94.7,55,94.1,55,93.6,55z"/>
<path class="st5" d="M93.6,68.4c0-0.8,0.3-1.6,0.3-2.3c0-0.8,0.3-1.3,0.3-1.8c0-0.5,0-1,0-1.6c0-0.3,0-0.8-0.3-1
	c-0.3-0.3-0.5-0.5-0.8-0.5c-0.3,0-0.5,0-1,0.3c-0.3,0.3-0.5,0.5-0.5,0.8c0,0.3,0,0.5-0.3,1L89.7,63c0-0.5,0.3-1.3,0.5-1.8
	c0.3-0.5,0.5-1,1.3-1.3c0.3-0.3,0.8-0.5,1-0.5c0.3-0.3,0.8-0.3,1-0.3c0.3,0,0.8,0.3,1,0.3c0.3,0.3,0.5,0.5,0.8,0.8
	c0.3,0.3,0.3,0.8,0.5,1c0,0.3,0,0.8,0,1.3c0,0.5,0,1,0,1.6c0,0.5,0,1-0.3,1.6c0,0,0.3-0.3,0.5-0.5c0.3-0.3,0.3-0.3,0.5-0.5l1.6-1
	l1,1.6l-5.4,4.1L93.6,68.4z"/>
<path class="st4" d="M52.5,58.3c2.8-5.2,1-11.6-4.1-14.5c-5.2-2.8-11.6-1-14.5,4.1s-1,11.6,4.1,14.5C43.2,65.6,49.7,63.8,52.5,58.3z
	"/>
<path class="st1" d="M42.9,65.8c-2.1,0-4.1-0.5-5.9-1.6c-6.2-3.4-8.3-11.1-4.9-17.1c3.4-6.2,11.1-8.3,17.1-4.9
	c2.8,1.6,5.2,4.4,5.9,7.5c0.8,3.1,0.5,6.7-1,9.6C52,63.5,47.6,65.8,42.9,65.8z M42.9,44.4c-3.1,0-6.2,1.6-7.8,4.7
	c-1,2.1-1.3,4.4-0.8,6.7c0.5,2.1,2.1,4.1,4.1,5.2c4.1,2.3,9.6,0.8,12.2-3.4c1-2.1,1.3-4.4,0.8-6.7c-0.5-2.1-2.1-4.1-4.1-5.2
	C46,44.9,44.5,44.4,42.9,44.4z"/>
<path class="st5" d="M38.8,55.2c0.8-0.3,1.6-0.3,2.3-0.5c0.5-0.3,1.3-0.3,1.8-0.5c0.5-0.3,1-0.3,1.3-0.5c0.3-0.3,0.5-0.5,0.8-0.8
	c0.3-0.3,0.3-0.8,0.3-1c0-0.3-0.3-0.5-0.8-0.8c-0.3-0.3-0.5-0.3-1-0.3c-0.3,0-0.5,0-1,0.3l-0.5-1.6c0.5-0.3,1.3-0.3,1.8-0.3
	c0.5,0,1,0,1.8,0.5c0.3,0.3,0.8,0.5,1,0.8c0.3,0.3,0.5,0.5,0.5,1c0,0.3,0,0.8,0,1c0,0.3,0,0.8-0.3,1.3c-0.3,0.3-0.3,0.5-0.5,0.8
	c0,0,0,0-0.3,0.3c-0.3,0.3-0.5,0.5-1,0.5c-0.5,0.3-0.8,0.3-1.6,0.5c-0.5,0.3-1,0.3-1.6,0.5c0.3,0,0.5,0.3,0.8,0.3
	c0.3,0.3,0.5,0.3,0.8,0.3l0.8,0.5c0.5,0.3,0.5,0.8,0.3,1.3c-0.3,0.5-0.8,0.5-1.3,0.3L38,56.3L38.8,55.2z"/>
<path class="st4" d="M124.9,105.6c3.1-4.9,1.6-11.6-3.4-14.7c-5.2-3.1-11.6-1.6-14.7,3.4s-1.6,11.6,3.4,14.7
	C115.1,112.4,121.5,110.8,124.9,105.6z"/>
<path class="st1" d="M115.6,112.6c-2.3,0-4.7-0.5-6.7-1.8c-5.9-3.6-7.8-11.6-4.1-17.3c1.8-2.8,4.7-4.9,8-5.7
	c3.4-0.8,6.7-0.3,9.6,1.6c2.8,1.8,4.9,4.7,5.7,8c0.8,3.4,0.3,6.7-1.6,9.6C124.1,110.6,120,112.6,115.6,112.6z M115.6,91.2
	c-0.5,0-1.3,0-2.1,0.3c-2.3,0.5-4.1,1.8-5.4,3.9c-2.6,4.1-1.3,9.6,2.8,12.2c4.1,2.6,9.6,1.3,12.2-2.8c1.3-2.1,1.6-4.4,1-6.7
	c-0.5-2.3-1.8-4.1-3.9-5.4C119,91.7,117.2,91.2,115.6,91.2z"/>
<path class="st5" d="M111.5,100.7l1.8,1l2.8-4.7l-1.6-1l0.8-1c0.5,0.3,0.8,0.3,1.3,0.3c0.3,0,0.8,0,1,0l1.3,0.8l-4.1,6.7l1.6,1
	l-1,1.6l-5.2-3.4L111.5,100.7z"/>
<path class="st4" d="M80.2,30.9c-5.9,3.9-14,0.8-16-6.2c-1.3-4.4,0.5-9.6,4.7-12.2c5.9-3.9,14-0.8,16,6.2
	C85.9,23.4,84.1,28.3,80.2,30.9z"/>
<path class="st1" d="M74.2,34.5c-1.6,0-3.1-0.3-4.7-0.8c-3.6-1.3-6.5-4.4-7.8-8.5c-1.6-5.4,0.5-11.4,5.4-14.2
	c3.4-2.1,7.5-2.6,11.4-1c3.6,1.3,6.5,4.4,7.8,8.5c1.6,5.4-0.5,11.4-5.4,14.2C78.9,34,76.6,34.5,74.2,34.5z M74.2,13.1
	c-1.6,0-3.1,0.5-4.7,1.3c-3.4,2.1-4.9,6.2-3.9,9.8c0.8,2.6,2.6,4.9,5.4,5.9c2.6,1,5.4,0.8,7.8-0.8c3.4-2.1,4.9-6.2,3.9-9.8
	c-0.8-2.6-2.6-4.9-5.4-5.9C76.6,13.1,75.3,13.1,74.2,13.1z"/>
<path class="st5" d="M70.6,20.6c0,0.3,0,0.8-0.3,1c0,0.3,0,0.8,0.3,1c0.3,0.5,0.5,0.8,0.8,0.8c0.3,0,0.8,0,1.3,0
	c0.3-0.3,0.8-0.5,0.8-0.8c0-0.3,0-0.8,0-1v-0.3c0,0,0,0-0.3-0.3c0,0,0,0-0.3-0.3c0,0-0.3,0-0.3-0.3v-1l4.7-1.8l2.3,4.9l-1.6,0.8
	l-1.6-3.1L75,20.8l0.3,0.3c0,0,0.3,0.3,0.3,0.5c0,0.3,0.3,0.8,0.3,1c0,0.3,0,0.8,0,1c0,0.3-0.3,0.5-0.5,1c-0.3,0.3-0.5,0.5-1,0.8
	c-0.5,0.3-1,0.3-1.3,0.3c-0.5,0-0.8,0-1.3-0.3c-0.3,0-0.8-0.3-1-0.8c-0.3-0.3-0.5-0.8-0.8-1c-0.3-0.8-0.5-1.3-0.5-2.1
	c0-0.5,0-1,0.3-1.6L70.6,20.6z"/>
</svg>
