<?xml version="1.0" encoding="utf-8"?>
<!-- Generator: Adobe Illustrator 21.1.0, SVG Export Plug-In . SVG Version: 6.00 Build 0)  -->
<svg version="1.1" id="Layer_1" xmlns="http://www.w3.org/2000/svg" xmlns:xlink="http://www.w3.org/1999/xlink" x="0px" y="0px"
	 viewBox="0 0 184 262" style="enable-background:new 0 0 184 262;" xml:space="preserve">
<style type="text/css">
	.st0{opacity:0.2;fill:#FFFFFF;enable-background:new    ;}
	.st1{fill:#A37D64;}
	.st2{fill:#424754;}
	.st3{fill:#F78F1E;}
	.st4{fill:#F7EE7C;}
	.st5{fill:#BD6E00;}
	.st6{fill:#51586B;}
	.st7{font-family:'OpenSans-Bold';}
	.st8{font-size:9.9705px;}
</style>
<path class="st0" d="M93.8,171.3c45.2,0,81.7-36.5,81.7-81.7S139,7.9,93.8,7.9S12,44.4,12,89.6S48.5,171.3,93.8,171.3z"/>
<path class="st1" d="M101.4,198.6H85.6l4.9-80.5c0-1.3,1.3-2.6,2.8-2.3c1.3,0,2.3,1,2.6,2.3L101.4,198.6z"/>
<path class="st2" d="M103.5,200.4H83.5l4.9-82.5c0.3-2.6,2.3-4.3,4.9-4.1c2.3,0,4.1,1.8,4.3,4.1L103.5,200.4z M87.4,196.6h12
	l-5.6-78.4c0-0.3-0.3-0.5-0.8-0.5s-0.8,0.3-0.8,0.8L87.4,196.6z"/>
<path class="st3" d="M93.8,156c36.8,0,66.4-29.6,66.4-66.4s-29.6-66.4-66.4-66.4S27.4,52.8,27.4,89.6S57,156,93.8,156z"/>
<path class="st4" d="M45.7,54.1c1.8,0,3.1-1.3,3.1-3.1S47.5,48,45.7,48c-1.8,0-3.1,1.3-3.1,3.1S44,54.1,45.7,54.1z"/>
<path class="st4" d="M52.1,147.3c1.8,0,3.3-1.5,3.3-3.3s-1.5-3.3-3.3-3.3c-1.8,0-3.3,1.5-3.3,3.3C48.8,145.8,50.3,147.3,52.1,147.3z
	"/>
<path class="st4" d="M118.8,39.3c1.5,0,2.8-1.3,2.8-2.8c0-1.5-1.3-2.8-2.8-2.8c-1.5,0-2.8,1.3-2.8,2.8C116,38,117.3,39.3,118.8,39.3
	z"/>
<path class="st4" d="M75.9,157.3c2.3,0,4.3-2,4.3-4.3s-2-4.3-4.3-4.3c-2.3,0-4.3,2-4.3,4.3S73.6,157.3,75.9,157.3z"/>
<path class="st4" d="M93.8,93.2c1.5,0,2.8-1.3,2.8-2.8s-1.3-2.8-2.8-2.8c-1.5,0-2.8,1.3-2.8,2.8S92.2,93.2,93.8,93.2z"/>
<path class="st4" d="M100.9,134c1.5,0,2.8-1.3,2.8-2.8c0-1.5-1.3-2.8-2.8-2.8c-1.5,0-2.8,1.3-2.8,2.8C98.1,132.7,99.4,134,100.9,134
	z"/>
<path class="st4" d="M109.8,136.1c1.5,0,2.8-1.3,2.8-2.8s-1.3-2.8-2.8-2.8c-1.5,0-2.8,1.3-2.8,2.8S108.3,136.1,109.8,136.1z"/>
<path class="st4" d="M108.1,98.3c3.1,0,5.4-2.3,5.4-5.4s-2.3-5.4-5.4-5.4s-5.4,2.3-5.4,5.4S105,98.3,108.1,98.3z"/>
<path class="st4" d="M150.2,61.2c3.1,0,5.4-2.3,5.4-5.4c0-3.1-2.3-5.4-5.4-5.4s-5.4,2.3-5.4,5.4C144.8,58.9,147.4,61.2,150.2,61.2z"
	/>
<path class="st4" d="M99.4,25.2c2,0,3.8-1.8,3.8-3.8s-1.8-3.8-3.8-3.8c-2,0-3.8,1.8-3.8,3.8C95.5,23.4,97.3,25.2,99.4,25.2z"/>
<path class="st4" d="M86.1,86c1.8,0,3.3-1.5,3.3-3.3c0-1.8-1.5-3.3-3.3-3.3s-3.3,1.5-3.3,3.3C82.8,84.5,84.3,86,86.1,86z"/>
<path class="st4" d="M72.6,84.7c1.8,0,3.3-1.5,3.3-3.3s-1.5-3.3-3.3-3.3s-3.3,1.5-3.3,3.3S70.8,84.7,72.6,84.7z"/>
<path class="st4" d="M135.6,40.5c1.5,0,2.8-1.3,2.8-2.8s-1.3-2.8-2.8-2.8s-2.8,1.3-2.8,2.8C132.8,39.3,134.1,40.5,135.6,40.5z"/>
<path class="st4" d="M29.6,121.3c1.5,0,2.8-1.3,2.8-2.8s-1.3-2.8-2.8-2.8c-1.5,0-2.8,1.3-2.8,2.8C26.8,120,28.1,121.3,29.6,121.3z"
	/>
<path class="st4" d="M48,108.5c1.5,0,2.8-1.3,2.8-2.8c0-1.5-1.3-2.8-2.8-2.8c-1.5,0-2.8,1.3-2.8,2.8C45.2,107.2,46.5,108.5,48,108.5
	z"/>
<path class="st4" d="M131.3,79.4c2.6,0,4.9-2,4.9-4.9c0-2.6-2-4.9-4.9-4.9s-4.9,2.3-4.9,4.9C126.4,77.1,128.7,79.4,131.3,79.4z"/>
<path class="st4" d="M113.2,157.5c2.6,0,4.9-2,4.9-4.9c0-2.6-2-4.9-4.9-4.9c-2.6,0-4.9,2-4.9,4.9
	C108.3,155.2,110.6,157.5,113.2,157.5z"/>
<path class="st4" d="M92.7,116.1c1.8,0,3.3-1.5,3.3-3.3c0-1.8-1.5-3.3-3.3-3.3c-1.8,0-3.3,1.5-3.3,3.3
	C89.4,114.6,90.9,116.1,92.7,116.1z"/>
<path class="st4" d="M160.9,86.3c1.8,0,3.1-1.3,3.1-3.1c0-1.8-1.3-3.1-3.1-3.1c-1.8,0-3.1,1.3-3.1,3.1
	C157.9,84.7,159.4,86.3,160.9,86.3z"/>
<path class="st4" d="M161.9,98c1.8,0,3.1-1.3,3.1-3.1c0-1.8-1.3-3.1-3.1-3.1s-3.1,1.3-3.1,3.1C158.9,96.5,160.2,98,161.9,98z"/>
<path class="st4" d="M152,127.4c1.8,0,3.1-1.3,3.1-3.1c0-1.8-1.3-3.1-3.1-3.1c-1.8,0-3.1,1.3-3.1,3.1
	C148.9,126.1,150.5,127.4,152,127.4z"/>
<path class="st4" d="M140,91.4c2.3,0,4.1-1.8,4.1-4.1s-1.8-4.1-4.1-4.1c-2.3,0-4.1,1.8-4.1,4.1S137.7,91.4,140,91.4z"/>
<path class="st4" d="M25.1,102.4c2.3,0,4.1-1.8,4.1-4.1c0-2.3-1.8-4.1-4.1-4.1S21,96,21,98.3C21,100.6,22.8,102.4,25.1,102.4z"/>
<path class="st4" d="M55.2,103.6c2.3,0,4.1-1.8,4.1-4.1s-1.8-4.1-4.1-4.1c-2.3,0-4.1,1.8-4.1,4.1S52.9,103.6,55.2,103.6z"/>
<path class="st4" d="M83.5,60.2c1.5,0,3.1-1.3,3.1-3.1s-1.3-3.1-3.1-3.1c-1.5,0-3.1,1.3-3.1,3.1S81.8,60.2,83.5,60.2z"/>
<path class="st4" d="M86.3,66.6c1.5,0,3.1-1.3,3.1-3.1c0-1.5-1.3-3.1-3.1-3.1c-1.5,0-3.1,1.3-3.1,3.1C83.5,65.3,84.8,66.6,86.3,66.6
	z"/>
<path class="st4" d="M145.1,50.8c2,0,3.6-1.5,3.6-3.6c0-2-1.5-3.6-3.6-3.6c-2,0-3.6,1.5-3.6,3.6C141.5,49.2,143.3,50.8,145.1,50.8z"
	/>
<path class="st4" d="M97.6,104.1c2.3,0,4.3-2,4.3-4.3c0-2.3-2-4.3-4.3-4.3c-2.3,0-4.3,2-4.3,4.3C93.2,102.1,95.3,104.1,97.6,104.1z"
	/>
<path class="st4" d="M131.6,129.7c2.3,0,4.3-2,4.3-4.3c0-2.3-2-4.3-4.3-4.3s-4.3,2-4.3,4.3C127.2,127.6,129.3,129.7,131.6,129.7z"/>
<path class="st4" d="M153.8,95.2c2.8,0,5.1-2.3,5.1-5.1c0-2.8-2.3-5.1-5.1-5.1c-2.8,0-5.1,2.3-5.1,5.1
	C148.7,92.9,151,95.2,153.8,95.2z"/>
<path class="st4" d="M56.7,38.5c2.3,0,4.3-2,4.3-4.3c0-2.3-2-4.3-4.3-4.3c-2.3,0-4.3,2-4.3,4.3C52.1,36.7,54.2,38.5,56.7,38.5z"/>
<path class="st4" d="M36.3,56.1c2.3,0,4.3-2,4.3-4.3c0-2.3-2-4.3-4.3-4.3c-2.3,0-4.3,2-4.3,4.3C31.9,54.3,34,56.1,36.3,56.1z"/>
<path class="st4" d="M89.7,26.5c2.3,0,4.3-2,4.3-4.3c0-2.3-2-4.3-4.3-4.3c-2.3,0-4.3,2-4.3,4.3S87.4,26.5,89.7,26.5z"/>
<path class="st4" d="M159.9,106.4c1.5,0,2.6-1.3,2.6-2.6c0-1.5-1.3-2.6-2.6-2.6c-1.5,0-2.6,1.3-2.6,2.6
	C157.4,105.4,158.4,106.4,159.9,106.4z"/>
<path class="st4" d="M84.8,157c1.5,0,2.6-1.3,2.6-2.6c0-1.5-1.3-2.6-2.6-2.6c-1.5,0-2.6,1.3-2.6,2.6S83.3,157,84.8,157z"/>
<path class="st4" d="M28.9,74.5c2.8,0,5.1-2.3,5.1-5.1s-2.3-5.1-5.1-5.1s-5.1,2.3-5.1,5.1C23.8,72,26.1,74.5,28.9,74.5z"/>
<path class="st4" d="M96.3,160.6c3.6,0,6.4-3.1,6.4-6.9c0-3.8-2.8-6.9-6.4-6.9c-3.6,0-6.4,3.1-6.4,6.9
	C89.7,157.5,92.7,160.6,96.3,160.6z"/>
<path class="st4" d="M47.5,43.9c2.6,0,4.6-2,4.6-4.6s-2-4.6-4.6-4.6s-4.6,2-4.6,4.6C42.9,41.8,45,43.9,47.5,43.9z"/>
<path class="st4" d="M126.4,36.5c2.8,0,4.9-2.3,4.9-4.9c0-2.8-2.3-4.9-4.9-4.9s-4.9,2.3-4.9,4.9C121.3,34.2,123.6,36.5,126.4,36.5z"
	/>
<path class="st4" d="M60.6,91.9c2.3,0,4.3-2,4.3-4.3c0-2.3-2-4.3-4.3-4.3c-2.3,0-4.3,2-4.3,4.3S58,91.9,60.6,91.9z"/>
<path class="st4" d="M64.6,152.9c3.6,0,6.4-2.8,6.4-6.4c0-3.6-2.8-6.4-6.4-6.4c-3.6,0-6.4,2.8-6.4,6.4
	C58,150.1,61.1,152.9,64.6,152.9z"/>
<path class="st4" d="M142.3,138.1c3.8,0,6.6-3.1,6.6-6.6c0-3.6-3.1-6.6-6.6-6.6c-3.8,0-6.6,3.1-6.6,6.6
	C135.6,135,138.7,138.1,142.3,138.1z"/>
<path class="st4" d="M33.2,114.4c3.6,0,6.4-2.8,6.4-6.4s-2.8-6.4-6.4-6.4s-6.4,2.8-6.4,6.4S29.6,114.4,33.2,114.4z"/>
<path class="st4" d="M73.3,38.8c4.9,0,8.9-4.1,8.9-8.9s-4.1-8.9-8.9-8.9s-8.9,4.1-8.9,8.9S68.5,38.8,73.3,38.8z"/>
<path class="st4" d="M41.7,70.2c3.8,0,7.2-3.1,7.2-7.2c0-3.8-3.1-7.2-7.2-7.2c-3.8,0-7.2,3.1-7.2,7.2C34.5,66.9,37.8,70.2,41.7,70.2
	z"/>
<path class="st4" d="M112.4,33.1c3.6,0,6.4-2.8,6.4-6.4s-2.8-6.4-6.4-6.4c-3.6,0-6.4,2.8-6.4,6.4C105.8,30.1,108.6,33.1,112.4,33.1z
	"/>
<path class="st4" d="M79.7,79.4c3.6,0,6.4-2.8,6.4-6.4c0-3.6-2.8-6.4-6.4-6.4c-3.6,0-6.4,2.8-6.4,6.4C73.3,76.6,76.1,79.4,79.7,79.4
	z"/>
<path class="st4" d="M58.8,81.2c3.6,0,6.4-2.8,6.4-6.4s-2.8-6.4-6.4-6.4s-6.4,2.8-6.4,6.4S55.2,81.2,58.8,81.2z"/>
<path class="st4" d="M104.7,150.1c3.8,0,7.2-3.1,7.2-7.2c0-3.8-3.1-7.2-7.2-7.2s-7.2,3.1-7.2,7.2
	C97.8,146.8,100.9,150.1,104.7,150.1z"/>
<path class="st4" d="M124.7,98.3c5.4,0,10-4.3,10-10c0-5.4-4.3-10-10-10c-5.6,0-10,4.3-10,10C114.7,93.9,119.3,98.3,124.7,98.3z"/>
<path class="st4" d="M148.9,84.2c6.1,0,11-4.9,11-11s-4.9-11-11-11s-11,4.9-11,11C138.2,79.4,143,84.2,148.9,84.2z"/>
<path class="st4" d="M123.4,149.1c5.6,0,10.5-4.6,10.5-10.5c0-5.6-4.6-10.5-10.5-10.5c-5.9,0-10.5,4.6-10.5,10.5
	C112.9,144.5,117.5,149.1,123.4,149.1z"/>
<path class="st4" d="M50.6,139.6c8.2,0,15.1-6.6,15.1-15.1s-6.6-15.1-15.1-15.1c-8.2,0-15.1,6.6-15.1,15.1S42.2,139.6,50.6,139.6z"
	/>
<path class="st4" d="M111.6,128.9c8.2,0,14.8-6.6,14.8-14.8c0-8.2-6.6-14.8-14.8-14.8s-14.8,6.6-14.8,14.8
	C96.6,122.3,103.5,128.9,111.6,128.9z"/>
<path class="st4" d="M95.3,57.1c8.4,0,15.3-6.9,15.3-15.3s-6.9-15.3-15.3-15.3S80,33.4,80,41.8S86.9,57.1,95.3,57.1z"/>
<path class="st4" d="M126.7,69.7c8.4,0,15.1-6.9,15.1-15.1c0-8.4-6.9-15.1-15.1-15.1s-15.1,6.6-15.1,15.1
	C111.6,63,118.5,69.7,126.7,69.7z"/>
<path class="st4" d="M81.8,146.3c8.4,0,15.3-6.9,15.3-15.3s-6.9-15.3-15.3-15.3s-15.3,6.9-15.3,15.3S73.1,146.3,81.8,146.3z"/>
<path class="st4" d="M102.2,87.5c8.2,0,14.8-6.6,14.8-14.8s-6.6-14.8-14.8-14.8s-14.8,6.6-14.8,14.8S94,87.5,102.2,87.5z"/>
<path class="st4" d="M142,122.8c8.2,0,14.8-6.6,14.8-14.8s-6.6-14.8-14.8-14.8s-14.8,6.6-14.8,14.8S133.9,122.8,142,122.8z"/>
<path class="st4" d="M40.1,101.3c7.9,0,14.6-6.4,14.6-14.6c0-7.9-6.4-14.6-14.6-14.6s-14.6,6.4-14.6,14.6S32.2,101.3,40.1,101.3z"/>
<path class="st4" d="M64.4,67.6c8.2,0,14.8-6.6,14.8-14.8c0-8.2-6.6-14.8-14.8-14.8s-14.8,6.6-14.8,14.8S56.2,67.6,64.4,67.6z"/>
<path class="st4" d="M76.1,115.4c8.2,0,15.1-6.6,15.1-15.1c0-8.2-6.6-15.1-15.1-15.1c-8.2,0-15.1,6.6-15.1,15.1
	C61.3,108.7,68,115.4,76.1,115.4z"/>
<path class="st3" d="M121.9,246.1H62.3l-12-52.9c-0.3-2,1-3.8,3.1-3.8H130c2,0,3.6,1.8,3.1,3.8L121.9,246.1z"/>
<path class="st2" d="M123.1,248.2H60.8l-12.3-54.4c-0.3-1.5,0-3.1,1-4.3c1-1.3,2.3-1.8,4.1-1.8h76.6c1.5,0,3.1,0.5,4.1,1.8
	s1.3,2.8,1,4.3L123.1,248.2z M63.9,244.4h56.4l11.5-51.6c0-0.5,0-0.8-0.3-1s-0.5-0.5-1-0.5H53.9c-0.5,0-0.8,0.3-1,0.5
	c0,0.3-0.3,0.5-0.3,1L63.9,244.4z"/>
<path class="st5" d="M123.6,252.5H60.3l-6.6-9.4c-1-1.3,0-3.3,1.8-3.3h72.8c1.8,0,2.6,1.8,1.8,3.3L123.6,252.5z"/>
<path class="st2" d="M124.7,254.6H59.3l-7.2-10.2c-0.8-1.3-1-2.8-0.3-4.1c0.5-1.3,2-2,3.6-2h72.8c1.5,0,2.8,0.8,3.6,2
	c0.5,1.3,0.5,2.8-0.3,4.1L124.7,254.6z M61.3,250.7h61.3l5.9-8.4c0,0,0,0,0-0.3c0,0,0,0-0.3,0H55.4c0,0,0,0-0.3,0v0.3L61.3,250.7z"
	/>
<path class="st2" d="M132.3,200.7H71.8c-1,0-1.8-0.8-1.8-1.8s0.8-1.8,1.8-1.8h60.5c1,0,1.8,0.8,1.8,1.8S133.3,200.7,132.3,200.7z"/>
<path class="st2" d="M129.3,210.1h-27.3c-1,0-1.8-0.8-1.8-1.8c0-1,0.8-1.8,1.8-1.8H129c1,0,1.8,0.8,1.8,1.8
	C130.8,209.4,130.3,210.1,129.3,210.1z"/>
<path class="st2" d="M130.5,213.5h-14v3.8h14V213.5z"/>
<path class="st2" d="M127.5,221.1h-11.2v3.8h11.2V221.1z"/>
<path class="st6" d="M137.4,112.8c1-0.8,1.8-1.5,2.3-2.3c0.8-0.8,1.5-1.3,1.8-1.8c0.5-0.8,0.8-1,1.3-1.8c0.3-0.5,0.5-1,0.5-1.5
	c0-0.8-0.3-1.3-0.5-1.5c-0.5-0.3-0.8-0.5-1.3-0.5s-1,0.3-1.3,0.3c-0.5,0.3-0.8,0.5-1.3,1l-1.5-1.8c0.8-0.5,1.3-1.3,2-1.5
	c0.8-0.3,1.5-0.5,2.6-0.5c0.8,0,1.3,0,1.8,0.3c0.5,0.3,1,0.5,1.3,0.8c0.5,0.3,0.8,0.8,1,1.5c0.3,0.5,0.3,1,0.3,1.8
	c0,0.8-0.3,1.3-0.5,1.8c-0.3,0.5-0.5,1-1,1.8c-0.5,0.8-0.8,1-1.5,1.8c-0.5,0.5-1,1.3-1.8,1.5c0.3,0,0.8,0,1,0c0.5,0,0.8,0,1,0h2.6
	v2.6l-9.4-0.3L137.4,112.8z"/>
<path class="st6" d="M123.1,58.4l3.1,0.3l0.3-7.7l-2.6-0.3v-2c0.8,0,1.3-0.3,1.8-0.5c0.5,0,1-0.5,1.5-0.8h2.3l-0.3,11.2l2.6,0.3
	l-0.3,2.6l-8.7-0.3L123.1,58.4z"/>
<path class="st6" d="M61.1,56.6c0.5,0.5,0.8,0.5,1.3,1c0.5,0.3,1,0.5,1.5,0.3c0.8,0,1.3-0.3,1.8-0.5c0.5-0.5,0.5-0.8,0.5-1.8
	c0-0.5-0.3-1.3-0.8-1.5c-0.5-0.5-0.8-0.5-1.5-0.5c-0.3,0-0.5,0-0.5,0c-0.3,0-0.3,0-0.5,0.3c-0.3,0-0.3,0-0.5,0.3
	c-0.3,0-0.3,0.3-0.5,0.3l-1.3-0.8l0.5-6.9h7.7v2.6h-4.9l-0.3,2.6c0.3,0,0.5-0.3,0.8-0.3s0.5-0.3,0.8,0c0.5,0,1,0.3,1.8,0.3
	c0.5,0.3,1,0.5,1.3,0.8c0.5,0.5,0.8,0.8,1,1.3c0.3,0.5,0.5,1.3,0.3,1.8c0,0.8-0.3,1.5-0.3,2c-0.3,0.8-0.8,1-1,1.5
	c-0.5,0.5-1,0.8-1.8,1c-0.8,0.3-1.3,0.3-1.8,0.3c-1.3,0-2-0.3-2.8-0.5c-0.8-0.5-1.3-0.8-2-1.3L61.1,56.6z"/>
<text transform="matrix(1 0 0 1 84.9979 45.2194)" class="st6 st7 st8">BYN</text>
<text transform="matrix(1 0 0 1 65.4783 104.0612)" class="st6 st7 st8">BYN</text>
<text transform="matrix(1 0 0 1 100.9373 117.0866)" class="st6 st7 st8">BYN</text>
<path class="st6" d="M36,91.1l3.1,0.3l0.3-7.7l-2.6-0.3v-2c0.8,0,1.3-0.3,1.8-0.5c0.5,0,1-0.5,1.5-0.8h2.3l-0.3,11.2l2.6,0.3
	l-0.3,2.6l-8.7-0.3L36,91.1z"/>
<path class="st6" d="M98.9,76.8c0.5,0.5,0.8,0.5,1.3,1c0.5,0.3,1,0.5,1.5,0.3c0.8,0,1.3-0.3,1.8-0.5c0.5-0.5,0.5-0.8,0.5-1.8
	c0-0.5-0.3-1.3-0.8-1.5c-0.5-0.5-0.8-0.5-1.5-0.5c-0.3,0-0.5,0-0.5,0c-0.3,0-0.3,0-0.5,0.3c-0.3,0-0.3,0-0.5,0.3
	c-0.3,0-0.3,0.3-0.5,0.3l-1.3-0.8l0.5-6.9h7.7v2.6h-4.9l-0.3,2.6c0.3,0,0.5-0.3,0.8-0.3c0.3,0,0.5-0.3,0.8,0c0.5,0,1,0.3,1.8,0.3
	c0.5,0.3,1,0.5,1.3,0.8c0.5,0.5,0.8,0.8,1,1.3c0.3,0.5,0.5,1.3,0.3,1.8c0,0.8-0.3,1.5-0.3,2c-0.3,0.8-0.8,1-1,1.5
	c-0.5,0.5-1,0.8-1.8,1c-0.8,0.3-1.3,0.3-1.8,0.3c-1.3,0-2-0.3-2.8-0.5c-0.8-0.5-1.3-0.8-2-1.3L98.9,76.8z"/>
<path class="st6" d="M45,129.4c1-0.8,1.8-1.5,2.3-2.3c0.8-0.8,1.5-1.3,1.8-1.8c0.5-0.8,0.8-1,1.3-1.8c0.3-0.5,0.5-1,0.5-1.5
	c0-0.8-0.3-1.3-0.5-1.5c-0.5-0.3-0.8-0.5-1.3-0.5s-1,0.3-1.3,0.3c-0.5,0.3-0.8,0.5-1.3,1l-1.5-1.8c0.8-0.5,1.3-1.3,2-1.5
	c0.8-0.3,1.5-0.5,2.6-0.5c0.8,0,1.3,0,1.8,0.3c0.5,0.3,1,0.5,1.3,0.8c0.5,0.3,0.8,0.8,1,1.5c0.3,0.5,0.3,1,0.3,1.8
	c0,0.8-0.3,1.3-0.5,1.8c-0.3,0.5-0.5,1-1,1.8c-0.5,0.5-0.8,1-1.5,1.8c-0.5,0.5-1,1.3-1.8,1.5c0.3,0,0.8,0,1,0c0.5,0,0.8,0,1,0h2.6
	v2.6l-9.4-0.3L45,129.4z"/>
<path class="st6" d="M77.4,134.8l3.1,0.3l0.3-7.7l-2.6-0.3v-2c0.8,0,1.3-0.3,1.8-0.5c0.5,0,1-0.5,1.5-0.8h2.3L83.5,135l2.6,0.3
	l-0.3,2.6l-8.7-0.3L77.4,134.8z"/>
<path class="st6" d="M39.6,65.3c0.5-0.3,0.8-0.8,1-1c0.3-0.3,0.8-0.5,0.8-0.8c0.3-0.3,0.3-0.5,0.5-0.8c0.3-0.3,0.3-0.5,0.3-0.5
	c0-0.3,0-0.5-0.3-0.5c-0.3-0.3-0.3-0.3-0.5-0.3s-0.5,0-0.5,0.3c-0.3,0.3-0.3,0.3-0.5,0.5l-0.8-0.8c0.3-0.3,0.5-0.5,1-0.8
	c0.3-0.3,0.8-0.3,1-0.3s0.5,0,0.8,0s0.5,0.3,0.5,0.3c0.3,0.3,0.3,0.3,0.5,0.5c0,0.3,0,0.5,0,0.8c0,0.3,0,0.5-0.3,0.8
	c0,0.3-0.3,0.5-0.5,0.8c-0.3,0.3-0.3,0.5-0.5,0.8c-0.3,0.3-0.5,0.5-0.8,0.8c0,0,0.3,0,0.5,0s0.3,0,0.5,0h1.3v1.3h-4.1L39.6,65.3z"/>
<path class="st6" d="M120.6,141.2h2l0.3-5.1h-1.8v-1.3c0.5,0,0.8,0,1.3-0.3c0.3,0,0.8-0.3,1-0.5h1.5l-0.3,7.2h1.8v1.8l-5.6-0.3
	L120.6,141.2z"/>
<path class="st6" d="M146.9,76.6c0.3,0.3,0.5,0.5,0.8,0.8c0.3,0.3,0.5,0.3,1,0.3c0.5,0,0.8,0,1-0.3c0.3-0.3,0.5-0.5,0.5-1
	c0-0.5,0-0.8-0.5-1c-0.3-0.3-0.5-0.5-1-0.3h-0.3h-0.3c-0.3,0-0.3,0-0.3,0c-0.3,0-0.3,0.3-0.3,0.3l-0.8-0.5l0.3-4.6h5.1V72h-3.3
	l-0.3,1.5c0.3,0,0.3,0,0.5-0.3c0.3,0,0.3,0,0.5,0c0.3,0,0.8,0,1,0.3c0.3,0.3,0.5,0.3,0.8,0.5s0.5,0.5,0.5,0.8c0,0.3,0.3,0.8,0.3,1.3
	c0,0.5,0,1-0.3,1.3c-0.3,0.5-0.5,0.8-0.8,1c-0.3,0.3-0.5,0.5-1,0.5c-0.5,0.3-0.8,0.3-1.3,0.3c-0.8,0-1.3-0.3-1.8-0.5
	c-0.5-0.3-0.8-0.5-1.3-0.8L146.9,76.6z"/>
<path class="st6" d="M121.9,90.9h2l0.3-5.1h-1.8v-1.3c0.5,0,0.8,0,1.3-0.3c0.3,0,0.8-0.3,1-0.5h1.5l-0.3,7.2h1.8v1.8l-5.6-0.3
	L121.9,90.9z"/>
<path class="st6" d="M70.5,32.4h2l0.3-5.1H71V26c0.5,0,0.8,0,1.3-0.3c0.3,0,0.8-0.3,1-0.5h1.5l-0.3,7.2h1.8v1.8l-5.6-0.3L70.5,32.4z
	"/>
</svg>
