<?xml version="1.0" encoding="utf-8"?>
<!-- Generator: Adobe Illustrator 21.1.0, SVG Export Plug-In . SVG Version: 6.00 Build 0)  -->
<svg version="1.1" id="Слой_1" xmlns="http://www.w3.org/2000/svg" xmlns:xlink="http://www.w3.org/1999/xlink" x="0px" y="0px"
	 viewBox="0 0 83.7 214.1" style="enable-background:new 0 0 83.7 214.1;" xml:space="preserve">
<style type="text/css">
	.st0{fill:#AFE877;}
	.st1{fill:#424754;}
	.st2{fill:#F78F1E;}
	.st3{fill:#BD6E00;}
	.st4{fill:#F7EE7C;}
	.st5{fill:#51586B;}
</style>
<path class="st0" d="M38.3,159.2l2.4-5.4c5.3-11.9,16.7-19.8,29.7-20.7l2.8-0.2c-4.4,15.5-18.6,26.4-34.8,26.3H38.3z"/>
<path class="st1" d="M38.7,160.7c-0.1,0-0.2,0-0.2,0H36l3.4-7.4c5.5-12.4,17.3-20.6,31-21.6l4.9-0.3l-0.6,2.1
	C70.1,149.4,55.3,160.7,38.7,160.7z M71.2,134.5h-0.7c-12.5,0.9-23.5,8.4-28.4,19.8l-1.5,3.2C54.4,157,66.6,147.7,71.2,134.5z"/>
<path class="st0" d="M37.7,108.3l-0.4-3.1c-0.8-6.9,2.3-13.8,8.2-17.7l1.3-0.9C49,95,45.3,103.9,37.7,108.3z"/>
<path class="st1" d="M36.5,110.6l-0.7-5.3c-0.9-7.6,2.5-14.9,8.9-19.1l2.9-2.1l0.6,2.1c2.4,9-1.6,18.7-9.8,23.4L36.5,110.6z
	 M45.8,89c-5.1,3.6-7.7,9.7-7,15.9l0.1,0.8C44,101.8,46.7,95.4,45.8,89z"/>
<path class="st0" d="M35.7,149.6l-4.3-12.3c-2.4-6.8-7.7-12.2-14.6-14.7l-8.6-3.1c-1.2,13.3,7.6,25.4,20.6,28.4L35.7,149.6z"/>
<path class="st1" d="M38,151.7l-9.5-2.2c-13.6-3.1-23-16-21.7-30l0.2-1.9l10.4,3.8c7.2,2.5,12.8,8.2,15.4,15.5L38,151.7z M9.6,121.6
	c-0.1,11.7,8,22.3,19.5,24.9l4.2,1.1l-3.4-9.8c-2.3-6.5-7.3-11.5-13.7-13.8L9.6,121.6z"/>
<path class="st0" d="M62,108.3l-9.4,5.3c-5.2,2.9-8.8,8-9.9,13.9l-1.3,7.4c10.9-0.9,19.6-9.8,20.2-20.7L62,108.3z"/>
<path class="st1" d="M39.7,136.4l1.6-9.3c1.2-6.4,5-11.7,10.6-15l11.7-6.5l-0.4,8.5c-0.6,11.6-9.9,21.2-21.6,22.1L39.7,136.4z
	 M60.5,110.8l-7,4c-4.8,2.7-8.1,7.4-9.2,12.9l-1,5.5c9.3-1.7,16.5-9.6,17-19.1L60.5,110.8z"/>
<path class="st0" d="M21.8,102.9l2.1,6.6c1.1,3.6,3.8,6.6,7.4,8l4.5,1.9c0.9-7-3.4-13.6-10.3-15.4L21.8,102.9z"/>
<path class="st1" d="M37,121.5l-6.3-2.6c-3.9-1.5-7-4.9-8.3-9l-2.8-9.2l6.4,1.9c7.5,2.1,12.3,9.2,11.3,17L37,121.5z M24.1,105.1
	l1.3,4c1,3.2,3.4,5.9,6.5,7l2.6,1.1c-0.1-5.6-3.8-10.4-9.3-11.9L24.1,105.1z"/>
<path class="st1" d="M36.9,169c-0.8,0-1.5-0.7-1.5-1.5V159l3.1-24l-4.3-15.4l2.1-11.4c0.1-0.8,0.9-1.4,1.7-1.2
	c0.8,0.1,1.4,0.9,1.2,1.7l-1.9,10.8l4.3,15.4l-3.1,24.5v8.2C38.4,168.3,37.7,169,36.9,169z"/>
<path class="st2" d="M60.6,207.7H14.7l-9.2-41c-0.3-1.6,0.9-3,2.4-3h59.2c1.6,0,2.8,1.5,2.4,3L60.6,207.7z"/>
<path class="st1" d="M61.8,209.2H13.5L4.1,167c-0.2-1.3,0.1-2.4,0.9-3.4c0.8-0.9,1.9-1.5,3-1.5h59.2c1.2,0,2.4,0.6,3.1,1.6
	c0.8,1,1,2.2,0.7,3.3L61.8,209.2z M15.9,206.2h43.6l8.7-39.8c0.1-0.4-0.1-0.7-0.2-0.8c-0.2-0.3-0.5-0.4-0.9-0.4H7.9
	c-0.4,0-0.7,0.2-0.8,0.4c-0.2,0.3-0.3,0.6-0.2,0.9L15.9,206.2z"/>
<path class="st3" d="M62.1,212.6H13.2l-5.1-7.2c-0.8-1.1,0-2.5,1.4-2.5h56.3c1.4,0,2.1,1.5,1.4,2.5L62.1,212.6z"/>
<path class="st1" d="M62.9,214H12.5L7,206.2c-0.7-0.9-0.8-2.2-0.3-3.1c0.5-1.1,1.6-1.7,2.8-1.7h56.3c1.2,0,2.2,0.6,2.7,1.6
	c0.6,1,0.5,2.2-0.1,3.2L62.9,214z M14,211.1h47.3l4.7-6.6c0-0.1,0-0.1,0-0.2c0,0,0-0.1-0.2-0.1H9.5c-0.1,0-0.2,0-0.2,0.1v0.1
	L14,211.1z"/>
<path class="st1" d="M68.9,172.5H22c-0.8,0-1.5-0.7-1.5-1.5c0-0.8,0.7-1.5,1.5-1.5h46.8c0.8,0,1.5,0.7,1.5,1.5
	C70.3,171.8,69.6,172.5,68.9,172.5z"/>
<path class="st1" d="M66.4,179.7h-21c-0.8,0-1.5-0.7-1.5-1.5c0-0.8,0.7-1.5,1.5-1.5h21c0.8,0,1.5,0.7,1.5,1.5
	C67.9,179,67.2,179.7,66.4,179.7z"/>
<path class="st1" d="M65.4,185.2H54.5c-0.8,0-1.5-0.7-1.5-1.5s0.7-1.5,1.5-1.5h10.9c0.8,0,1.5,0.7,1.5,1.5S66.2,185.2,65.4,185.2z"
	/>
<path class="st1" d="M64.1,191.2h-8.6c-0.8,0-1.5-0.7-1.5-1.5c0-0.8,0.7-1.5,1.5-1.5h8.6c0.8,0,1.5,0.7,1.5,1.5
	C65.5,190.5,64.8,191.2,64.1,191.2z"/>
<path class="st4" d="M49.2,55.8c-4.6,2.9-10.8,0.6-12.3-4.7c-1-3.4,0.5-7.2,3.5-9.2c4.6-2.9,10.8-0.6,12.3,4.7
	C53.6,50.2,52.2,53.9,49.2,55.8z"/>
<path class="st1" d="M44.8,58.6c-1.2,0-2.3-0.2-3.5-0.7c-2.8-1.1-5-3.4-5.9-6.5c-1.2-4.1,0.5-8.6,4.2-10.8c2.6-1.7,5.8-2,8.6-0.9
	c2.8,1.1,5,3.4,5.9,6.5c1.2,4.1-0.5,8.6-4.2,10.8C48.3,58.1,46.5,58.6,44.8,58.6z M44.8,42.1c-1.3,0-2.4,0.4-3.6,1.1
	c-2.5,1.6-3.7,4.7-2.9,7.5c0.6,2.1,2.1,3.7,4.1,4.5c2,0.8,4.2,0.6,6-0.6c2.5-1.6,3.7-4.7,2.9-7.5c-0.6-2.1-2.1-3.7-4.1-4.5
	C46.4,42.2,45.5,42.1,44.8,42.1z"/>
<path class="st4" d="M26.2,19.8c-4.6,2.9-10.8,0.6-12.3-4.7c-1-3.4,0.5-7.2,3.5-9.2c4.6-2.9,10.8-0.6,12.3,4.7
	C30.6,14.2,29.2,17.9,26.2,19.8z"/>
<path class="st1" d="M21.8,22.6c-1.2,0-2.3-0.2-3.5-0.7c-2.8-1.1-5-3.4-5.9-6.5c-1.2-4.1,0.5-8.6,4.2-10.8c2.6-1.7,5.8-2,8.6-0.9
	c2.8,1.1,5,3.4,5.9,6.5c1.2,4.1-0.5,8.6-4.2,10.8C25.3,22.1,23.5,22.6,21.8,22.6z M21.8,6.1c-1.3,0-2.4,0.4-3.6,1.1
	c-2.5,1.6-3.7,4.7-2.9,7.5c0.6,2.1,2.1,3.7,4.1,4.5c2,0.8,4.2,0.6,6-0.6c2.5-1.6,3.7-4.7,2.9-7.5c-0.6-2.1-2.1-3.7-4.1-4.5
	C23.4,6.2,22.5,6.1,21.8,6.1z"/>
<path class="st4" d="M14.2,89.8c-4.6,2.9-10.8,0.6-12.3-4.7c-1-3.4,0.5-7.2,3.5-9.2c4.6-2.9,10.8-0.6,12.3,4.7
	C18.6,84.2,17.2,87.9,14.2,89.8z"/>
<path class="st1" d="M9.8,92.6c-1.2,0-2.3-0.2-3.5-0.7c-2.8-1.1-5-3.4-5.9-6.4c-1.2-4.1,0.5-8.6,4.2-10.8c2.6-1.7,5.8-2,8.6-0.9
	c2.8,1.1,5,3.4,5.9,6.5c1.2,4.1-0.5,8.6-4.2,10.8C13.3,92.1,11.5,92.6,9.8,92.6z M9.8,76.1c-1.3,0-2.4,0.4-3.6,1.1
	c-2.5,1.6-3.7,4.7-2.9,7.5c0.6,2.1,2.1,3.7,4.1,4.5c2,0.8,4.2,0.6,6-0.6c2.5-1.6,3.7-4.7,2.9-7.5c-0.6-2.1-2.1-3.7-4.1-4.5
	C11.4,76.2,10.5,76.1,9.8,76.1z"/>
<path class="st4" d="M73.2,89.8c-4.6,2.9-10.8,0.6-12.3-4.7c-1-3.4,0.5-7.2,3.5-9.2c4.6-2.9,10.8-0.6,12.3,4.7
	C77.6,84.2,76.2,87.9,73.2,89.8z"/>
<path class="st1" d="M68.8,92.6c-1.2,0-2.3-0.2-3.5-0.7c-2.8-1.1-5-3.4-5.9-6.4c-1.2-4.1,0.5-8.6,4.2-10.8c2.6-1.7,5.8-2,8.6-0.9
	c2.8,1.1,5,3.4,5.9,6.5c1.2,4.1-0.5,8.6-4.2,10.8C72.3,92.1,70.5,92.6,68.8,92.6z M68.8,76.1c-1.3,0-2.4,0.4-3.6,1.1
	c-2.5,1.6-3.7,4.7-2.9,7.5c0.6,2.1,2.1,3.7,4.1,4.5c2,0.8,4.2,0.6,6-0.6c2.5-1.6,3.7-4.7,2.9-7.5c-0.6-2.1-2.1-3.7-4.1-4.5
	C70.4,76.2,69.5,76.1,68.8,76.1z"/>
<path class="st5" d="M20,15.1c0.4-0.5,0.9-0.9,1.2-1.3c0.4-0.5,0.8-0.7,1-1c0.2-0.3,0.4-0.6,0.7-1c0.1-0.2,0.4-0.5,0.3-0.8
	c-0.1-0.3-0.1-0.5-0.3-0.7c-0.2-0.1-0.3-0.2-0.8-0.3c-0.3,0.1-0.5,0.1-0.7,0.3s-0.2,0.3-0.6,0.5l-0.9-0.9C20.1,9.6,20.7,9.2,21,9
	c0.4-0.2,0.8-0.4,1.4-0.2c0.3-0.1,0.7,0,0.9,0.1c0.3-0.1,0.6,0.2,0.8,0.3c0.2,0.1,0.4,0.5,0.5,0.6c0.1,0.3,0.1,0.5,0.1,0.9
	s-0.2,0.6-0.1,0.9c-0.1,0.2-0.4,0.5-0.6,0.8c-0.2,0.3-0.4,0.6-0.7,1c-0.2,0.3-0.4,0.6-0.9,0.9c0,0,0.3-0.1,0.5-0.1
	c0.3-0.1,0.3-0.1,0.5-0.1l1.5,0.1l-0.1,1.5l-5.2,0.2L20,15.1z"/>
<path class="st5" d="M7.7,85.1c0.4-0.5,0.9-0.9,1.3-1.3c0.2-0.4,0.7-0.7,1-1.1c0.2-0.4,0.5-0.6,0.6-0.9c0.1-0.3,0.1-0.5,0.2-0.9
	s-0.1-0.6-0.2-0.8C10.5,80,10.2,80,9.7,80c-0.3-0.1-0.4,0-0.8,0.2c-0.2,0.1-0.3,0.2-0.5,0.6l-1-0.8c0.2-0.4,0.7-0.7,1-0.9
	s0.6-0.4,1.4-0.4c0.3,0.1,0.7,0,1,0.1c0.3,0.1,0.5,0.1,0.7,0.4c0.1,0.2,0.3,0.5,0.4,0.6c0.1,0.2,0.3,0.5,0.3,1c-0.1,0.3,0,0.4,0,0.7
	c0,0,0,0-0.1,0.3s-0.1,0.5-0.4,0.7c-0.2,0.4-0.4,0.5-0.8,1c-0.2,0.4-0.5,0.6-0.8,1c0.2-0.1,0.4,0,0.6-0.1c0.3,0.1,0.4,0,0.6-0.1
	l0.7,0c0.4,0,0.7,0.3,0.7,0.7c0,0.4-0.3,0.7-0.7,0.7l-4.5,0.4L7.7,85.1z"/>
<path class="st5" d="M66.2,83.3l1.4,0.8l2.2-3.6l-1.2-0.8l0.6-0.8c0.4,0.2,0.6,0.2,1,0.2c0.2,0,0.6,0,0.8,0l1,0.6l-3.2,5.2l1.2,0.8
	l-0.8,1.2l-4-2.6L66.2,83.3z"/>
<path class="st5" d="M43,50.9c0.2,0.1,0.5,0.4,0.5,0.6c0.2,0.1,0.5,0.4,0.8,0.3c0.4,0,0.7,0,0.9-0.2c0.1-0.2,0.4-0.5,0.6-0.8
	c-0.1-0.3,0-0.7-0.2-0.9c-0.2-0.1-0.5-0.4-0.6-0.4l-0.2-0.1c0,0,0,0-0.3,0.1c0,0,0,0-0.3,0.1c0,0-0.1,0.2-0.3,0.1l-0.6-0.4l0.9-3.8
	l4.1,0.7L48,47.4l-2.7-0.4l-0.2,1.2l0.3-0.1c0,0,0.3-0.1,0.4,0c0.2,0.1,0.6,0.2,0.8,0.3c0.2,0.1,0.5,0.4,0.6,0.4
	c0.2,0.1,0.2,0.4,0.4,0.8c0.1,0.3,0.1,0.5,0.1,1c0,0.4-0.3,0.8-0.4,1c-0.2,0.3-0.4,0.5-0.8,0.7c-0.1,0.2-0.5,0.4-0.9,0.3
	c-0.3,0.1-0.7,0-1,0.1c-0.6-0.2-1-0.3-1.5-0.6c-0.3-0.2-0.6-0.4-0.9-0.9L43,50.9z"/>
</svg>
