<?xml version="1.0" encoding="utf-8"?>
<!-- Generator: Adobe Illustrator 21.1.0, SVG Export Plug-In . SVG Version: 6.00 Build 0)  -->
<svg version="1.1" id="Layer_1" xmlns="http://www.w3.org/2000/svg" xmlns:xlink="http://www.w3.org/1999/xlink" x="0px" y="0px"
	 viewBox="0 0 57.3 36.1" style="enable-background:new 0 0 57.3 36.1;" xml:space="preserve">
<style type="text/css">
	.st0{fill:#FFFFFF;}
</style>
<g>
	<g>
		<path class="st0" d="M32.3,8.6c4.7-1,10.6-1.9,11.2-7.8H7C3.2,1.1,0.6,4.2,0.6,7.5v8.1v19.9C0.9,34,2,27.9,5,23.3
			c2.2-3.4,5.3-6.1,8.7-8.2C19.2,11.9,25.7,10.1,32.3,8.6L32.3,8.6z M56.6,0.8v21.3v6.7c0,3.7-3.1,6.8-6.8,6.8H32.5
			c4.8-2,13.9-7,13.7-13.1c-0.3-8.8-12.6-6-12.6-6c1.7,2.4,2.9,5.3,1.6,8.6c-1.6,4.2-5.9,7.1-9.9,8.5c-7.5,2.6-14.6,1.9-14.6,1.9
			c1-4.4,2.3-9.1,5.1-12.6c3.7-4.6,9.3-6.7,14.6-8.7c5.5-2,14.9-2.9,20.1-6.5C55.8,4.1,56.6,0.8,56.6,0.8z"/>
	</g>
</g>
</svg>
