<?xml version="1.0" encoding="utf-8"?>
<!-- Generator: Adobe Illustrator 21.1.0, SVG Export Plug-In . SVG Version: 6.00 Build 0)  -->
<svg version="1.1" id="Слой_1" xmlns="http://www.w3.org/2000/svg" xmlns:xlink="http://www.w3.org/1999/xlink" x="0px" y="0px"
	 viewBox="0 0 53.9 87.1" style="enable-background:new 0 0 53.9 87.1;" xml:space="preserve">
<style type="text/css">
	.st0{fill:#FFFFFF;}
</style>
<title>finger+</title>
<path class="st0" d="M47.2,41c0,0.1,0,0.2,0,0.3l-0.4,13.5c-0.3,3.4-1.1,6.7-2.3,9.8l-3.1,8.2c-0.6,2.1-0.7,4.3-0.4,6.4l1.2,6.2
	c0.2,0.8-0.4,1.6-1.2,1.7c0,0,0,0,0,0h-0.3c-0.7,0-1.3-0.5-1.5-1.2L38,79.5c-0.4-2.6-0.2-5.3,0.6-7.9l3.1-8.3
	c1.1-2.8,1.8-5.8,2.1-8.8l0.4-13.2c-0.1-1.1-0.6-2.1-1.6-2.8c-1.2-0.5-2.4-0.5-3.6-0.1c0.6,3.4,0.6,6.9,0.1,10.4
	c-0.1,0.7-0.7,1.3-1.5,1.3h-0.2c-0.8-0.1-1.4-0.9-1.3-1.7c1.1-8.1-1.1-13-1.1-13L35,35.2L24.6,5.9c-0.1-0.4-1.3-3.5-3.8-2.8
	s-1.2,5.6-1.2,5.7c1.1,4.7,6.4,28.1,6,31.2c-0.1,0.8-0.9,1.4-1.7,1.3s-1.4-0.9-1.3-1.7c0-0.9-0.1-1.8-0.3-2.7
	c-1.8-0.8-4-1.3-4.8-0.9c-0.1,0-0.2,0.1-0.2,0.4c-0.6,3.8-1,7.4-1,7.4c-0.1,0.8-0.7,1.3-1.5,1.3h-0.2c-0.8-0.1-1.4-0.8-1.3-1.7
	c0,0,0,0,0,0c0,0,0.1-0.8,0.2-1.9c-1.3-0.4-2.9-0.6-3.6-0.2c-0.1,0.1-0.4,0.3-0.5,1c-0.2,1.7-0.3,3.4-0.2,5.1
	c0.2,0.8-0.3,1.6-1.1,1.7c0,0,0,0,0,0c-0.1,0-0.2,0-0.3,0c-0.7,0-1.3-0.5-1.5-1.2c-0.1-0.5-0.1-1-0.1-1.5c-0.9-0.1-1.8,0.1-2.6,0.5
	c-0.5,0.4-0.8,1.1-0.8,1.8c-0.1,3.1,3.8,11.5,6.2,16.5c1,1.8,1.8,3.8,2.5,5.7c0.3,2.9,0.4,5.8,0.2,8.8c0,1.8-0.1,3.7-0.1,5.5
	c0,0.8-0.7,1.5-1.5,1.5s-1.5-0.7-1.5-1.5c0-1.9,0-3.8,0.1-5.6c0.2-2.7,0.1-5.4-0.1-8.1c-0.1-0.5-1.2-2.9-2.2-5.1
	C3,59.2-0.1,52.3,0,48.8c0-1.6,0.7-3.1,2-4.1c1.3-0.9,2.9-1.3,4.5-1.1c0-0.4,0.1-0.8,0.1-1.3c0-1.4,0.7-2.6,1.9-3.4
	c1.7-1,4-0.7,5.6-0.3c0.1-0.8,0.3-1.8,0.4-2.7c0.1-1.1,0.8-2.1,1.8-2.6c1.6-0.8,3.8-0.4,5.6,0.2c-1.1-6-3.1-15.4-5.1-24
	c-0.1-0.4-1.2-4.3,0.4-7c0.6-1.1,1.6-1.9,2.9-2.2c4.3-1.2,6.7,2.5,7.4,4.7l10.4,29.3c0.2,0.4,0.3,0.9,0.5,1.4c1.9-0.6,4-0.4,5.8,0.5
	C45.8,37.1,47,38.9,47.2,41z M50,0.6c-2.3-0.7-4.9,0.3-6,2.5c0,0.1-0.1,0.1-0.1,0.2L43,6c-0.3,0.8,0.2,1.6,0.9,1.9
	c0.8,0.3,1.6-0.2,1.9-0.9l0.8-2.5c0.5-0.8,1.5-1.2,2.5-0.9c2.4,0.7,2.2,3.4,0.6,9.1c-0.1,0.5-0.3,0.9-0.4,1.4
	c-0.2,0.8,0.3,1.6,1.1,1.8c0.8,0.2,1.6-0.3,1.8-1.1c0.1-0.5,0.3-0.9,0.4-1.4C53.9,8.7,55.7,2.3,50,0.6z M49,20
	c-0.8-0.2-1.6,0.3-1.8,1.1l-2.3,8.7c-0.2,0.8,0.3,1.6,1.1,1.8c0.1,0,0.3,0.1,0.4,0c0.7,0,1.2-0.4,1.4-1l2.3-8.7
	C50.2,21,49.8,20.2,49,20C49,20,49,20,49,20z M31.8,4.3c2.3-0.8,4.8-0.8,7.1,0.1c0.5,0.2,1.1,0,1.3-0.5s0-1.1-0.5-1.3l0,0
	c-2.8-1.2-5.9-1.2-8.7-0.1c-0.5,0.2-0.7,0.9-0.4,1.3C30.8,4.2,31.4,4.5,31.8,4.3L31.8,4.3z M38.5,9.7c-1.9-0.5-3.8-0.5-5.7,0
	c-0.5,0.2-0.8,0.7-0.7,1.3c0.2,0.5,0.7,0.8,1.3,0.7c1.4-0.4,3-0.4,4.4,0c0.5,0.2,1.1-0.1,1.2-0.7C39.2,10.5,39,9.9,38.5,9.7
	L38.5,9.7z M41,18.3c0.8,0.2,1.6-0.2,1.8-1l1.5-5.4c0.2-0.8-0.2-1.6-1-1.9c-0.8-0.2-1.6,0.2-1.8,1l-1.5,5.4
	C39.7,17.2,40.2,18,41,18.3z"/>
</svg>
