<?xml version="1.0" encoding="utf-8"?>
<!-- Generator: Adobe Illustrator 21.1.0, SVG Export Plug-In . SVG Version: 6.00 Build 0)  -->
<svg version="1.1" id="Layer_1" xmlns="http://www.w3.org/2000/svg" xmlns:xlink="http://www.w3.org/1999/xlink" x="0px" y="0px"
	 viewBox="0 0 60 60" style="enable-background:new 0 0 60 60;" xml:space="preserve">
<style type="text/css">
	.st0{fill:#F4F8FF;}
	.st1{fill:#DFEEFF;}
	.st2{fill:#4C739E;}
	.st3{fill:#A3D4FF;}
	.st4{fill:#FFFFFF;}
</style>
<g>
	<path class="st0" d="M29.3,57c14,0,25.3-11.3,25.3-25.3S43.3,6.4,29.3,6.4S4,17.7,4,31.7S15.3,57,29.3,57z"/>
	<path class="st1" d="M8.8,50.4H6.9v5.7h1.9V50.4z"/>
	<path class="st1" d="M10.7,52.3H5v1.9h5.7V52.3z"/>
	<path class="st1" d="M53.7,4.5h-1.9v5.7h1.9V4.5z"/>
	<path class="st1" d="M55.6,6.4h-5.7v1.9h5.7V6.4z"/>
	<g>
		<path class="st0" d="M21.3,31.8c6.9,0,12.4-5.6,12.4-12.4C33.7,12.5,28.1,7,21.3,7S8.8,12.5,8.8,19.4
			C8.8,26.2,14.4,31.8,21.3,31.8z"/>
		<path class="st2" d="M17.1,23.6v-1.4h1.2v-1.8h-1.2v-1.8h1.2V12h3.8c0.7,0,1.4,0.1,2,0.2c0.6,0.1,1.2,0.4,1.7,0.7s0.9,0.7,1.1,1.3
			c0.3,0.5,0.4,1.2,0.4,1.9c0,0.8-0.1,1.4-0.4,2c-0.3,0.5-0.7,1-1.1,1.3c-0.5,0.3-1,0.6-1.7,0.8c-0.6,0.2-1.3,0.2-2,0.2h-1.9v1.8
			h5.1v1.4h-5.1v3.1h-1.9v-3.1H17.1z M22.2,18.7c1.1,0,1.8-0.2,2.4-0.6s0.8-1.1,0.8-1.9c0-1.7-1.1-2.5-3.2-2.5h-2v5.1H22.2z"/>
		<path class="st2" d="M21.3,32.8c-7.4,0-13.4-6-13.4-13.4C7.9,12,13.9,6,21.3,6c7.4,0,13.4,6,13.4,13.4
			C34.6,26.7,28.6,32.8,21.3,32.8z M21.3,7.9C15,7.9,9.8,13.1,9.8,19.4c0,6.3,5.2,11.5,11.5,11.5c6.3,0,11.5-5.2,11.5-11.5
			C32.7,13.1,27.6,7.9,21.3,7.9z"/>
	</g>
	<g>
		<path class="st3" d="M22.6,54.4c7.1,0,12.9-5.8,12.9-12.9s-5.8-12.9-12.9-12.9S9.7,34.3,9.7,41.5S15.5,54.4,22.6,54.4z"/>
		<path class="st2" d="M22.6,55.3c-7.6,0-13.9-6.2-13.9-13.9s6.2-13.9,13.9-13.9s13.9,6.2,13.9,13.9S30.2,55.3,22.6,55.3z
			 M22.6,29.5c-6.6,0-11.9,5.4-11.9,11.9c0,6.6,5.4,11.9,11.9,11.9c6.6,0,11.9-5.4,11.9-11.9C34.5,34.9,29.2,29.5,22.6,29.5z"/>
		<path class="st2" d="M25.9,47.7h-2.9c-2.7,0-4.8-2.1-4.8-4.8V40c0-2.7,2.1-4.8,4.8-4.8h2.9v1.9h-2.9c-1.6,0-2.9,1.2-2.9,2.9v2.9
			c0,1.6,1.2,2.9,2.9,2.9h2.9V47.7z"/>
		<path class="st2" d="M23.1,39.1h-6.7V41h6.7V39.1z"/>
		<path class="st2" d="M23.1,41.9h-6.7v1.9h6.7V41.9z"/>
	</g>
	<g>
		<path class="st4" d="M41.3,41.9c6.9,0,12.4-5.6,12.4-12.4c0-6.9-5.6-12.4-12.4-12.4s-12.4,5.6-12.4,12.4
			C28.8,36.3,34.4,41.9,41.3,41.9z"/>
		<path class="st2" d="M41.3,42.8c-7.4,0-13.4-6-13.4-13.4c0-7.4,6-13.4,13.4-13.4c7.4,0,13.4,6,13.4,13.4
			C54.6,36.8,48.6,42.8,41.3,42.8z M41.3,18c-6.3,0-11.5,5.2-11.5,11.5c0,6.3,5.2,11.5,11.5,11.5c6.3,0,11.5-5.2,11.5-11.5
			C52.7,23.2,47.6,18,41.3,18z"/>
		<path class="st2" d="M42.2,35.2h-1.9c-1.6,0-2.9-1.2-2.9-2.9h1.9c0,0.6,0.4,1,1,1h1.9c0.6,0,1-0.4,1-1v-0.6c0-0.4-0.3-0.8-0.7-0.9
			l-3.2-1.1c-1.1-0.4-2-1.5-2-2.7v-0.6c0-1.6,1.2-2.9,2.9-2.9h1.9c1.6,0,2.9,1.2,2.9,2.9h-1.9c0-0.6-0.4-1-1-1h-1.9
			c-0.6,0-1,0.4-1,1v0.6c0,0.4,0.3,0.8,0.7,0.9l3.2,1.1c1.1,0.4,2,1.5,2,2.7v0.6C45.1,34,43.8,35.2,42.2,35.2z"/>
		<path class="st2" d="M42.2,21.8h-1.9v2.9h1.9V21.8z"/>
		<path class="st2" d="M42.2,34.2h-1.9v2.9h1.9V34.2z"/>
	</g>
</g>
</svg>
