<svg version="1.1" id="Layer_1" xmlns="http://www.w3.org/2000/svg" x="0" y="0" viewBox="0 0 100 100" xml:space="preserve"><style>.st1{fill:#4c739e}.st2{fill:#dfeeff}</style><circle cx="50" cy="50.1" r="30" fill="#fff"/><path class="st1" d="M50 81.6c-17.4 0-31.5-14.1-31.5-31.5S32.6 18.5 50 18.5 81.5 32.6 81.5 50 67.4 81.6 50 81.6zm0-60c-15.7 0-28.5 12.8-28.5 28.5S34.3 78.5 50 78.5 78.5 65.7 78.5 50 65.7 21.6 50 21.6z"/><path class="st2" d="M19.6 77.2C12.9 69.8 9.2 60.1 9.2 50.1c0-12 5.3-23.4 14.4-31.1l2 2.3C17.1 28.5 12.2 39 12.2 50.1c0 9.3 3.4 18.2 9.6 25.1l-2.2 2z"/><path class="st2" d="M46.7 99.9C20.5 98.2 0 76.3 0 50.1c0-2.1.1-4.3.4-6.4l3.1.4c-.3 2-.4 4-.4 6 0 24.7 19.3 45.2 43.8 46.8l-.2 3zM69 96.3l-1.2-2.8c17.7-7.3 29.1-24.3 29.1-43.4 0-8-2-15.9-5.9-22.8l2.7-1.5c4.1 7.4 6.3 15.8 6.3 24.3 0 20.3-12.2 38.5-31 46.2zM10 25.4l-2.6-1.6C16.6 8.9 32.5.1 50 .1c10.5 0 20.5 3.2 29 9.2l-1.8 2.5c-8-5.7-17.4-8.7-27.2-8.7-16.4 0-31.3 8.4-40 22.3z"/><path fill="#a3d4ff" d="M32.3 53.9l6.2-6.2 5.3 5.4 17-16.9 6.9 6.9-23.1 23.1z"/><path class="st1" d="M44.6 68.4L30.1 53.9l8.3-8.3 5.4 5.4 17-17 9.1 9.1-25.3 25.3zM34.5 53.9L44.6 64l20.9-20.9-4.7-4.7-17 16.9-5.4-5.4-3.9 4z"/></svg>