<?xml version="1.0" encoding="utf-8"?>
<!-- Generator: Adobe Illustrator 21.1.0, SVG Export Plug-In . SVG Version: 6.00 Build 0)  -->
<svg version="1.1" id="Layer_1" xmlns="http://www.w3.org/2000/svg" xmlns:xlink="http://www.w3.org/1999/xlink" x="0px" y="0px"
	 viewBox="0 0 32 32" style="enable-background:new 0 0 32 32;" xml:space="preserve">
<style type="text/css">
	.st0{fill:#FFFFFF;}
</style>
<path class="st0" d="M6.3,6.6l0.8-2.5c0.3-0.8,1-1.3,1.8-1.3h14.2c0.8,0,1.5,0.5,1.8,1.3l0.8,2.5h2.5c2.1,0,3.8,1.7,3.8,3.8v15.1
	c0,2.1-1.7,3.8-3.8,3.8H3.8c-2.1,0-3.8-1.7-3.8-3.8V10.4c0-2.1,1.7-3.8,3.8-3.8H6.3z M16,24.9c4.4,0,8-3.6,8-8s-3.6-8-8-8
	s-8,3.6-8,8S11.6,24.9,16,24.9z M16,22.1c-2.9,0-5.2-2.3-5.2-5.2s2.3-5.2,5.2-5.2s5.2,2.3,5.2,5.2S18.9,22.1,16,22.1z M26.4,12.2
	v1.9h1.9v-1.9H26.4z"/>
</svg>
