<?xml version="1.0" encoding="utf-8"?>
<!-- Generator: Adobe Illustrator 21.1.0, SVG Export Plug-In . SVG Version: 6.00 Build 0)  -->
<svg version="1.1" id="Layer_1" xmlns="http://www.w3.org/2000/svg" xmlns:xlink="http://www.w3.org/1999/xlink" x="0px" y="0px"
	 viewBox="0 0 100 100" style="enable-background:new 0 0 100 100;" xml:space="preserve">
<style type="text/css">
	.st0{fill:#FFFFFF;}
</style>
<g>
	<path class="st0" d="M12,45.8l5.2-6c2-2.3,5-3.7,8-3.7h33.9l-2.2,11c-0.6,2.8,2.6,4.8,4.9,3.1l28.3-21c1.7-1.2,1.7-3.8,0-5
		l-28.3-21c-2.3-1.7-5.5,0.3-4.9,3.1l2.2,10.9H24.5c-8.8,0-15.9,7.1-15.9,15.9v11.4C8.6,46.3,10.8,47.2,12,45.8z"/>
	<path class="st0" d="M88.8,51.1c-1.8-0.7-3.7-0.2-5,1.3L79,58c-1.4,1.6-3.4,2.5-5.6,2.5H44.7l1.4-7.1c0.5-2.3-0.5-4.6-2.5-5.9
		c-2-1.3-4.5-1.2-6.4,0.2L10.5,67.6c-1.4,1.1-2.3,2.7-2.3,4.5s0.8,3.5,2.3,4.5l26.7,19.8c1,0.7,2.2,1.1,3.4,1.1c1,0,2.1-0.3,3-0.9
		c2-1.3,3-3.6,2.5-5.9l-1.4-7.1H74c9.8,0,17.7-7.9,17.7-17.7V55.3C91.8,53.4,90.6,51.7,88.8,51.1z M86.4,66
		c0,6.8-5.5,12.3-12.3,12.3H41.4c-0.8,0-1.6,0.4-2.1,1s-0.7,1.4-0.6,2.2l2.1,10.3c0,0.1,0,0.2-0.1,0.3c-0.2,0.1-0.2,0-0.3,0
		L13.7,72.3c0,0-0.1-0.1-0.1-0.2s0.1-0.2,0.1-0.2l26.7-19.8c0.1,0,0.1-0.1,0.3,0s0.1,0.2,0.1,0.3l-2.1,10.3c-0.2,0.8,0,1.6,0.6,2.2
		c0.5,0.6,1.3,1,2.1,1h32c3.7,0,7.2-1.6,9.6-4.4l3.3-3.8V66H86.4z"/>
</g>
</svg>
