<?xml version="1.0" encoding="utf-8"?>
<!-- Generator: Adobe Illustrator 21.1.0, SVG Export Plug-In . SVG Version: 6.00 Build 0)  -->
<svg version="1.1" id="Layer_1" xmlns="http://www.w3.org/2000/svg" xmlns:xlink="http://www.w3.org/1999/xlink" x="0px" y="0px"
	 viewBox="0 0 32 32" style="enable-background:new 0 0 32 32;" xml:space="preserve">
<style type="text/css">
	.st0{fill:#FFFFFF;}
</style>
<title>058-Arrow</title>
<desc>Created with Sketch.</desc>
<g>
	<g>
		<path class="st0" d="M11.4,16.8l-6.2,3.6c-0.3,0.2-0.6,0.1-0.8-0.2l-1.5-2.6c-0.2-0.4-0.9-0.3-1,0.1L0,24.9
			c-0.1,0.3,0.1,0.6,0.4,0.7l7.2,1.9c0.5,0.1,0.9-0.4,0.6-0.8L6.7,24c-0.2-0.3-0.1-0.6,0.2-0.8l6.2-3.6c0.3-0.2,0.4-0.5,0.2-0.8
			L12.1,17C12,16.7,11.7,16.6,11.4,16.8z"/>
		<path class="st0" d="M18.9,18.7L17,19.8c-0.3,0.2-0.4,0.5-0.2,0.8l3.6,6.2c0.2,0.3,0.1,0.6-0.2,0.8l-2.6,1.5
			c-0.4,0.2-0.3,0.9,0.1,1l7.2,1.9c0.3,0.1,0.6-0.1,0.7-0.4l1.9-7.2c0.1-0.5-0.4-0.9-0.8-0.6L24,25.3c-0.3,0.2-0.6,0.1-0.8-0.2
			l-3.6-6.2C19.5,18.7,19.1,18.6,18.9,18.7z"/>
		<path class="st0" d="M23.8,5.4L25.3,8c0.2,0.3,0.1,0.6-0.2,0.8l-6.2,3.6c-0.3,0.2-0.4,0.5-0.2,0.8l1.1,1.9
			c0.2,0.3,0.5,0.4,0.8,0.2l6.2-3.6c0.3-0.2,0.6-0.1,0.8,0.2l1.5,2.6c0.2,0.4,0.9,0.3,1-0.1L32,7.1c0.1-0.3-0.1-0.6-0.4-0.7
			l-7.2-1.9C23.9,4.4,23.5,4.9,23.8,5.4z"/>
		<path class="st0" d="M14.3,1.9L7.1,0C6.8-0.1,6.5,0.1,6.4,0.4L4.6,7.6C4.4,8.1,4.9,8.5,5.4,8.2L8,6.7c0.3-0.2,0.6-0.1,0.8,0.2
			l3.6,6.2c0.2,0.3,0.5,0.4,0.8,0.2l1.9-1.1c0.3-0.2,0.4-0.5,0.2-0.8l-3.6-6.2c-0.2-0.3-0.1-0.6,0.2-0.8l2.6-1.5
			C14.9,2.7,14.8,2,14.3,1.9z"/>
	</g>
</g>
</svg>
