<svg version="1.1" id="Layer_1" xmlns="http://www.w3.org/2000/svg" x="0" y="0" viewBox="0 0 280 140" xml:space="preserve"><style>.st0{opacity:.7;enable-background:new}.st0,.st1{fill:#a3b8c2}</style><path class="st0" d="M122.3 55.2H109L99 72.4h13.3zM102.3 55.2H89L79 72.4h13.2z"/><path class="st1" d="M89 55.2h13.3l9.9 17.2H99zM142.3 55.2H129l-10 17.2 6.6 11.4zM139.5 63.2l-3 5.2h13.2l2.9-5.2zM143.6 78.7c-.1.4-.2.7-.4 1.1l-2.1 4.2-2.1-4.3c-.2-.3-.3-.7-.4-1 0 .4-.1.7-.1 1.1l-.9 3.9h-1.2l1.9-8.2 2.3 5c.1.1.2.5.4 1.1.2-.4.3-.8.5-1.1l2.3-5 1.9 8.2h-1.2l-.9-3.9c.1-.2 0-.5 0-1.1zM150.6 80.1l-2.7-4.3h1.3l1.7 2.7c0 .1.2.3.3.6.1-.3.2-.5.3-.7l1.7-2.6h1.3l-2.7 4.3v3.6h-1.3v-3.6zM157.5 75.8h4.4v1.1h-3.1v2h3.1V80h-3.1v3.7h-1.3v-7.9zM165.5 75.8h1.3v7.9h-1.3v-7.9zM170.7 75.5l5 4.8c.3.3.6.6.9 1v-5.5h1.2V84l-5.1-4.9c-.3-.3-.5-.6-.8-.9v5.5h-1.2v-8.2zM187.1 75.8h2c.8 0 1.5 0 2 .4s.8 1 .8 1.7c0 .8-.4 1.4-1.1 1.6.9.1 1.5.9 1.5 1.9 0 .7-.2 1.2-.6 1.6-.6.6-1.3.6-2.4.6h-2v-7.8zm1.7 3.3c1.2 0 1.7-.3 1.7-1.1 0-1-.5-1.2-1.7-1.2h-.5v2.3h.5zm0 3.5c.7 0 1.2 0 1.5-.2.3-.2.5-.6.5-1 0-.5-.2-.9-.6-1.1-.3-.2-.7-.2-1-.2h-.8v2.5h.4zM197 80.1l-2.7-4.3h1.3l1.7 2.7c0 .1.2.3.3.6.1-.3.2-.5.3-.7l1.7-2.6h1.3l-2.7 4.3v3.6H197v-3.6z"/><circle class="st1" cx="182.8" cy="83.1" r="1.8"/><path class="st1" d="M144 55.2l-3 5.2h13.2l2.9-5.2zM109 55.2h13.3l10 17.2H119z"/></svg>