<?xml version="1.0" encoding="utf-8"?>
<!-- Generator: Adobe Illustrator 21.0.2, SVG Export Plug-In . SVG Version: 6.00 Build 0)  -->
<svg version="1.1" id="Layer_1" xmlns="http://www.w3.org/2000/svg" xmlns:xlink="http://www.w3.org/1999/xlink" x="0px" y="0px"
	 viewBox="0 0 47 64.1" style="enable-background:new 0 0 47 64.1;" xml:space="preserve">
<style type="text/css">
	.st0{fill:none;stroke:#FFFFFF;stroke-width:2;stroke-linecap:round;stroke-linejoin:round;stroke-miterlimit:10;}
	.st1{fill:none;stroke:#FFFFFF;stroke-width:2;stroke-miterlimit:10;}
	.st2{fill:none;stroke:#FFFFFF;stroke-width:2;stroke-linecap:round;stroke-miterlimit:10;}
</style>
<g>
	<polyline class="st0" points="19,41.3 11.5,60.2 4.4,63 1.3,55.9 2.6,52.6 6.9,50.8 5.1,46.4 9.5,44.5 7.6,40.1 9.6,35.2 	"/>
	<polyline class="st0" points="37.7,37.4 45.7,56.2 42.5,63 35.5,60.4 34,57 35.8,52.7 31.3,50.8 33.2,46.5 28.8,44.6 27,40.5 	"/>
	<path class="st1" d="M17.1,32.2c2.8,6.7,10.5,9.9,17.2,7.1s9.9-10.5,7.1-17.2C38.8,15.4,31,12.2,24.3,15c-5,2.1-8,6.9-8.1,11.9
		C16,28.7,16.5,30.5,17.1,32.2z"/>
	<ellipse transform="matrix(0.9239 -0.3827 0.3827 0.9239 -6.6589 12.7181)" class="st1" cx="28.6" cy="23.1" rx="3.5" ry="3.5"/>
	<path class="st2" d="M13.5,14.8c-0.3-1.3-0.5-2.6-0.3-4c0.7-6,6.1-10.4,12.1-9.7S35.8,7.2,35,13.2c-0.3,2.8-1.6,5.2-3.5,6.9
		c-1.6,1.4-3.6,2.4-5.8,2.7"/>
	<path class="st1" d="M24.8,14.8C19.9,13,14.5,14.3,11,17.7c-1.3,1.2-2.3,2.7-3,4.4c-2.8,6.7,0.4,14.4,7.1,17.2
		c3.2,1.3,6.6,1.3,9.6,0.2"/>
</g>
</svg>
