<?xml version="1.0" encoding="utf-8"?>
<!-- Generator: Adobe Illustrator 21.0.2, SVG Export Plug-In . SVG Version: 6.00 Build 0)  -->
<svg version="1.1" id="Layer_1" xmlns="http://www.w3.org/2000/svg" xmlns:xlink="http://www.w3.org/1999/xlink" x="0px" y="0px"
	 viewBox="0 0 540 113" style="enable-background:new 0 0 540 113;" xml:space="preserve">
<style type="text/css">
	.st0{fill:#418CCF;}
	.st1{fill:#394145;}
</style>
<g id="Layer1">
	<circle class="st0" cx="50.1" cy="58.3" r="50"/>
</g>
<g id="Layer_9">
	<path class="st1" d="M127.8,93c-2.1,0-3.6-0.5-4.4-1.3c-0.8-0.9-1.2-2.4-1.2-4.4V28.6c0-1.9,0.4-3.4,1.2-4.3
		c0.8-0.9,2.3-1.4,4.4-1.4l18.5-0.1c5.4,0,10.1,0.9,14.1,2.6s7.3,4.1,9.9,7.2c2.6,3.1,4.5,6.7,5.8,10.9s1.9,8.9,1.9,14
		c0,5-0.6,9.7-1.7,14c-1.1,4.3-2.9,8.1-5.4,11.3c-2.5,3.2-5.7,5.7-9.6,7.5c-3.9,1.8-8.6,2.8-14,2.8h-19.5V93z M165.4,57.6
		c0-3.4-0.3-6.5-1-9.4c-0.6-2.9-1.7-5.4-3.3-7.6c-1.5-2.2-3.6-3.9-6.2-5.1c-2.6-1.2-5.8-1.8-9.7-1.8h-10.8V82h11.1
		c3.9,0,7.1-0.6,9.6-1.8c2.5-1.2,4.5-2.9,6-5.1s2.6-4.7,3.2-7.7C165.1,64.4,165.4,61.2,165.4,57.6z"/>
</g>
<g id="Layer_8">
	<path class="st1" d="M233.6,66.5c0,8.9-2,15.7-6.1,20.5s-10.2,7.1-18.4,7.1c-8.1,0-14.1-2.3-18-6.9c-4-4.6-6-11.4-6-20.4
		c0-4.4,0.6-8.3,1.8-11.7s2.9-6.3,5-8.6c2.1-2.3,4.7-4.1,7.7-5.4c3-1.2,6.3-1.9,9.8-1.9c7.9,0,14,2.4,18.1,7.3
		C231.5,51.4,233.6,58,233.6,66.5z M221.7,66.8c0-2.4-0.2-4.7-0.6-6.8c-0.4-2.1-1-4-1.9-5.7c-0.9-1.6-2.1-2.9-3.7-3.9
		c-1.6-0.9-3.6-1.4-6-1.4c-2.1,0-4,0.5-5.6,1.4s-2.9,2.1-4,3.7c-1.1,1.5-1.9,3.4-2.4,5.5s-0.8,4.5-0.8,6.9c0,5.6,0.9,9.9,2.7,13.1
		s5,4.8,9.6,4.8c2.3,0,4.3-0.5,5.9-1.5s2.9-2.3,3.9-3.9s1.7-3.5,2.1-5.6C221.5,71.4,221.7,69.1,221.7,66.8z"/>
</g>
<g id="Layer_7">
	<path class="st1" d="M253,92.7c-0.3,0.2-0.8,0.3-1.5,0.3h-7.8c-0.7,0-1.1-0.1-1.4-0.3c-0.3-0.2-0.5-0.7-0.5-1.4V48.8
		c0-1.2,0.1-2.3,0.3-3.2s0.5-1.8,1-2.5s1.1-1.3,2-1.8s2-0.9,3.5-1.2c0.5-0.1,1.2-0.2,2.2-0.3s2.1-0.2,3.3-0.3s2.3-0.1,3.5-0.2
		c1.1-0.1,2.1-0.1,2.9-0.1c4.1,0,7.5,0.4,10.4,1.2s5.4,2.1,7.6,3.8c2.3-1.5,5.1-2.8,8.3-3.6s6.6-1.4,10.2-1.4
		c4.1,0,7.7,0.6,10.6,1.8s5.3,2.9,7.2,5c1.8,2.1,3.2,4.7,4.1,7.8c0.9,3,1.3,6.4,1.3,9.9v27.5c0,0.7-0.2,1.2-0.4,1.4
		c-0.3,0.2-0.8,0.3-1.6,0.3h-7.7c-0.7,0-1.2-0.1-1.5-0.3c-0.3-0.2-0.4-0.7-0.4-1.4v-26c0-5.4-1-9.4-2.9-12s-5.3-3.9-10.1-3.9
		c-1.7,0-3.7,0.2-5.8,0.6c-2.1,0.4-3.9,1-5.2,1.8c0.8,1.9,1.3,3.9,1.6,6c0.3,2.1,0.4,4.5,0.4,7v26.5c0,0.7-0.2,1.2-0.4,1.4
		s-0.8,0.3-1.5,0.3H277c-0.7,0-1.1-0.1-1.4-0.3s-0.4-0.7-0.4-1.4V64.6c0-2.3-0.2-4.4-0.6-6.3c-0.4-1.9-1-3.5-2-4.8s-2.3-2.4-4.1-3.1
		c-1.8-0.7-4-1.1-6.8-1.1c-0.4,0-0.9,0-1.6,0.1c-0.7,0-1.4,0.1-2.1,0.1s-1.5,0.1-2.1,0.2c-0.7,0.1-1.3,0.2-1.8,0.3v41.4
		C253.4,92,253.3,92.5,253,92.7z"/>
</g>
<g id="Layer_6">
	<path class="st1" d="M378.3,66.5c0,8.9-2,15.7-6.2,20.5c-4.1,4.8-10.2,7.1-18.3,7.1c-8.1,0-14.1-2.3-18-6.9c-4-4.6-6-11.4-6-20.4
		c0-4.4,0.6-8.3,1.8-11.7s2.9-6.3,5-8.6c2.1-2.3,4.7-4.1,7.7-5.4c3-1.2,6.3-1.9,9.8-1.9c7.9,0,14,2.4,18,7.3
		C376.2,51.4,378.3,58,378.3,66.5z M366.4,66.8c0-2.4-0.2-4.7-0.5-6.8c-0.4-2.1-1-4-1.9-5.7c-0.9-1.6-2.1-2.9-3.7-3.9
		c-1.6-0.9-3.5-1.4-6-1.4c-2.1,0-4,0.5-5.6,1.4s-2.9,2.1-4,3.7c-1.1,1.5-1.9,3.4-2.4,5.5s-0.8,4.5-0.8,6.9c0,5.6,0.9,9.9,2.7,13.1
		c1.8,3.2,5,4.8,9.6,4.8c2.3,0,4.3-0.5,5.9-1.5s2.9-2.3,3.8-3.9c1-1.6,1.7-3.5,2.1-5.6C366.2,71.4,366.4,69.1,366.4,66.8z"/>
</g>
<g id="Layer_5">
	<path class="st1" d="M414,88.6c-0.7,1.9-1.4,3.2-2.3,3.9c-0.8,0.7-2.1,1-3.9,1h-5.6c-1.5,0-2.7-0.3-3.5-0.8
		c-0.9-0.6-1.7-1.9-2.5-4.1L380,41.9c-0.3-0.9,0.1-1.4,1.1-1.4h9c0.7,0,1.2,0.1,1.5,0.3s0.5,0.5,0.6,1l7.7,23.7l4.9,17h0.6l4.9-16.9
		l7.4-23.7c0.1-0.5,0.3-0.9,0.5-1.1c0.2-0.2,0.7-0.3,1.5-0.3h8.8c1,0,1.3,0.4,1,1.3L414,88.6z"/>
</g>
<g id="Layer_4">
	<path class="st1" d="M449.3,26.8c0,2-0.7,3.7-2.1,5.1s-3.1,2.1-5.1,2.1s-3.7-0.7-5.1-2.1s-2.1-3.1-2.1-5.1s0.7-3.7,2.1-5.1
		s3.1-2.1,5.1-2.1s3.7,0.7,5.1,2.1C448.6,23.1,449.3,24.8,449.3,26.8z M447.8,91.3c0,0.7-0.1,1.2-0.4,1.4c-0.3,0.2-0.8,0.3-1.6,0.3
		h-7.7c-0.7,0-1.2-0.1-1.5-0.3s-0.5-0.7-0.5-1.4V42.2c0-0.7,0.2-1.2,0.5-1.4s0.8-0.3,1.5-0.3h7.7c0.7,0,1.3,0.1,1.6,0.3
		c0.3,0.2,0.4,0.7,0.4,1.4V91.3z"/>
</g>
<g id="Layer_3">
	<path class="st1" d="M491.1,91.8c0,0.3-0.3,0.6-1,0.8c-2.3,0.7-4.5,1.2-6.8,1.3c-2.3,0.1-4,0.2-5.3,0.2c-5.5,0-9.3-1.2-11.6-3.5
		c-2.3-2.3-3.4-5.9-3.4-10.7V49.4h-7.1c-0.7,0-1.2-0.1-1.3-0.4c-0.2-0.3-0.3-0.7-0.3-1.3v-4.1c0-0.6,0.1-1,0.3-1.3
		c0.2-0.3,0.6-0.5,1.3-0.6l7.6-1.7l1.3-9.5c0.1-0.7,0.3-1.2,0.7-1.5c0.3-0.3,0.8-0.5,1.5-0.8l5.8-2c0.5-0.1,1-0.1,1.3,0.1
		s0.5,0.7,0.5,1.4v12.7h10.7c0.7,0,1.2,0.1,1.3,0.5c0.2,0.3,0.3,0.7,0.3,1.1v5.6c0,0.6-0.1,1-0.3,1.3c-0.2,0.3-0.6,0.4-1.3,0.4
		h-10.7v29c0,2.1,0.5,3.6,1.5,4.4s2.5,1.2,4.6,1.2c0.4,0,0.9,0,1.6,0s1.3-0.1,2-0.2s1.4-0.1,2.1-0.3c0.7-0.1,1.3-0.2,1.8-0.3
		c0.7-0.1,1.1-0.1,1.3,0c0.2,0.2,0.3,0.5,0.4,1l1.1,6.4C491.1,91.1,491.1,91.5,491.1,91.8z"/>
</g>
<g id="Layer_2">
	<path class="st1" d="M539.4,87.3c0,1.6-0.6,2.7-1.9,3.3c-1.5,0.7-3,1.2-4.8,1.7c-1.7,0.5-3.5,0.8-5.3,1.1c-1.8,0.3-3.6,0.4-5.3,0.5
		c-1.8,0.1-3.5,0.1-5,0.1c-4.4,0-8.1-0.4-11-1.3s-5.2-2.1-6.9-3.6s-2.9-3.3-3.5-5.3c-0.7-2-1-4.2-1-6.4c0-2.3,0.4-4.6,1.2-6.8
		c0.8-2.2,2-4.1,3.8-5.7c1.7-1.6,4-3,6.8-4s6.1-1.5,10.1-1.5h11.2v-1.7c0-1.3-0.1-2.4-0.4-3.5c-0.3-1.1-0.8-2-1.5-2.8
		c-0.8-0.8-1.8-1.4-3.1-1.9c-1.3-0.4-3.1-0.6-5.2-0.6c-2.3,0-4.7,0.2-7.4,0.6c-2.7,0.4-4.8,0.9-6.5,1.4c-0.7,0.2-1.3,0.2-1.6,0.1
		c-0.3-0.1-0.6-0.5-0.7-1.1l-1.4-5.7c-0.3-1.1,0-1.8,0.9-2.1c2.8-1.1,5.9-1.8,9.2-2.3c3.3-0.4,6.5-0.7,9.4-0.7
		c6.9,0,12,1.5,15.3,4.6c3.2,3.1,4.9,7.5,4.9,13.4v30.2H539.4z M527.6,68.4H518c-1.1,0-2.3,0.1-3.6,0.2s-2.5,0.5-3.7,1.1
		s-2.1,1.5-2.9,2.6s-1.1,2.7-1.1,4.7c0,2.9,1,4.9,2.9,6s4.5,1.7,7.7,1.7c0.5,0,1.1,0,2,0c0.8,0,1.7-0.1,2.6-0.3
		c0.9-0.1,1.9-0.3,3-0.5c1-0.2,2-0.5,2.9-0.8V68.4H527.6z"/>
</g>
</svg>
