<?xml version="1.0" encoding="utf-8"?>
<!-- Generator: Adobe Illustrator 21.1.0, SVG Export Plug-In . SVG Version: 6.00 Build 0)  -->
<svg version="1.1" id="Слой_1" xmlns="http://www.w3.org/2000/svg" xmlns:xlink="http://www.w3.org/1999/xlink" x="0px" y="0px"
	 viewBox="0 0 440 344" style="enable-background:new 0 0 440 344;" xml:space="preserve">
<style type="text/css">
	.st0{display:none;}
	.st1{display:inline;fill:#FFFFFF;}
	.st2{fill-rule:evenodd;clip-rule:evenodd;fill:#FFFFFF;}
</style>
<g class="st0">
	<polygon class="st1" points="123.4,27.9 221.1,125.7 221.1,223.4 123.4,223.4 25.6,125.7 	"/>
	<polygon class="st1" points="318.9,27.9 416.6,125.7 318.9,223.4 221.1,223.4 221.1,125.7 	"/>
	
		<rect x="152" y="154.3" transform="matrix(0.7071 -0.7071 0.7071 0.7071 -93.221 221.8108)" class="st1" width="138.2" height="138.2"/>
</g>
<g>
	<path class="st2" d="M123.3,89H91.1l-0.7,22.7h32.3C123.1,103.2,123.3,95.6,123.3,89L123.3,89z"/>
	<path class="st2" d="M67.4,89H35.6c0.1,21.8-1.7,72.6-5.6,152.4l30.6,0.1C60.6,221.8,62.8,171,67.4,89L67.4,89z"/>
	<path class="st2" d="M121.2,128.8H90.1c-0.9,50.1-2.3,87.7-4.2,112.5l32.8,0.1C118.5,231.5,119.4,194,121.2,128.8L121.2,128.8z"/>
	<path class="st2" d="M138.2,128.1l-3.9,22.9l16-0.1l-2.8,90.5l31.6,0.1l0.8-90.3h20.8l4.6-23.3h-25.9v-3.5c0-9.5,1.2-15.2,3.5-16.7
		c2.8-2.2,11.9-3,27.1-2.8l4.2-21.3c-12.6-0.6-21.8-0.6-27.6,0C175.5,84.3,167,87.4,161,93c-5.7,5.4-8.8,16-9.4,31.8v3.3H138.2
		L138.2,128.1z"/>
	<path class="st2" d="M302.8,145.6c-9.8-12.3-23.8-18.5-42.1-18.5c-14.9-0.3-27.8,3.8-38.8,12.2c-14.3,11-22.2,26.2-23.6,45.8
		c-1.3,17.5,3.2,31.7,13.5,42.4c9.5,9.8,23,15,40.5,15.6c15.5,0.4,29.6-0.9,42.5-3.9l4.5-23.3c-10.3,4.5-23.5,6.8-39.3,6.8
		c-14.6,0-23.7-4.2-27.4-12.6c-2.2-4.8-3.3-9.7-3.3-15l0.7-6.5h83l0.3-2.6C314.3,169.4,310.8,155.9,302.8,145.6L302.8,145.6z
		 M240.4,152.6c4.8-5.1,11.3-7.7,19.6-7.7c8.2-0.1,14.6,3.1,18.9,9.4c3.3,5.2,4.5,11,3.9,17.5l-0.4,2.8l-50.9-0.2
		C232,165.7,234.9,158.5,240.4,152.6L240.4,152.6z"/>
	<polygon class="st2" points="366.7,159.3 367.5,129.3 332,129.3 331.3,159.3 366.7,159.3 	"/>
	<path class="st2" d="M409.2,111.5c-6.9-17.2-11.9-27.9-14.9-32.3h-20.7c9.6,17.4,15.6,36.5,18.2,57.3c1.3,10.2,1.7,24.9,1.2,44
		c-0.4,24.2-5.6,48.7-15.6,73.2c-3.9,9.7-8.6,19.5-14.1,29.3h23c6.2-9.4,11.7-19.1,16.3-29.3c2.2-4.8,4.3-9.7,6.2-14.7
		c7.4-20.6,11.4-39.7,11.7-57.5C421.1,155.7,417.3,132.4,409.2,111.5L409.2,111.5z"/>
	<polygon class="st2" points="327.8,212.4 327.1,242.1 362.9,242.1 363.6,212.4 327.8,212.4 	"/>
</g>
</svg>
