<?xml version="1.0" encoding="utf-8"?>
<!-- Generator: Adobe Illustrator 21.1.0, SVG Export Plug-In . SVG Version: 6.00 Build 0)  -->
<svg version="1.1" id="Слой_1" xmlns="http://www.w3.org/2000/svg" xmlns:xlink="http://www.w3.org/1999/xlink" x="0px" y="0px"
	 viewBox="0 0 251 252" style="enable-background:new 0 0 251 252;" xml:space="preserve">
<style type="text/css">
	.st0{display:none;}
	.st1{display:inline;fill:#FFFFFF;}
	.st2{display:inline;fill-rule:evenodd;clip-rule:evenodd;fill:#FFFFFF;}
	.st3{fill-rule:evenodd;clip-rule:evenodd;fill:#FFFFFF;}
</style>
<g class="st0">
	<polygon class="st1" points="28.4,-18.1 126.1,79.7 126.1,177.4 28.4,177.4 -69.4,79.7 	"/>
	<polygon class="st1" points="223.9,-18.1 321.6,79.7 223.9,177.4 126.1,177.4 126.1,79.7 	"/>
	
		<rect x="57" y="108.3" transform="matrix(0.7071 -0.7071 0.7071 0.7071 -88.5191 141.1623)" class="st1" width="138.2" height="138.2"/>
</g>
<g class="st0">
	<path class="st2" d="M28.3,43H-3.9l-0.7,22.7h32.3C28.1,57.2,28.3,49.6,28.3,43L28.3,43z"/>
	<path class="st2" d="M-27.6,43h-31.9c0.1,21.8-1.7,72.6-5.6,152.4l30.6,0.1C-34.4,175.8-32.2,125-27.6,43L-27.6,43z"/>
	<path class="st2" d="M26.2,82.8H-4.9c-0.9,50.1-2.3,87.7-4.2,112.5l32.8,0.1C23.5,185.5,24.4,148,26.2,82.8L26.2,82.8z"/>
	<path class="st2" d="M43.2,82.1L39.3,105l16-0.1l-2.8,90.5l31.6,0.1l0.8-90.3h20.8l4.6-23.3H84.4v-3.5c0-9.5,1.2-15.2,3.5-16.7
		c2.8-2.2,11.9-3,27.1-2.8l4.2-21.3c-12.6-0.6-21.8-0.6-27.6,0C80.5,38.3,72,41.4,66,47c-5.7,5.4-8.8,16-9.4,31.8v3.3H43.2
		L43.2,82.1z"/>
	<path class="st2" d="M207.8,99.6c-9.8-12.3-23.8-18.5-42.1-18.5c-14.9-0.3-27.8,3.8-38.8,12.2c-14.3,11-22.2,26.2-23.6,45.8
		c-1.3,17.5,3.2,31.7,13.5,42.4c9.5,9.8,23,15,40.5,15.6c15.5,0.4,29.6-0.9,42.5-3.9l4.5-23.3c-10.3,4.5-23.5,6.8-39.3,6.8
		c-14.6,0-23.7-4.2-27.4-12.6c-2.2-4.8-3.3-9.7-3.3-15l0.7-6.5h83l0.3-2.6C219.3,123.4,215.8,109.9,207.8,99.6L207.8,99.6z
		 M145.4,106.6c4.8-5.1,11.3-7.7,19.6-7.7c8.2-0.1,14.6,3.1,18.9,9.4c3.3,5.2,4.5,11,3.9,17.5l-0.4,2.8l-50.9-0.2
		C137,119.7,139.9,112.5,145.4,106.6L145.4,106.6z"/>
	<polygon class="st2" points="271.7,113.3 272.5,83.3 237,83.3 236.3,113.3 271.7,113.3 	"/>
	<path class="st2" d="M314.2,65.5c-6.9-17.2-11.9-27.9-14.9-32.3h-20.7c9.6,17.4,15.6,36.5,18.2,57.3c1.3,10.2,1.7,24.9,1.2,44
		c-0.4,24.2-5.6,48.7-15.6,73.2c-3.9,9.7-8.6,19.5-14.1,29.3h23c6.2-9.4,11.7-19.1,16.3-29.3c2.2-4.8,4.3-9.7,6.2-14.7
		c7.4-20.6,11.4-39.7,11.7-57.5C326.1,109.7,322.3,86.4,314.2,65.5L314.2,65.5z"/>
	<polygon class="st2" points="232.8,166.4 232.1,196.1 267.9,196.1 268.6,166.4 232.8,166.4 	"/>
</g>
<path class="st3" d="M18.4,19.4v213.2h213.2V19.4H18.4z M125,210.7c-41.1,0-62.7-31.4-62.7-68.3c0-46.9,32.4-101.1,62.7-101.1
	c30.3,0,62.7,54.2,62.7,101.1C187.7,179.2,166,210.7,125,210.7z"/>
</svg>
